<?xml version="1.0" encoding="utf-8"?>
<!-- Generator: Adobe Illustrator 26.0.1, SVG Export Plug-In . SVG Version: 6.00 Build 0)  -->
<svg version="1.1" id="Layer_1" xmlns="http://www.w3.org/2000/svg" xmlns:xlink="http://www.w3.org/1999/xlink" x="0px" y="0px"
	 viewBox="0 0 295 211.3" style="enable-background:new 0 0 295 211.3;" xml:space="preserve">
<style type="text/css">
	.st0{fill:#65CAFF;}
	.st1{opacity:0.8;}
	.st2{fill:#5CAEB7;}
	.st3{fill:#AEE7ED;}
	.st4{fill:#4CC8E5;}
	.st5{fill:#93E4E7;}
	.st6{fill:#6DD1D1;}
	.st7{opacity:0.2;fill:#FFFFFF;}
	.st8{fill:#70767E;}
	.st9{fill:#BBC3CE;}
	.st10{opacity:0.3;fill:#FFFFFF;}
	.st11{fill:#D1D6D7;}
	.st12{fill:#839FA8;}
	.st13{fill:#6B8793;}
	.st14{opacity:0.2;}
	.st15{fill:#907669;}
	.st16{fill:#BDCA6F;}
	.st17{fill:#A1BA38;}
	.st18{opacity:0.1;}
	.st19{fill:#FFFFFF;}
	.st20{fill:#123D45;}
	.st21{fill:#217582;}
	.st22{fill:#5D5D5D;}
	.st23{fill:#F7F3F1;}
	.st24{fill:#CCB5A3;}
	.st25{fill:#2E9BC6;}
	.st26{fill:#B7B7B7;}
	.st27{fill:#969696;}
</style>
<g>
	<g>
		<rect x="49.4" y="170.2" class="st0" width="150.7" height="26.2"/>
	</g>
	<g class="st1">
		<g>
			<polygon class="st2" points="200,186.7 178.1,186.7 178.1,183.3 163,183.3 163,187.5 147.1,187.5 147.1,182.2 124.4,182.2 
				124.4,185.8 114.1,185.8 114.1,183.5 98.9,183.5 98.9,187.7 83.1,187.7 83.1,182.4 60.4,182.4 60.4,186 49.5,186 49.5,196.2 
				200,196.4 			"/>
		</g>
	</g>
	<g>
		<g>
			<g>
				<rect x="55.8" y="170.2" class="st3" width="1" height="26.2"/>
			</g>
			<g>
				<rect x="67.8" y="170.2" class="st3" width="1" height="26.2"/>
			</g>
			<g>
				<rect x="80.7" y="170.2" class="st3" width="1" height="26.2"/>
			</g>
			<g>
				<rect x="92.7" y="170.2" class="st3" width="1" height="26.2"/>
			</g>
			<g>
				<rect x="105.6" y="170.2" class="st3" width="1" height="26.2"/>
			</g>
			<g>
				<rect x="117.6" y="170.2" class="st3" width="1" height="26.2"/>
			</g>
			<g>
				<rect x="130.5" y="170.2" class="st3" width="1" height="26.2"/>
			</g>
			<g>
				<rect x="142.5" y="170.2" class="st3" width="1" height="26.2"/>
			</g>
			<g>
				<rect x="155.4" y="170.2" class="st3" width="1" height="26.2"/>
			</g>
			<g>
				<rect x="167.4" y="170.2" class="st3" width="1" height="26.2"/>
			</g>
			<g>
				<rect x="180.3" y="170.2" class="st3" width="1" height="26.2"/>
			</g>
			<g>
				<rect x="192.3" y="170.2" class="st3" width="1" height="26.2"/>
			</g>
		</g>
		<g>
			<rect x="49.4" y="173.7" class="st3" width="150.6" height="0.8"/>
		</g>
		<g>
			<rect x="49.4" y="180.6" class="st3" width="150.7" height="1"/>
		</g>
	</g>
	<rect x="67.7" y="21" class="st4" width="28.6" height="136.2"/>
	<rect x="96.3" y="21" class="st5" width="16.2" height="136.2"/>
	<rect x="114.4" y="21" class="st6" width="16.5" height="136.7"/>
	<rect x="51.5" y="21" class="st5" width="16.2" height="136.2"/>
	<polygon class="st7" points="51.9,20.8 112.4,156.8 112.3,108.1 72.6,20.6 	"/>
	<rect x="50.8" y="87.7" class="st8" width="80" height="2.6"/>
	<rect x="51.8" y="87.6" class="st9" width="79" height="1.3"/>
	<rect x="50.8" y="105.5" class="st8" width="80" height="2.6"/>
	<rect x="51.8" y="105.4" class="st9" width="78.9" height="1.2"/>
	<rect x="50.8" y="124.5" class="st8" width="80.1" height="2.6"/>
	<rect x="51.8" y="124.4" class="st9" width="79.1" height="1.3"/>
	<rect x="50.8" y="143.4" class="st8" width="80.2" height="2.6"/>
	<rect x="51.8" y="143.3" class="st9" width="79.2" height="1.3"/>
	<polygon class="st10" points="83.4,20.6 112.6,80.9 112.3,47.9 98.7,20.9 	"/>
	<rect x="49.2" y="12.8" class="st11" width="82.7" height="8.2"/>
	<rect x="49.2" y="16.9" class="st12" width="82.7" height="4.1"/>
	<rect x="50.8" y="32.1" class="st8" width="80" height="2.6"/>
	<rect x="50.8" y="49.9" class="st8" width="80" height="2.6"/>
	<rect x="51.8" y="32" class="st9" width="79" height="1.3"/>
	<rect x="51.8" y="49.8" class="st9" width="79" height="1.3"/>
	<rect x="50.8" y="68.8" class="st8" width="80" height="2.6"/>
	<rect x="51.8" y="68.7" class="st9" width="79" height="1.3"/>
	<rect x="112.4" y="21" class="st13" width="2.2" height="136.2"/>
	<rect x="129.6" y="21" class="st13" width="2.3" height="136.2"/>
	<polygon class="st12" points="51.9,157.2 49.2,157.2 49.2,20.8 51.9,20.8 51.9,133.6 	"/>
	<polygon class="st7" points="51.8,67.1 94.9,156.8 74.7,157.2 51.8,105.9 	"/>
	<rect x="167.4" y="170.5" class="st14" width="32.6" height="25.8"/>
	<g>
		<g>
			<g>
				<g>
					<path class="st15" d="M25.1,195.8c0,0.5-0.4,0.9-0.9,0.9l0,0c-0.5,0-0.9-0.4-0.9-0.9v-21.3c0-0.5,0.4-0.9,0.9-0.9l0,0
						c0.5,0,0.9,0.4,0.9,0.9V195.8z"/>
				</g>
			</g>
			<g>
				<g>
					<path class="st15" d="M24.3,173.6v23.1c0.5,0,0.9-0.4,0.9-0.9v-21.3C25.1,174,24.7,173.6,24.3,173.6z"/>
				</g>
			</g>
		</g>
		<g>
			<g>
				<path class="st16" d="M35.6,177.6c0,9.1-10,11.4-10,11.4s-10-2.4-10-11.4c0-9.1,10-21.4,10-21.4S35.6,168.6,35.6,177.6z"/>
			</g>
		</g>
		<g>
			<g>
				<path class="st17" d="M33.4,177.6c0,9.1-10,11.4-10,11.4s-10-2.4-10-11.4c0-9.1,10-21.4,10-21.4S33.4,168.6,33.4,177.6z"/>
			</g>
		</g>
		<g class="st18">
			<path class="st19" d="M23.4,156.3c0,0,22.3,25.7,0,32.8C23.4,189.1,33.7,178.1,23.4,156.3z"/>
		</g>
		<g class="st18">
			<path d="M23.4,156.3c0,0-22.8,25.5,0,32.8C23.4,189.1,13.2,174.5,23.4,156.3z"/>
		</g>
		<g>
			<polygon class="st16" points="23.4,156.3 25.6,156.3 24.5,157.7 			"/>
		</g>
		<g>
			<polygon class="st16" points="23.4,189.1 25.6,189.1 24.5,188.7 			"/>
		</g>
		<g>
			<g>
				<g>
					<path class="st15" d="M39.1,195.7c0,0.3-0.2,0.6-0.6,0.6l0,0c-0.3,0-0.5-0.3-0.5-0.6V182c0-0.3,0.2-0.6,0.5-0.6l0,0
						c0.3,0,0.6,0.3,0.6,0.6V195.7z"/>
				</g>
			</g>
			<g>
				<g>
					<path class="st15" d="M38.6,181.4v14.9c0.3,0,0.6-0.3,0.6-0.6V182C39.1,181.7,38.9,181.4,38.6,181.4z"/>
				</g>
			</g>
		</g>
		<g>
			<g>
				<path class="st16" d="M45.9,184c0,5.8-6.5,7.3-6.5,7.3S33,189.9,33,184c0-5.8,6.5-13.8,6.5-13.8S45.9,178.2,45.9,184z"/>
			</g>
		</g>
		<g>
			<g>
				<path class="st17" d="M44.5,184c0,5.8-6.5,7.3-6.5,7.3s-6.5-1.5-6.5-7.3c0-5.8,6.5-13.8,6.5-13.8S44.5,178.2,44.5,184z"/>
			</g>
		</g>
		<g class="st18">
			<path class="st19" d="M38,170.3c0,0,14.3,16.5,0,21.1C38,191.4,44.6,184.3,38,170.3z"/>
		</g>
		<g class="st18">
			<path d="M38,170.3c0,0-14.7,16.4,0,21.1C38,191.4,31.5,182,38,170.3z"/>
		</g>
		<g>
			<polygon class="st16" points="38,170.3 39.4,170.3 38.7,171.2 			"/>
		</g>
		<g>
			<polygon class="st16" points="38,191.4 39.4,191.4 38.7,191.2 			"/>
		</g>
	</g>
	<g>
		<g>
			<g>
				<g>
					<path class="st15" d="M251.7,195.5c0,0.5-0.4,0.9-0.9,0.9l0,0c-0.5,0-0.9-0.4-0.9-0.9v-21.3c0-0.5,0.4-0.9,0.9-0.9l0,0
						c0.5,0,0.9,0.4,0.9,0.9V195.5z"/>
				</g>
			</g>
			<g>
				<g>
					<path class="st15" d="M250.8,173.3v23.1c0.5,0,0.9-0.4,0.9-0.9v-21.3C251.7,173.7,251.3,173.3,250.8,173.3z"/>
				</g>
			</g>
		</g>
		<g>
			<g>
				<path class="st16" d="M262.2,177.3c0,9.1-10,11.4-10,11.4s-10-2.4-10-11.4c0-9.1,10-21.4,10-21.4S262.2,168.3,262.2,177.3z"/>
			</g>
		</g>
		<g>
			<g>
				<path class="st17" d="M260,177.3c0,9.1-10,11.4-10,11.4s-10-2.4-10-11.4c0-9.1,10-21.4,10-21.4S260,168.3,260,177.3z"/>
			</g>
		</g>
		<g class="st18">
			<path class="st19" d="M250,155.9c0,0,22.3,25.7,0,32.8C250,188.7,260.3,177.7,250,155.9z"/>
		</g>
		<g class="st18">
			<path d="M250,155.9c0,0-22.8,25.5,0,32.8C250,188.7,239.8,174.2,250,155.9z"/>
		</g>
		<g>
			<polygon class="st16" points="250,155.9 252.2,155.9 251.1,157.3 			"/>
		</g>
		<g>
			<polygon class="st16" points="250,188.7 252.2,188.7 251.1,188.4 			"/>
		</g>
		<g>
			<g>
				<g>
					<path class="st15" d="M265.7,195.4c0,0.3-0.2,0.6-0.6,0.6l0,0c-0.3,0-0.5-0.3-0.5-0.6v-13.7c0-0.3,0.2-0.6,0.5-0.6l0,0
						c0.3,0,0.6,0.3,0.6,0.6V195.4z"/>
				</g>
			</g>
			<g>
				<g>
					<path class="st15" d="M265.2,181.1V196c0.3,0,0.6-0.3,0.6-0.6v-13.7C265.7,181.4,265.5,181.1,265.2,181.1z"/>
				</g>
			</g>
		</g>
		<g>
			<g>
				<path class="st16" d="M272.5,183.7c0,5.8-6.5,7.3-6.5,7.3s-6.5-1.5-6.5-7.3c0-5.8,6.5-13.8,6.5-13.8S272.5,177.9,272.5,183.7z"
					/>
			</g>
		</g>
		<g>
			<g>
				<path class="st17" d="M271,183.7c0,5.8-6.5,7.3-6.5,7.3s-6.5-1.5-6.5-7.3c0-5.8,6.5-13.8,6.5-13.8S271,177.9,271,183.7z"/>
			</g>
		</g>
		<g class="st18">
			<path class="st19" d="M264.6,169.9c0,0,14.3,16.5,0,21.1C264.6,191,271.2,184,264.6,169.9z"/>
		</g>
		<g class="st18">
			<path d="M264.6,169.9c0,0-14.7,16.4,0,21.1C264.6,191,258.1,181.7,264.6,169.9z"/>
		</g>
		<g>
			<polygon class="st16" points="264.6,169.9 266,169.9 265.3,170.9 			"/>
		</g>
		<g>
			<polygon class="st16" points="264.6,191 266,191 265.3,190.8 			"/>
		</g>
	</g>
	<polygon class="st18" points="167.5,170.4 200,195.2 200.1,170.4 	"/>
	<rect x="231" y="168.4" class="st20" width="3.7" height="27.9"/>
	<rect x="231" y="168.4" class="st21" width="1.7" height="27.9"/>
	<rect x="49.1" y="170.6" class="st18" width="150.8" height="4.7"/>
	<rect x="193.9" y="168.4" class="st20" width="3.7" height="27.9"/>
	<rect x="193.9" y="168.4" class="st21" width="1.7" height="27.9"/>
	<polygon class="st7" points="111.3,195.3 70.6,195.3 55.5,170.6 96.2,170.6 	"/>
	<polygon class="st7" points="168.4,195.3 127.7,195.3 112.6,170.6 153.3,170.6 	"/>
	<rect x="16.5" y="195.4" class="st22" width="261.1" height="2.1"/>
	<rect x="112.2" y="12.8" class="st18" width="19.6" height="143.8"/>
	<rect x="124.8" y="78.8" class="st23" width="77.8" height="89.9"/>
	<rect x="192.8" y="78.8" class="st24" width="27.8" height="89.9"/>
	<rect x="40.8" y="156.2" class="st21" width="198.9" height="14.3"/>
	<g>
		<g>
			<path class="st19" d="M78.8,164.9c0.4,0.2,1.1,0.4,1.8,0.4c0.8,0,1.2-0.3,1.2-0.8c0-0.4-0.4-0.7-1.2-1c-1.2-0.4-2-1-2-2.1
				c0-1.2,1-2.1,2.8-2.1c0.8,0,1.4,0.2,1.9,0.4l-0.4,1.3c-0.3-0.1-0.8-0.3-1.5-0.3c-0.7,0-1.1,0.3-1.1,0.7c0,0.4,0.4,0.6,1.4,1
				c1.3,0.5,1.9,1.1,1.9,2.1c0,1.2-0.9,2.2-3,2.2c-0.8,0-1.7-0.2-2.1-0.4L78.8,164.9z"/>
		</g>
		<g>
			<path class="st19" d="M86.5,159.5v2.7h2.7v-2.7h1.7v7h-1.7v-2.9h-2.7v2.9h-1.7v-7H86.5z"/>
		</g>
		<g>
			<path class="st19" d="M99.3,163c0,2.3-1.5,3.7-3.6,3.7c-2.2,0-3.5-1.6-3.5-3.6c0-2.1,1.4-3.7,3.6-3.7
				C98.1,159.4,99.3,161,99.3,163z M94,163.1c0,1.4,0.7,2.3,1.8,2.3c1.1,0,1.8-1,1.8-2.4c0-1.3-0.6-2.3-1.8-2.3
				C94.7,160.7,94,161.7,94,163.1z"/>
		</g>
		<g>
			<path class="st19" d="M100.6,159.6c0.5-0.1,1.2-0.1,2.2-0.1c1,0,1.8,0.2,2.2,0.6c0.5,0.4,0.8,0.9,0.8,1.6c0,0.7-0.2,1.3-0.7,1.7
				c-0.6,0.5-1.4,0.7-2.4,0.7c-0.2,0-0.4,0-0.6,0v2.5h-1.6V159.6z M102.3,162.8c0.1,0,0.3,0,0.6,0c0.9,0,1.4-0.4,1.4-1.1
				c0-0.6-0.5-1-1.3-1c-0.3,0-0.6,0-0.7,0.1V162.8z"/>
		</g>
		<g>
			<path class="st19" d="M107.2,159.6c0.5-0.1,1.2-0.1,2.2-0.1c1,0,1.8,0.2,2.2,0.6c0.5,0.4,0.8,0.9,0.8,1.6c0,0.7-0.2,1.3-0.7,1.7
				c-0.6,0.5-1.4,0.7-2.4,0.7c-0.2,0-0.4,0-0.6,0v2.5h-1.6V159.6z M108.8,162.8c0.1,0,0.3,0,0.6,0c0.9,0,1.4-0.4,1.4-1.1
				c0-0.6-0.5-1-1.3-1c-0.3,0-0.6,0-0.7,0.1V162.8z"/>
		</g>
		<g>
			<path class="st19" d="M115.4,159.5v7h-1.7v-7H115.4z"/>
		</g>
		<g>
			<path class="st19" d="M117.1,166.5v-7h1.9l1.5,2.6c0.4,0.7,0.9,1.6,1.2,2.4h0c-0.1-0.9-0.1-1.9-0.1-2.9v-2h1.5v7h-1.7l-1.6-2.7
				c-0.4-0.7-0.9-1.6-1.3-2.5l0,0c0,0.9,0.1,1.9,0.1,3v2.1H117.1z"/>
		</g>
		<g>
			<path class="st19" d="M131,166.2c-0.5,0.2-1.5,0.4-2.5,0.4c-1.3,0-2.3-0.3-3-0.9c-0.7-0.6-1-1.5-1-2.5c0-2.3,1.8-3.6,4.2-3.6
				c0.9,0,1.7,0.2,2,0.3l-0.3,1.3c-0.4-0.2-0.9-0.3-1.7-0.3c-1.4,0-2.4,0.7-2.4,2.3c0,1.4,1,2.3,2.3,2.3c0.4,0,0.7,0,0.8-0.1v-1.5
				h-1.1v-1.2h2.7V166.2z"/>
		</g>
		<g>
			<path class="st19" d="M140.9,163.9c0-0.8-0.1-1.9-0.1-2.9h0c-0.2,0.9-0.5,1.9-0.8,2.7l-0.9,2.7h-1.3l-0.8-2.7
				c-0.2-0.8-0.5-1.8-0.7-2.7h0c0,0.9-0.1,2-0.1,2.9l-0.1,2.7h-1.5l0.5-7h2.2l0.7,2.3c0.2,0.8,0.5,1.7,0.6,2.5h0
				c0.2-0.8,0.5-1.7,0.7-2.5l0.8-2.3h2.2l0.4,7H141L140.9,163.9z"/>
		</g>
		<g>
			<path class="st19" d="M145.8,164.7l-0.5,1.8h-1.7l2.2-7h2.2l2.3,7h-1.8l-0.6-1.8H145.8z M147.7,163.6l-0.5-1.5
				c-0.1-0.4-0.3-0.9-0.4-1.3h0c-0.1,0.4-0.2,0.9-0.3,1.3l-0.4,1.5H147.7z"/>
		</g>
		<g>
			<path class="st19" d="M151.5,159.5h1.7v5.7h2.9v1.3h-4.6V159.5z"/>
		</g>
		<g>
			<path class="st19" d="M157.3,159.5h1.7v5.7h2.9v1.3h-4.6V159.5z"/>
		</g>
	</g>
	<g>
		<rect x="127.6" y="92" class="st4" width="62" height="6.7"/>
	</g>
	<g>
		<rect x="195.3" y="91.9" class="st25" width="22.9" height="6.7"/>
	</g>
	<rect x="124.8" y="82.8" class="st26" width="73.7" height="5.8"/>
	<rect x="196" y="82.8" class="st27" width="30.6" height="5.8"/>
	<rect x="124.8" y="102" class="st26" width="73.7" height="5.6"/>
	<rect x="196" y="102" class="st27" width="30.6" height="5.6"/>
	<rect x="124.8" y="120.1" class="st26" width="73.7" height="5.8"/>
	<rect x="196" y="120.1" class="st27" width="30.6" height="5.8"/>
	<rect x="124.7" y="142.5" class="st26" width="73.8" height="5.8"/>
	<rect x="196" y="142.5" class="st27" width="30.6" height="5.8"/>
	<polygon class="st10" points="127.6,92 189.6,98.6 189.6,92 	"/>
	<polygon class="st10" points="195.3,91.9 218.1,98.6 218.1,91.9 	"/>
	<g>
		<rect x="127.6" y="110.1" class="st4" width="62" height="6.7"/>
	</g>
	<g>
		<rect x="195.3" y="110" class="st25" width="22.9" height="6.7"/>
	</g>
	<polygon class="st10" points="127.6,110.1 189.6,116.7 189.6,110.1 	"/>
	<polygon class="st10" points="195.3,110 218.1,116.7 218.1,110 	"/>
	<g>
		<rect x="127.6" y="130.3" class="st4" width="62" height="6.7"/>
	</g>
	<g>
		<rect x="195.3" y="130.2" class="st25" width="22.9" height="6.7"/>
	</g>
	<polygon class="st10" points="127.6,130.3 189.6,137 189.6,130.3 	"/>
	<polygon class="st10" points="195.3,130.2 218.1,137 218.1,130.2 	"/>
	<polygon class="st18" points="163.5,156.3 124.6,156.3 124.6,78.8 163.5,156.3 	"/>
	<rect x="124.8" y="107.6" class="st18" width="95.5" height="1.4"/>
	<rect x="124.8" y="88.7" class="st18" width="95.5" height="1.4"/>
	<rect x="124.7" y="125.9" class="st18" width="95.5" height="1.4"/>
	<rect x="124.6" y="148.3" class="st18" width="95.9" height="2.2"/>
	<rect x="185.3" y="156.2" class="st20" width="54.4" height="14.3"/>
</g>
</svg>
