<?xml version="1.0" encoding="UTF-8" standalone="no"?>
<!-- Created with Inkscape (http://www.inkscape.org/) -->

<svg
   width="1000"
   height="1000"
   viewBox="0 0 264.58333 264.58334"
   version="1.1"
   id="svg5"
   inkscape:version="1.1.2 (b8e25be833, 2022-02-05)"
   sodipodi:docname="joueur_1.svg"
   inkscape:export-filename="C:\Users\Valentin\Downloads\Aire_de_jeux\Images_Jeu_2\joueur_1.png"
   inkscape:export-xdpi="96"
   inkscape:export-ydpi="96"
   xmlns:inkscape="http://www.inkscape.org/namespaces/inkscape"
   xmlns:sodipodi="http://sodipodi.sourceforge.net/DTD/sodipodi-0.dtd"
   xmlns="http://www.w3.org/2000/svg"
   xmlns:svg="http://www.w3.org/2000/svg">
  <sodipodi:namedview
     id="namedview7"
     pagecolor="#ffffff"
     bordercolor="#999999"
     borderopacity="1"
     inkscape:pageshadow="0"
     inkscape:pageopacity="0"
     inkscape:pagecheckerboard="0"
     inkscape:document-units="mm"
     showgrid="false"
     inkscape:zoom="0.32026164"
     inkscape:cx="271.65289"
     inkscape:cy="779.05053"
     inkscape:window-width="1920"
     inkscape:window-height="1001"
     inkscape:window-x="-9"
     inkscape:window-y="-9"
     inkscape:window-maximized="1"
     inkscape:current-layer="g15"
     units="px" />
  <defs
     id="defs2">
    <clipPath
       clipPathUnits="userSpaceOnUse"
       id="clipPath23">
      <path
         d="M 0,500 H 500 V 0 H 0 Z"
         id="path21" />
    </clipPath>
    <clipPath
       clipPathUnits="userSpaceOnUse"
       id="clipPath863">
      <path
         d="m 94.1807,91.5674 h 5.8923 V 81.4932 h -5.8923 z"
         id="path861" />
    </clipPath>
    <clipPath
       clipPathUnits="userSpaceOnUse"
       id="clipPath999">
      <path
         d="M 0,500 H 500 V 0 H 0 Z"
         id="path997" />
    </clipPath>
  </defs>
  <g
     inkscape:label="Calque 1"
     inkscape:groupmode="layer"
     id="layer1">
    <g
       id="g15"
       inkscape:label="2284118"
       transform="matrix(0.35277777,0,0,-0.35277777,7.2761736,211.8283)">
      <g
         id="g17"
         transform="matrix(4.961052,0,0,4.961052,-139.69393,-1815.9941)">
        <g
           id="g19"
           clip-path="url(#clipPath23)">
          <g
             id="g25"
             transform="translate(53.198235,296.67177)">
            <path
               d="m 0,0 c 0,3.541 22.666,6.411 50.625,6.411 27.96,0 50.626,-2.87 50.626,-6.411 0,-3.54 -22.666,-6.41 -50.626,-6.41 C 22.666,-6.41 0,-3.54 0,0"
               style="fill:#bdd5db;fill-opacity:1;fill-rule:nonzero;stroke:none"
               id="path27" />
          </g>
          <g
             id="g29"
             transform="translate(94.000535,384.75137)">
            <path
               d="m 0,0 c -2.894,1.26 -7.893,-0.395 -16.976,-10.578 -2.618,-2.935 -5.181,-5.919 -7.684,-8.953 -1.87,-2.266 -3.708,-4.559 -5.5,-6.886 -0.658,-0.855 -1.282,-1.772 -2.109,-2.479 -0.931,-0.797 -2.148,-1.104 -3.305,-1.415 -0.725,-0.194 -1.627,-0.316 -2.178,-0.877 -0.573,-0.584 -0.291,-1.452 0.434,-1.739 0.78,-0.308 1.746,-0.104 2.566,-0.167 0.138,-0.01 0.273,-0.056 0.358,-0.165 0.129,-0.166 -0.005,-0.414 -0.09,-0.54 -0.549,-0.812 -0.892,-1.222 -1.22,-1.697 -0.534,-0.774 -2.064,-2.461 -1.393,-3.475 0.264,-0.398 0.972,-0.534 1.328,-0.362 0.575,0.279 1.09,0.664 1.564,1.089 0.239,0.214 0.468,0.439 0.693,0.668 0.182,0.185 0.431,0.524 0.729,0.49 0.252,-0.03 0.246,-0.344 0.207,-0.526 -0.045,-0.211 -0.148,-0.406 -0.252,-0.593 -0.393,-0.71 -0.851,-1.41 -1.146,-2.165 -0.144,-0.367 -0.275,-0.744 -0.309,-1.136 -0.027,-0.306 0.02,-0.642 0.237,-0.86 0.157,-0.156 0.384,-0.228 0.606,-0.244 0.496,-0.036 0.984,0.179 1.374,0.488 0.486,0.388 0.874,0.878 1.254,1.367 0.396,0.51 0.791,1.024 1.206,1.518 0.089,0.106 0.195,0.219 0.333,0.227 0.149,0.009 0.28,-0.118 0.324,-0.261 0.044,-0.143 0.02,-0.298 -0.013,-0.444 -0.088,-0.392 -0.265,-0.719 -0.414,-1.087 -0.154,-0.382 -0.288,-0.771 -0.401,-1.167 -0.123,-0.428 -0.232,-0.9 -0.062,-1.313 0.31,-0.759 1.201,-0.905 1.871,-0.413 0.661,0.487 2.105,3.275 2.34,3.705 1.444,2.65 3.313,5.031 5.066,7.488 2.765,3.876 9.23,11.541 11.752,13.777 z"
               style="fill:#ffc8ac;fill-opacity:1;fill-rule:nonzero;stroke:none"
               id="path31" />
          </g>
          <g
             id="g33"
             transform="translate(140.14504,416.68057)">
            <path
               d="m 0,0 c 2.674,-2.858 14.385,-24.528 -0.092,-36.7 -14.477,-12.172 -60.398,-13.186 -79.209,0 -18.811,13.186 -5.809,35.04 -5.809,35.04 -15.215,5.072 -14.662,28.124 2.673,47.857 17.336,19.734 49.149,18.904 61.057,12.541 11.909,-6.363 10.499,-15.485 10.499,-15.485 0,0 5.809,1.192 11.066,-4.985 C 5.44,32.089 3.228,20.232 3.228,20.232 Z"
               style="fill:#002030;fill-opacity:1;fill-rule:nonzero;stroke:none"
               id="path35" />
          </g>
          <g
             id="g37"
             transform="translate(122.63384,366.02677)">
            <path
               d="m 0,0 c -3.988,13.05 -8.881,16.222 -9.244,20.572 -0.339,4.064 -0.434,8.61 -0.434,8.61 h -18.088 c 0,0 -0.095,-4.546 -0.434,-8.61 -0.362,-4.35 -5.256,-7.522 -9.243,-20.572 -4.599,-15.051 -5.935,-31.356 -5.935,-31.356 0,0 9.62,-3.206 24.656,-3.206 15.036,0 24.656,3.206 24.656,3.206 0,0 -1.335,16.305 -5.934,31.356"
               style="fill:#ffc8ac;fill-opacity:1;fill-rule:nonzero;stroke:none"
               id="path39" />
          </g>
          <g
             id="g41"
             transform="translate(113.01324,395.20837)">
            <path
               d="m 0,0 h -18.145 c 0,0 -0.078,-3.674 -0.339,-7.369 1.857,-0.105 3.697,-0.145 5.482,-0.145 4.266,0 10.126,1.47 13.108,3.103 C -0.057,-1.072 0,0 0,0"
               style="fill:#f49282;fill-opacity:1;fill-rule:nonzero;stroke:none"
               id="path43" />
          </g>
          <g
             id="g45"
             transform="translate(79.255935,334.67037)">
            <path
               d="m 0,0 2.6,-31.106 c 0,0 -4.796,-1.415 -7.256,-2.831 -2.459,-1.415 -1.858,-3.145 9.084,-3.145 H 20.335 L 23.691,0 Z"
               style="fill:#ffc8ac;fill-opacity:1;fill-rule:nonzero;stroke:none"
               id="path47" />
          </g>
          <g
             id="g49"
             transform="translate(128.63384,334.67037)">
            <path
               d="m 0,0 -2.599,-31.106 c 0,0 4.795,-1.415 7.255,-2.831 2.459,-1.415 1.858,-3.145 -9.084,-3.145 H -20.334 L -23.691,0 Z"
               style="fill:#ffc8ac;fill-opacity:1;fill-rule:nonzero;stroke:none"
               id="path51" />
          </g>
          <g
             id="g53"
             transform="translate(102.72514,332.21967)">
            <path
               d="m 0,0 h -23.264 l 1.133,-13.568 c 4.522,-1.253 11.136,-2.328 20.677,-2.497 z"
               style="fill:#f49282;fill-opacity:1;fill-rule:nonzero;stroke:none"
               id="path55" />
          </g>
          <g
             id="g57"
             transform="translate(105.16464,332.21967)">
            <path
               d="m 0,0 1.454,-16.064 c 9.554,0.174 16.166,1.257 20.678,2.516 L 23.265,0 Z"
               style="fill:#f49282;fill-opacity:1;fill-rule:nonzero;stroke:none"
               id="path59" />
          </g>
          <g
             id="g61"
             transform="translate(108.29934,297.58877)">
            <path
               d="M 0,0 H 15.906 C 26.849,0 27.45,1.73 24.99,3.145 22.531,4.56 17.735,5.976 17.735,5.976 H -0.541 Z"
               style="fill:#002030;fill-opacity:1;fill-rule:nonzero;stroke:none"
               id="path63" />
          </g>
          <g
             id="g65"
             transform="translate(81.855535,303.56437)">
            <path
               d="m 0,0 c 0,0 -4.796,-1.416 -7.255,-2.831 -2.46,-1.415 -1.859,-3.145 9.084,-3.145 H 17.735 L 18.276,0 Z"
               style="fill:#002030;fill-opacity:1;fill-rule:nonzero;stroke:none"
               id="path67" />
          </g>
          <g
             id="g69"
             transform="translate(94.003435,384.74307)">
            <path
               d="m 0,0 c -1.723,1.948 -5.985,2.608 -12.674,-4.153 -6.689,-6.761 -8.716,-8.983 -8.716,-8.983 0,0 1.987,-8.407 11.573,-11.394 z"
               style="fill:#f18856;fill-opacity:1;fill-rule:nonzero;stroke:none"
               id="path71" />
          </g>
          <g
             id="g73"
             transform="translate(113.82374,384.75137)">
            <path
               d="m 0,0 c 2.894,1.26 7.893,-0.395 16.976,-10.578 2.618,-2.935 5.18,-5.919 7.684,-8.953 1.869,-2.266 3.707,-4.559 5.5,-6.886 0.658,-0.855 1.282,-1.772 2.109,-2.479 0.931,-0.797 2.148,-1.104 3.305,-1.415 0.725,-0.194 1.627,-0.316 2.177,-0.877 0.573,-0.584 0.292,-1.452 -0.434,-1.739 -0.779,-0.308 -1.745,-0.104 -2.566,-0.167 -0.137,-0.01 -0.273,-0.056 -0.357,-0.165 -0.13,-0.166 0.005,-0.414 0.09,-0.54 0.549,-0.812 0.892,-1.222 1.22,-1.697 0.534,-0.774 2.063,-2.461 1.392,-3.475 -0.263,-0.398 -0.971,-0.534 -1.327,-0.362 -0.575,0.279 -1.09,0.664 -1.564,1.089 -0.239,0.214 -0.468,0.439 -0.693,0.668 -0.182,0.185 -0.431,0.524 -0.73,0.49 -0.252,-0.03 -0.246,-0.344 -0.207,-0.526 0.046,-0.211 0.149,-0.406 0.252,-0.593 0.394,-0.71 0.851,-1.41 1.147,-2.165 0.143,-0.367 0.275,-0.744 0.309,-1.136 0.026,-0.306 -0.02,-0.642 -0.238,-0.86 -0.157,-0.156 -0.383,-0.228 -0.605,-0.244 -0.496,-0.036 -0.984,0.179 -1.374,0.488 -0.486,0.388 -0.875,0.878 -1.254,1.367 -0.396,0.51 -0.791,1.024 -1.207,1.518 -0.088,0.106 -0.194,0.219 -0.333,0.227 -0.149,0.009 -0.28,-0.118 -0.324,-0.261 -0.043,-0.143 -0.019,-0.298 0.013,-0.444 0.088,-0.392 0.266,-0.719 0.414,-1.087 0.154,-0.382 0.289,-0.771 0.402,-1.167 0.123,-0.428 0.231,-0.9 0.062,-1.313 -0.311,-0.759 -1.201,-0.905 -1.871,-0.413 -0.661,0.487 -2.106,3.275 -2.34,3.705 -1.444,2.65 -2.968,5.292 -4.722,7.748 -4.675,6.545 -9.574,11.281 -12.096,13.517 z"
               style="fill:#ffc8ac;fill-opacity:1;fill-rule:nonzero;stroke:none"
               id="path75" />
          </g>
          <g
             id="g77"
             transform="translate(113.82084,384.74307)">
            <path
               d="m 0,0 c 1.723,1.948 5.985,2.608 12.674,-4.153 6.689,-6.761 8.715,-8.983 8.715,-8.983 0,0 -1.986,-8.407 -11.573,-11.394 z"
               style="fill:#f18856;fill-opacity:1;fill-rule:nonzero;stroke:none"
               id="path79" />
          </g>
          <g
             id="g81"
             transform="translate(100.01124,393.17467)">
            <path
               d="M 0,0 C 9.635,0 20.877,1.147 27.759,7.571 34.642,13.994 35.33,30.512 31.2,46.8 27.071,63.089 11.241,66.759 0,66.759 -11.241,66.759 -27.071,63.089 -31.2,46.8 -35.33,30.512 -34.641,13.994 -27.759,7.571 -20.876,1.147 -9.635,0 0,0"
               style="fill:#ffc8ac;fill-opacity:1;fill-rule:nonzero;stroke:none"
               id="path83" />
          </g>
          <g
             id="g85"
             transform="translate(123.53374,452.87637)">
            <path
               d="M 0,0 5.753,7.269 C 5.757,7.31 5.761,7.358 5.764,7.411 L 5.76,8.653 c -0.181,2.894 -1.667,9.155 -10.529,13.889 -11.908,6.363 -43.72,7.193 -61.056,-12.541 -17.336,-19.732 -17.889,-42.785 -2.674,-47.856 24.098,2.252 6.253,35.118 38.969,42.145 C -14.911,7.43 -5.427,3.269 0,0"
               style="fill:#002030;fill-opacity:1;fill-rule:nonzero;stroke:none"
               id="path87" />
          </g>
          <g
             id="g89"
             transform="translate(67.678735,410.84367)">
            <path
               d="m 0,0 c 0,3.822 3.099,6.921 6.921,6.921 3.823,0 6.922,-3.099 6.922,-6.921 0,-3.822 -3.099,-6.921 -6.922,-6.921 C 3.099,-6.921 0,-3.822 0,0"
               style="fill:#fca39a;fill-opacity:1;fill-rule:nonzero;stroke:none"
               id="path91" />
          </g>
          <g
             id="g93"
             transform="translate(116.95704,410.84367)">
            <path
               d="m 0,0 c 0,3.822 3.099,6.921 6.921,6.921 3.823,0 6.921,-3.099 6.921,-6.921 0,-3.822 -3.098,-6.921 -6.921,-6.921 C 3.099,-6.921 0,-3.822 0,0"
               style="fill:#fca39a;fill-opacity:1;fill-rule:nonzero;stroke:none"
               id="path95" />
          </g>
          <g
             id="g97"
             transform="translate(98.355035,414.54287)">
            <path
               d="m 0,0 c -2.517,0.085 -4.791,-1.512 -4.776,-2.26 0.034,-1.749 8.953,-2.106 8.857,0 C 4.028,-1.084 2.16,-0.073 0,0"
               style="fill:#fca39a;fill-opacity:1;fill-rule:nonzero;stroke:none"
               id="path99" />
          </g>
          <g
             id="g101"
             transform="translate(93.351135,411.81237)">
            <path
               d="M 0,0 C 1.582,1.185 2.731,2.364 4.888,2.372 6.873,2.379 7.93,1.312 9.015,-0.165 9.202,-0.418 9.682,-0.429 9.633,-0.03 9.085,4.443 1.061,4.026 -0.092,0.129 -0.107,0.079 -0.076,-0.057 0,0"
               style="fill:#9e5147;fill-opacity:1;fill-rule:nonzero;stroke:none"
               id="path103" />
          </g>
          <g
             id="g105"
             transform="translate(90.988835,404.18547)">
            <path
               d="M 0,0 C 5.796,-3.442 15.386,-1.957 19.896,2.947 20.379,3.471 19.334,3.974 18.908,3.508 14.37,-1.442 5.954,-1.921 0.071,0.472 -0.255,0.605 -0.206,0.122 0,0"
               style="fill:#9e5147;fill-opacity:1;fill-rule:nonzero;stroke:none"
               id="path107" />
          </g>
          <g
             id="g109"
             transform="translate(109.82184,409.36757)">
            <path
               d="m 0,0 c -0.563,-0.576 0.015,-1.611 0.478,-2.042 0.531,-0.496 1.459,-0.963 2.2,-0.706 0.252,0.088 0.524,0.394 0.247,0.639 C 2.706,-1.916 2.174,-2.084 1.89,-2.025 0.854,-1.808 0.551,-0.948 0.229,-0.07 0.19,0.034 0.081,0.082 0,0"
               style="fill:#9e5147;fill-opacity:1;fill-rule:nonzero;stroke:none"
               id="path111" />
          </g>
          <g
             id="g113"
             transform="translate(116.61234,434.00387)">
            <path
               d="m 0,0 c -3.328,0.011 -8.228,-1.991 -9.644,-6.774 -1.722,-5.819 1.849,-11.47 9.644,-11.194 8.364,0.296 11.323,5.265 10.427,9.879 C 9.467,-3.148 5.835,-0.018 0,0"
               style="fill:#ffffff;fill-opacity:1;fill-rule:nonzero;stroke:none"
               id="path115" />
          </g>
          <g
             id="g117"
             transform="translate(106.83454,426.20447)">
            <path
               d="m 0,0 c 1.555,4.692 6.913,7.591 11.686,6.629 1.932,-0.389 4.013,-1.453 5.292,-2.976 1.43,-1.701 1.632,-3.912 2.975,-5.609 0.212,-0.269 0.768,-0.431 0.963,-0.049 1.248,2.438 -0.7,5.614 -2.44,7.372 C 16.662,7.2 13.944,8.425 11.396,8.72 8.795,9.021 5.91,8.442 3.69,7.026 1.018,5.322 0.253,3.098 -0.214,0.078 -0.24,-0.092 -0.065,-0.196 0,0"
               style="fill:#002030;fill-opacity:1;fill-rule:nonzero;stroke:none"
               id="path119" />
          </g>
          <g
             id="g121"
             transform="translate(107.53424,423.53217)">
            <path
               d="m 0,0 c 0,4.145 3.36,7.505 7.505,7.505 4.145,0 7.506,-3.36 7.506,-7.505 0,-4.145 -3.361,-7.505 -7.506,-7.505 C 3.36,-7.505 0,-4.145 0,0"
               style="fill:#19313a;fill-opacity:1;fill-rule:nonzero;stroke:none"
               id="path123" />
          </g>
          <g
             id="g125"
             transform="translate(109.02544,424.21377)">
            <path
               d="M 0,0 C 0,1.325 1.074,2.399 2.399,2.399 3.724,2.399 4.798,1.325 4.798,0 4.798,-1.325 3.724,-2.399 2.399,-2.399 1.074,-2.399 0,-1.325 0,0"
               style="fill:#ffffff;fill-opacity:1;fill-rule:nonzero;stroke:none"
               id="path127" />
          </g>
          <g
             id="g129"
             transform="translate(82.111335,434.00387)">
            <path
               d="M 0,0 C 3.328,0.011 8.228,-1.991 9.644,-6.774 11.366,-12.593 7.795,-18.244 0,-17.968 c -8.364,0.296 -11.323,5.265 -10.427,9.879 C -9.467,-3.148 -5.836,-0.018 0,0"
               style="fill:#ffffff;fill-opacity:1;fill-rule:nonzero;stroke:none"
               id="path131" />
          </g>
          <g
             id="g133"
             transform="translate(92.100635,426.34167)">
            <path
               d="m 0,0 c -0.503,3.125 -1.787,5.566 -4.626,7.196 -2.639,1.514 -5.991,1.855 -8.891,0.991 -2.049,-0.61 -4.146,-1.756 -5.557,-3.389 -1.425,-1.649 -3.389,-4.627 -1.992,-6.738 0.227,-0.343 0.788,-0.656 1.077,-0.203 0.903,1.417 1.125,3.1 2.012,4.542 0.989,1.606 2.372,2.665 4.085,3.43 C -8.634,8.177 -2.005,5.454 -0.22,-0.15 -0.146,-0.38 0.024,-0.151 0,0"
               style="fill:#002030;fill-opacity:1;fill-rule:nonzero;stroke:none"
               id="path135" />
          </g>
          <g
             id="g137"
             transform="translate(91.189535,423.53217)">
            <path
               d="m 0,0 c 0,4.145 -3.36,7.505 -7.505,7.505 -4.145,0 -7.506,-3.36 -7.506,-7.505 0,-4.145 3.361,-7.505 7.506,-7.505 C -3.36,-7.505 0,-4.145 0,0"
               style="fill:#19313a;fill-opacity:1;fill-rule:nonzero;stroke:none"
               id="path139" />
          </g>
          <g
             id="g141"
             transform="translate(82.331135,424.21377)">
            <path
               d="m 0,0 c 0,1.325 -1.074,2.399 -2.399,2.399 -1.325,0 -2.399,-1.074 -2.399,-2.399 0,-1.325 1.074,-2.399 2.399,-2.399 C -1.074,-2.399 0,-1.325 0,0"
               style="fill:#ffffff;fill-opacity:1;fill-rule:nonzero;stroke:none"
               id="path143" />
          </g>
          <g
             id="g145"
             transform="translate(123.53374,440.76357)">
            <path
               d="m 0,0 c 0.055,0.16 0.086,0.318 0.051,0.483 -0.184,0.841 -0.654,1.461 -1.225,2.09 -0.77,0.847 -1.725,1.525 -2.72,2.082 -1.937,1.087 -4.18,1.637 -6.401,1.518 -0.419,-0.023 -0.849,-0.071 -1.219,-0.27 -0.479,-0.258 -0.81,-0.77 -0.851,-1.313 -0.074,-1.003 0.731,-1.47 1.614,-1.604 L -8.747,2.683 C -8.258,2.608 -7.768,2.534 -7.283,2.437 -5.659,2.108 -4.09,1.511 -2.659,0.676 -2.067,0.331 -1.481,-0.062 -0.811,-0.203 -0.575,-0.253 -0.114,-0.3 0,0"
               style="fill:#002030;fill-opacity:1;fill-rule:nonzero;stroke:none"
               id="path147" />
          </g>
          <g
             id="g149"
             transform="translate(76.988335,441.15027)">
            <path
               d="M 0,0 C -0.042,0.164 -0.062,0.325 -0.013,0.485 0.235,1.31 0.751,1.892 1.37,2.475 2.202,3.26 3.207,3.862 4.241,4.341 6.257,5.274 8.536,5.65 10.741,5.359 11.157,5.305 11.582,5.223 11.935,4.996 12.393,4.702 12.684,4.166 12.682,3.622 12.679,2.616 11.84,2.212 10.95,2.147 10.276,2.098 9.602,2.048 8.928,2 8.435,1.963 7.94,1.927 7.45,1.867 5.805,1.665 4.194,1.191 2.703,0.469 2.086,0.17 1.473,-0.176 0.793,-0.265 0.554,-0.296 0.09,-0.308 0,0"
               style="fill:#002030;fill-opacity:1;fill-rule:nonzero;stroke:none"
               id="path151" />
          </g>
          <g
             id="g153"
             transform="translate(130.24954,471.41057)">
            <path
               d="m 0,0 c 1.444,-1.206 1.62,-4.406 1.433,-6.042 -0.195,-1.705 -0.914,-2.56 -2.001,-3.853 -0.547,-0.65 -0.613,-0.561 -0.885,-1.334 -0.117,-0.336 0.387,-0.579 0.647,-0.491 3.05,1.037 3.934,5.153 3.382,7.932 C 2.303,-2.414 1.66,-0.043 0.065,0.327 -0.098,0.365 -0.082,0.068 0,0"
               style="fill:#002030;fill-opacity:1;fill-rule:nonzero;stroke:none"
               id="path155" />
          </g>
          <g
             id="g157"
             transform="translate(137.82674,461.34997)">
            <path
               d="m 0,0 c -0.905,2.706 -6.792,1.354 -8.092,-0.164 -0.2,-0.234 -0.545,-0.696 -0.436,-1.027 0.363,-1.108 2.431,0.339 2.825,0.49 1.34,0.514 4.192,1.254 5.564,0.507 C -0.021,-0.258 0.03,-0.089 0,0"
               style="fill:#002030;fill-opacity:1;fill-rule:nonzero;stroke:none"
               id="path159" />
          </g>
          <g
             id="g161"
             transform="translate(133.05764,430.56487)">
            <path
               d="M 0,0 C 1.111,3.536 5.978,8.511 11.602,6.348 17.225,4.185 18.523,-4.251 15.386,-10.523 12.25,-16.796 3.693,-19.093 0.51,-14.538 Z"
               style="fill:#ffc8ac;fill-opacity:1;fill-rule:nonzero;stroke:none"
               id="path163" />
          </g>
          <g
             id="g165"
             transform="translate(132.73974,426.14297)">
            <path
               d="M 0,0 C -0.069,-0.209 0.215,-0.657 0.462,-0.495 1.523,0.202 2.279,1.217 3.387,1.843 4.585,2.521 5.907,2.716 7.239,2.573 7.86,1.714 8.416,1.053 8.285,-0.265 8.171,-1.408 7.685,-2.671 6.893,-3.515 6.271,-4.177 5.333,-4.371 4.57,-4.821 4.512,-4.856 4.452,-5.04 4.549,-5.063 c 3.616,-0.883 6.041,4.147 4.928,7.062 2.039,-0.861 3.728,-2.57 3.619,-4.958 -0.005,-0.113 0.113,-0.088 0.146,-0.006 C 16.215,4.524 2.348,7.162 0,0"
               style="fill:#9e5147;fill-opacity:1;fill-rule:nonzero;stroke:none"
               id="path167" />
          </g>
          <g
             id="g169"
             transform="translate(140.41604,437.28747)">
            <path
               d="m 0,0 c -1.291,-9.313 -7.463,-14.429 -8.486,-12.678 -1.023,1.751 0.497,9.832 0,12.303 L 0,0"
               style="fill:#002030;fill-opacity:1;fill-rule:nonzero;stroke:none"
               id="path171" />
          </g>
          <g
             id="g173"
             transform="translate(79.255935,334.67037)">
            <path
               d="m 0,0 -7.714,-9.184 c 0,0 5.532,-6.906 32.37,-6.906 26.838,0 32.37,6.906 32.37,6.906 L 49.312,0 Z"
               style="fill:#e73555;fill-opacity:1;fill-rule:nonzero;stroke:none"
               id="path175" />
          </g>
          <g
             id="g177"
             transform="translate(122.63384,366.02677)">
            <path
               d="m 0,0 c -3.409,11.154 -7.477,15.092 -8.813,18.717 -0.032,-0.085 -1.651,-4.234 -9.909,-4.234 -8.251,0 -9.874,4.143 -9.908,4.233 -1.338,-3.625 -5.405,-7.562 -8.813,-18.716 -4.599,-15.051 -5.935,-31.356 -5.935,-31.356 0,0 9.62,-3.206 24.656,-3.206 15.036,0 24.656,3.206 24.656,3.206 0,0 -1.335,16.305 -5.934,31.356"
               style="fill:#f8b272;fill-opacity:1;fill-rule:nonzero;stroke:none"
               id="path179" />
          </g>
          <g
             id="g181"
             transform="translate(94.434135,386.59857)">
            <path
               d="m 0,0 c 0,0 -4.902,-1.408 -4.58,-5.075 0.322,-3.667 7.565,-7.2 14.058,-1.013 z"
               style="fill:#ffe568;fill-opacity:1;fill-rule:nonzero;stroke:none"
               id="path183" />
          </g>
          <g
             id="g185"
             transform="translate(113.38974,386.59857)">
            <path
               d="m 0,0 c 0,0 4.902,-1.408 4.58,-5.075 -0.322,-3.667 -7.565,-7.2 -14.058,-1.013 z"
               style="fill:#ffe568;fill-opacity:1;fill-rule:nonzero;stroke:none"
               id="path187" />
          </g>
        </g>
      </g>
    </g>
  </g>
</svg>
