<?xml version="1.0" encoding="UTF-8" standalone="no"?>
<!-- Created with Inkscape (http://www.inkscape.org/) -->

<svg
   width="200mm"
   height="140mm"
   viewBox="0 0 200 140"
   version="1.1"
   id="svg5"
   inkscape:version="1.1.2 (b8e25be833, 2022-02-05)"
   sodipodi:docname="pierre_c1.svg"
   inkscape:export-filename="C:\Users\Valentin\Downloads\Aire_de_jeux\Images_Jeu_2\pierre_c1.png"
   inkscape:export-xdpi="127"
   inkscape:export-ydpi="127"
   xmlns:inkscape="http://www.inkscape.org/namespaces/inkscape"
   xmlns:sodipodi="http://sodipodi.sourceforge.net/DTD/sodipodi-0.dtd"
   xmlns="http://www.w3.org/2000/svg"
   xmlns:svg="http://www.w3.org/2000/svg">
  <sodipodi:namedview
     id="namedview7"
     pagecolor="#ffffff"
     bordercolor="#999999"
     borderopacity="1"
     inkscape:pageshadow="0"
     inkscape:pageopacity="0"
     inkscape:pagecheckerboard="0"
     inkscape:document-units="mm"
     showgrid="false"
     inkscape:zoom="0.64052329"
     inkscape:cx="249.79576"
     inkscape:cy="383.28036"
     inkscape:window-width="1920"
     inkscape:window-height="1001"
     inkscape:window-x="-9"
     inkscape:window-y="-9"
     inkscape:window-maximized="1"
     inkscape:current-layer="g3569"
     width="200mm"
     height="10000000mm" />
  <defs
     id="defs2">
    <clipPath
       clipPathUnits="userSpaceOnUse"
       id="clipPath25">
      <path
         d="M 0,500 H 500 V 0 H 0 Z"
         id="path23" />
    </clipPath>
    <clipPath
       clipPathUnits="userSpaceOnUse"
       id="clipPath37">
      <path
         d="m 214.322,288.677 h 56.156 v -57.221 h -56.156 z"
         id="path35" />
    </clipPath>
    <clipPath
       clipPathUnits="userSpaceOnUse"
       id="clipPath53">
      <path
         d="m 259.457,295.666 h 10.628 v -28.482 h -10.628 z"
         id="path51" />
    </clipPath>
    <clipPath
       clipPathUnits="userSpaceOnUse"
       id="clipPath85">
      <path
         d="m 248.19,294.12 h 5.759 v -32.394 h -5.759 z"
         id="path83" />
    </clipPath>
    <clipPath
       clipPathUnits="userSpaceOnUse"
       id="clipPath101">
      <path
         d="m 234.646,290.781 h 6.406 v -29.694 h -6.406 z"
         id="path99" />
    </clipPath>
    <clipPath
       clipPathUnits="userSpaceOnUse"
       id="clipPath117">
      <path
         d="m 222.812,286.709 h 5.12 v -26.513 h -5.12 z"
         id="path115" />
    </clipPath>
    <clipPath
       clipPathUnits="userSpaceOnUse"
       id="clipPath133">
      <path
         d="m 239.919,277.104 h 29.512 v -17.549 h -29.512 z"
         id="path131" />
    </clipPath>
    <clipPath
       clipPathUnits="userSpaceOnUse"
       id="clipPath157">
      <path
         d="m 355.809,412.725 h 56.155 v -57.22 h -56.155 z"
         id="path155" />
    </clipPath>
    <clipPath
       clipPathUnits="userSpaceOnUse"
       id="clipPath185">
      <path
         d="m 381.387,400.55 h 29.752 v -16.947 h -29.752 z"
         id="path183" />
    </clipPath>
    <clipPath
       clipPathUnits="userSpaceOnUse"
       id="clipPath201">
      <path
         d="m 376.081,414.844 h 6.455 v -30.14 h -6.455 z"
         id="path199" />
    </clipPath>
    <clipPath
       clipPathUnits="userSpaceOnUse"
       id="clipPath217">
      <path
         d="m 363.471,410.844 h 5.946 v -26.865 h -5.946 z"
         id="path215" />
    </clipPath>
    <clipPath
       clipPathUnits="userSpaceOnUse"
       id="clipPath233">
      <path
         d="m 391.599,416.804 h 3.835 V 385.53 h -3.835 z"
         id="path231" />
    </clipPath>
    <clipPath
       clipPathUnits="userSpaceOnUse"
       id="clipPath261">
      <path
         d="M 72.8359,414.973 H 128.992 V 355.505 H 72.8359 Z"
         id="path259" />
    </clipPath>
    <clipPath
       clipPathUnits="userSpaceOnUse"
       id="clipPath285">
      <path
         d="m 81.5785,410.714 h 4.8618 v -26.412 h -4.8618 z"
         id="path283" />
    </clipPath>
    <clipPath
       clipPathUnits="userSpaceOnUse"
       id="clipPath309">
      <path
         d="M 62.4962,265.417 H 104.421 V 209.254 H 62.4962 Z"
         id="path307" />
    </clipPath>
    <clipPath
       clipPathUnits="userSpaceOnUse"
       id="clipPath341">
      <path
         d="m 64.2153,248.656 h 31.0941 v -5.062 H 64.2153 Z"
         id="path339" />
    </clipPath>
    <clipPath
       clipPathUnits="userSpaceOnUse"
       id="clipPath357">
      <path
         d="M 67.5042,235.982 H 98.4619 V 229.72 H 67.5042 Z"
         id="path355" />
    </clipPath>
    <clipPath
       clipPathUnits="userSpaceOnUse"
       id="clipPath373">
      <path
         d="m 71.5759,222.869 h 27.1589 v -5.472 H 71.5759 Z"
         id="path371" />
    </clipPath>
    <clipPath
       clipPathUnits="userSpaceOnUse"
       id="clipPath389">
      <path
         d="M 82.7691,264.397 H 114.059 V 239.462 H 82.7691 Z"
         id="path387" />
    </clipPath>
    <clipPath
       clipPathUnits="userSpaceOnUse"
       id="clipPath413">
      <path
         d="m 229.696,399.928 h 32.605 v -46.325 h -32.605 z"
         id="path411" />
    </clipPath>
    <clipPath
       clipPathUnits="userSpaceOnUse"
       id="clipPath433">
      <path
         d="m 207.462,416.517 h 51.913 v -13.752 h -51.913 z"
         id="path431" />
    </clipPath>
    <clipPath
       clipPathUnits="userSpaceOnUse"
       id="clipPath453">
      <path
         d="m 361.152,295.666 h 47.265 v -41.781 h -47.265 z"
         id="path451" />
    </clipPath>
    <clipPath
       clipPathUnits="userSpaceOnUse"
       id="clipPath481">
      <path
         d="m 371.93,290.63 h 5.889 v -30.261 h -5.889 z"
         id="path479" />
    </clipPath>
    <clipPath
       clipPathUnits="userSpaceOnUse"
       id="clipPath497">
      <path
         d="m 385.323,294.012 h 5.386 v -28.983 h -5.386 z"
         id="path495" />
    </clipPath>
    <clipPath
       clipPathUnits="userSpaceOnUse"
       id="clipPath513">
      <path
         d="m 375.867,276.181 h 32.548 v -36.056 h -32.548 z"
         id="path511" />
    </clipPath>
    <clipPath
       clipPathUnits="userSpaceOnUse"
       id="clipPath537">
      <path
         d="m 235.421,121.958 h 33.055 V 75.7191 h -33.055 z"
         id="path535" />
    </clipPath>
    <clipPath
       clipPathUnits="userSpaceOnUse"
       id="clipPath557">
      <path
         d="m 213.851,131.888 h 51.819 v -7.689 h -51.819 z"
         id="path555" />
    </clipPath>
    <clipPath
       clipPathUnits="userSpaceOnUse"
       id="clipPath573">
      <path
         d="m 272.909,129.254 h 13.5 v -5.617 h -13.5 z"
         id="path571" />
    </clipPath>
    <clipPath
       clipPathUnits="userSpaceOnUse"
       id="clipPath593">
      <path
         d="M 61.7623,138.202 H 117.918 V 100.549 H 61.7623 Z"
         id="path591" />
    </clipPath>
    <clipPath
       clipPathUnits="userSpaceOnUse"
       id="clipPath621">
      <path
         d="M 85.9671,122.31 H 117.918 V 86.2766 H 85.9671 Z"
         id="path619" />
    </clipPath>
    <clipPath
       clipPathUnits="userSpaceOnUse"
       id="clipPath641">
      <path
         d="m 82.5654,136.823 h 5.9245 v -30.232 h -5.9245 z"
         id="path639" />
    </clipPath>
    <clipPath
       clipPathUnits="userSpaceOnUse"
       id="clipPath657">
      <path
         d="m 70.1565,132.873 h 5.2137 v -26.886 h -5.2137 z"
         id="path655" />
    </clipPath>
    <clipPath
       clipPathUnits="userSpaceOnUse"
       id="clipPath677">
      <path
         d="m 369.423,135.605 h 32.135 V 82.7598 h -32.135 z"
         id="path675" />
    </clipPath>
    <clipPath
       clipPathUnits="userSpaceOnUse"
       id="clipPath693">
      <path
         d="m 394.988,138.755 h 4.876 v -30.127 h -4.876 z"
         id="path691" />
    </clipPath>
    <clipPath
       clipPathUnits="userSpaceOnUse"
       id="clipPath717">
      <path
         d="m 384.331,123.254 h 32.063 V 105.64 h -32.063 z"
         id="path715" />
    </clipPath>
    <clipPath
       clipPathUnits="userSpaceOnUse"
       id="clipPath733">
      <path
         d="m 380.072,136.737 h 5.573 V 106.72 h -5.573 z"
         id="path731" />
    </clipPath>
    <clipPath
       clipPathUnits="userSpaceOnUse"
       id="clipPath753">
      <path
         d="M 0,500 H 500 V 0 H 0 Z"
         id="path751" />
    </clipPath>
    <clipPath
       clipPathUnits="userSpaceOnUse"
       id="clipPath261-7">
      <path
         d="M 72.8359,414.973 H 128.992 V 355.505 H 72.8359 Z"
         id="path259-6" />
    </clipPath>
    <clipPath
       clipPathUnits="userSpaceOnUse"
       id="clipPath285-2">
      <path
         d="m 81.5785,410.714 h 4.8618 v -26.412 h -4.8618 z"
         id="path283-8" />
    </clipPath>
    <clipPath
       clipPathUnits="userSpaceOnUse"
       id="clipPath413-0">
      <path
         d="m 229.696,399.928 h 32.605 v -46.325 h -32.605 z"
         id="path411-5" />
    </clipPath>
    <clipPath
       clipPathUnits="userSpaceOnUse"
       id="clipPath433-2">
      <path
         d="m 207.462,416.517 h 51.913 v -13.752 h -51.913 z"
         id="path431-3" />
    </clipPath>
    <clipPath
       clipPathUnits="userSpaceOnUse"
       id="clipPath37-6">
      <path
         d="m 214.322,288.677 h 56.156 v -57.221 h -56.156 z"
         id="path35-3" />
    </clipPath>
    <clipPath
       clipPathUnits="userSpaceOnUse"
       id="clipPath53-2">
      <path
         d="m 259.457,295.666 h 10.628 v -28.482 h -10.628 z"
         id="path51-0" />
    </clipPath>
    <clipPath
       clipPathUnits="userSpaceOnUse"
       id="clipPath85-1">
      <path
         d="m 248.19,294.12 h 5.759 v -32.394 h -5.759 z"
         id="path83-7" />
    </clipPath>
    <clipPath
       clipPathUnits="userSpaceOnUse"
       id="clipPath101-3">
      <path
         d="m 234.646,290.781 h 6.406 v -29.694 h -6.406 z"
         id="path99-8" />
    </clipPath>
    <clipPath
       clipPathUnits="userSpaceOnUse"
       id="clipPath117-1">
      <path
         d="m 222.812,286.709 h 5.12 v -26.513 h -5.12 z"
         id="path115-8" />
    </clipPath>
    <clipPath
       clipPathUnits="userSpaceOnUse"
       id="clipPath133-9">
      <path
         d="m 239.919,277.104 h 29.512 v -17.549 h -29.512 z"
         id="path131-0" />
    </clipPath>
  </defs>
  <g
     inkscape:label="Calque 1"
     inkscape:groupmode="layer"
     id="layer1">
    <g
       id="g15"
       inkscape:label="268148-P5GZOV-896"
       transform="matrix(0.35277777,0,0,-0.35277777,-214.18192,201.37664)">
      <g
         id="g19">
        <g
           id="g21"
           clip-path="url(#clipPath25)">
          <g
             id="g127">
            <g
               id="g129" />
          </g>
          <g
             id="g147"
             transform="translate(411.4904,389.0993)">
            <path
               d="m 0,0 0.101,-3.497 -1.544,0.129 -12.345,-28.76 -10.154,-23.669 h -14.362 v 28.365 c 0,0 -3.878,2.32 -10.951,10.65 -2.722,3.21 -4.337,7.583 -5.264,12.1 -2.097,10.161 -0.718,21.055 -0.718,21.055 l 4.366,1.436 23.03,-0.309 -0.302,3.059 6.758,3.067 4.366,1.982 1.055,41.119 v 0.043 c 0,3.878 3.139,7.03 7.024,7.03 0.488,0 0.969,-0.05 1.429,-0.144 3.03,-0.632 5.371,-3.217 5.579,-6.419 l 1.609,-55.941 0.187,-6.535 0.064,-2.24 0.417,-1.07 0.129,-0.338 z"
               style="fill:#fab29a;fill-opacity:1;fill-rule:nonzero;stroke:none"
               id="path149" />
          </g>
          <g
             id="g151">
            <g
               id="g153" />
            <g
               id="g165">
              <g
                 clip-path="url(#clipPath157)"
                 opacity="0.5"
                 id="g163">
                <g
                   transform="translate(411.4904,389.0993)"
                   id="g161">
                  <path
                     d="m 0,0 0.101,-3.497 -1.544,0.129 -12.345,-28.76 c -6.929,-2.104 -13.328,-2.427 -15.432,2.305 -5.271,11.849 0.359,19.504 0.359,19.504 -15.518,-1.58 -22.721,2.822 -25.658,5.637 -2.097,10.161 -0.718,21.055 -0.718,21.055 l 4.366,1.436 23.03,-0.309 -0.302,3.059 6.758,3.067 -1.372,-15.389 9.45,-4.553 13.171,1.077 0.064,-2.24 0.546,-1.408 z"
                     style="fill:#cc8a79;fill-opacity:1;fill-rule:nonzero;stroke:none"
                     id="path159" />
                </g>
              </g>
            </g>
          </g>
          <g
             id="g167"
             transform="translate(395.4335,389.8534)">
            <path
               d="m 0,0 c 0,0 -0.366,-2.478 -2.571,-4.323 -0.445,-0.373 -0.969,-0.725 -1.587,-1.02 -0.811,-0.402 -1.781,-0.703 -2.937,-0.854 -3.634,-0.467 -5.249,2.219 -5.975,4.567 0.18,0.962 0.173,1.673 0.173,1.673 l -1.149,8.021 -2.277,15.935 c 0,0 4.661,5.566 12.488,2.952 0.991,-0.324 2.025,-0.783 3.117,-1.401 L -0.28,10.003 -0.237,8.416 Z"
               style="fill:#fab29a;fill-opacity:1;fill-rule:nonzero;stroke:none"
               id="path169" />
          </g>
          <g
             id="g171"
             transform="translate(367.2406,383.9792)">
            <path
               d="m 0,0 c -0.804,-0.381 -1.917,-0.646 -3.447,-0.646 -5.745,0 -5.745,3.59 -7.54,22.139 0,0 1.099,5.766 7.217,5.371 0.876,-0.05 1.86,-0.237 2.959,-0.581 L 2.176,3.059 C 2.176,3.059 2.24,1.063 0,0"
               style="fill:#fab29a;fill-opacity:1;fill-rule:nonzero;stroke:none"
               id="path173" />
          </g>
          <g
             id="g175"
             transform="translate(382.5363,389.8965)">
            <path
               d="m 0,0 c 0,0 0.036,-3.109 -1.673,-5.192 -0.69,-0.84 -1.659,-1.515 -3.031,-1.745 -4.33,-0.74 -7.095,0.488 -8.416,4.079 l -2.987,23.224 c 0,0 2.779,5.931 9.651,4.581 0.934,-0.187 1.939,-0.503 3.031,-0.991 z"
               style="fill:#fab29a;fill-opacity:1;fill-rule:nonzero;stroke:none"
               id="path177" />
          </g>
          <g
             id="g179">
            <g
               id="g181" />
            <g
               id="g193">
              <g
                 clip-path="url(#clipPath185)"
                 opacity="0.5"
                 id="g191">
                <g
                   transform="translate(411.1386,396.9052)"
                   id="g189">
                  <path
                     d="m 0,0 c 0,0 -0.919,-1.774 -2.578,-4.1 -2.047,-2.858 -5.213,-6.535 -9.185,-8.768 -1.479,0.552 -2.922,1.881 -4.165,4.38 -0.273,-0.826 -0.869,-2.118 -2.097,-3.246 -0.323,-0.301 -0.696,-0.589 -1.113,-0.84 -0.251,0.05 -0.488,0.115 -0.725,0.179 -0.811,-0.402 -1.781,-0.703 -2.937,-0.854 -3.634,-0.467 -5.249,2.219 -5.975,4.567 0.18,0.962 0.173,1.673 0.173,1.673 l -1.149,8.022 c 0.172,0.596 0.366,1.113 0.546,1.529 0.323,0.74 1.105,1.178 1.924,1.092 3.691,-0.395 6.887,-0.582 9.659,-0.654 0.237,-0.007 0.481,-0.014 0.711,-0.014 0.316,-0.007 0.624,-0.015 0.926,-0.015 5.781,-0.057 9.536,0.395 12.057,0.467 0.294,0.007 0.567,0 0.811,-0.036 C -0.488,3.095 -0.072,0.969 -0.014,0.244 0,0.093 0,0 0,0"
                     style="fill:#cc8a79;fill-opacity:1;fill-rule:nonzero;stroke:none"
                     id="path187" />
                </g>
              </g>
            </g>
          </g>
          <g
             id="g195">
            <g
               id="g197" />
            <g
               id="g209">
              <g
                 clip-path="url(#clipPath201)"
                 opacity="0.5"
                 id="g207">
                <g
                   transform="translate(382.5363,389.8965)"
                   id="g205">
                  <path
                     d="m 0,0 c 0,0 0.036,-3.109 -1.673,-5.192 l -4.783,30.139 c 0.934,-0.187 1.939,-0.503 3.031,-0.991 z"
                     style="fill:#cc8a79;fill-opacity:1;fill-rule:nonzero;stroke:none"
                     id="path203" />
                </g>
              </g>
            </g>
          </g>
          <g
             id="g211">
            <g
               id="g213" />
            <g
               id="g225">
              <g
                 clip-path="url(#clipPath217)"
                 opacity="0.5"
                 id="g223">
                <g
                   transform="translate(367.2406,383.9792)"
                   id="g221">
                  <path
                     d="m 0,0 -3.77,26.864 c 0.876,-0.05 1.86,-0.237 2.959,-0.581 L 2.176,3.059 C 2.176,3.059 2.24,1.063 0,0"
                     style="fill:#cc8a79;fill-opacity:1;fill-rule:nonzero;stroke:none"
                     id="path219" />
                </g>
              </g>
            </g>
          </g>
          <g
             id="g227">
            <g
               id="g229" />
            <g
               id="g241">
              <g
                 clip-path="url(#clipPath233)"
                 opacity="0.5"
                 id="g239">
                <g
                   transform="translate(395.4335,389.8534)"
                   id="g237">
                  <path
                     d="m 0,0 c 0,0 -0.366,-2.477 -2.571,-4.323 l -1.264,31.274 c 0.991,-0.324 2.025,-0.783 3.117,-1.401 z"
                     style="fill:#cc8a79;fill-opacity:1;fill-rule:nonzero;stroke:none"
                     id="path235" />
                </g>
              </g>
            </g>
          </g>
          <g
             id="g243"
             transform="translate(416.9481,382.78)">
            <path
               d="m 0,0 -13.536,-20.035 v -29.443 h -21.788 v 36.387 c 1.436,11.368 13.048,14.24 13.048,14.24 -0.962,0.086 -1.852,0.223 -2.671,0.402 -0.251,0.05 -0.488,0.115 -0.725,0.18 -8.575,2.226 -8.725,9.27 -8.251,12.703 0.15,1.056 1.113,1.795 2.168,1.659 3.641,-0.481 7.009,-0.639 10.004,-0.603 5.005,0.057 8.969,0.66 11.425,1.156 1.694,0.337 3.418,-0.431 4.294,-1.918 L -5.824,14.369 0.129,4.301 C 0.919,2.959 0.869,1.285 0,0"
               style="fill:#fab29a;fill-opacity:1;fill-rule:nonzero;stroke:none"
               id="path245" />
          </g>
          <g
             id="g299"
             transform="translate(150.5032,241.0014)">
            <path
               d="m 0,0 v -14.362 h -28.889 c 0,0 -2.363,-3.878 -10.851,-10.951 -2.894,-2.413 -6.722,-3.957 -10.75,-4.927 -10.765,-2.585 -23.016,-1.062 -23.016,-1.062 l -1.457,4.373 0.308,23.03 -3.116,-0.309 -2.363,5.106 -4.825,10.455 -3.045,3.11 c 0,0 -0.366,4.904 7.31,7.54 0,0 5.285,1.063 12.179,1.336 2.047,0.079 4.237,0.086 6.47,-0.022 0.345,-0.014 0.697,-0.043 1.035,-0.072 l 3.051,1.171 3.541,-1.494 10.57,-4.452 z"
               style="fill:#fab29a;fill-opacity:1;fill-rule:nonzero;stroke:none"
               id="path301" />
          </g>
          <g
             id="g303">
            <g
               id="g305" />
            <g
               id="g317">
              <g
                 clip-path="url(#clipPath309)"
                 opacity="0.5"
                 id="g315">
                <g
                   transform="translate(100.013,210.7618)"
                   id="g313">
                  <path
                     d="m 0,0 c -10.764,-2.585 -23.015,-1.063 -23.015,-1.063 l -1.458,4.373 0.309,23.03 -3.117,-0.309 -2.363,5.106 -4.825,10.456 -3.045,3.109 c 0,0 -0.366,4.905 7.31,7.54 0,0 5.286,1.063 12.179,1.336 2.047,0.079 4.237,0.086 6.471,-0.021 0.344,-0.015 0.696,-0.044 1.034,-0.072 l 3.052,1.17 3.54,-1.493 C -1.86,48.594 0.639,41.191 2.959,29.299 6.492,11.152 2.801,3.239 0,0"
                     style="fill:#cc8a79;fill-opacity:1;fill-rule:nonzero;stroke:none"
                     id="path311" />
                </g>
              </g>
            </g>
          </g>
          <g
             id="g319"
             transform="translate(65.208,245.8293)">
            <path
               d="m 0,0 21.759,2.397 c 3.198,1.024 5.021,3.06 4.221,7.635 -0.634,3.622 -3.179,5.028 -5.063,5.575 -0.38,0.11 -0.77,0.147 -1.165,0.118 C 13.125,15.242 4.491,14.335 1.828,13.824 -2.377,13.016 -4.297,10.233 -3.84,6.014 -3.383,1.795 0,0 0,0"
               style="fill:#fab29a;fill-opacity:1;fill-rule:nonzero;stroke:none"
               id="path321" />
          </g>
          <g
             id="g323"
             transform="translate(94.0384,235.8956)">
            <path
               d="m 0,0 c -0.697,0.086 -1.171,0.086 -1.171,0.086 l -24.401,-3.418 c 0,0 -6.729,3.713 -4.251,11.03 0.237,0.711 0.56,1.458 0.991,2.233 l 25.371,2.801 c 0.668,0.072 1.343,0.007 1.982,-0.208 0.94,-0.309 1.939,-0.819 2.75,-1.645 C 2.004,10.147 2.578,9.149 2.829,7.82 3.526,4.151 2.98,1.817 0,0"
               style="fill:#fab29a;fill-opacity:1;fill-rule:nonzero;stroke:none"
               id="path325" />
          </g>
          <g
             id="g327"
             transform="translate(99.5534,217.2391)">
            <path
               d="m 0,0 c 0,-5.745 -3.662,-5.745 -22.556,-7.54 0,0 -6.176,1.156 -5.422,7.698 0.087,0.754 0.266,1.58 0.553,2.477 L -3.777,5.63 c 0,0 1.845,0.057 2.958,-1.874 C -0.338,2.923 0,1.723 0,0"
               style="fill:#fab29a;fill-opacity:1;fill-rule:nonzero;stroke:none"
               id="path329" />
          </g>
          <g
             id="g331"
             transform="translate(95.7762,222.8691)">
            <path
               d="m 0,0 -23.647,-2.995 c 0,0 -6.162,2.837 -4.625,9.846 0.187,0.876 0.503,1.824 0.962,2.843 l 24.402,3.419 c 0,0 3.49,0.036 5.594,-1.946 C 3.397,10.506 3.95,9.608 4.158,8.409 4.905,4.079 3.655,1.314 0,0"
               style="fill:#fab29a;fill-opacity:1;fill-rule:nonzero;stroke:none"
               id="path333" />
          </g>
          <g
             id="g335">
            <g
               id="g337" />
            <g
               id="g349">
              <g
                 clip-path="url(#clipPath341)"
                 opacity="0.5"
                 id="g347">
                <g
                   transform="translate(95.3094,246.7749)"
                   id="g345">
                  <path
                     d="m 0,0 -31.094,-3.181 c 0.237,0.711 0.56,1.458 0.991,2.233 L -4.732,1.853 C -4.064,1.925 -3.389,1.86 -2.75,1.644 -1.81,1.336 -0.811,0.826 0,0"
                     style="fill:#cc8a79;fill-opacity:1;fill-rule:nonzero;stroke:none"
                     id="path343" />
                </g>
              </g>
            </g>
          </g>
          <g
             id="g351">
            <g
               id="g353" />
            <g
               id="g365">
              <g
                 clip-path="url(#clipPath357)"
                 opacity="0.5"
                 id="g363">
                <g
                   transform="translate(98.4619,234.0357)"
                   id="g361">
                  <path
                     d="m 0,0 -30.958,-4.316 c 0.187,0.876 0.503,1.824 0.963,2.844 l 24.401,3.418 c 0,0 3.49,0.036 5.594,-1.946"
                     style="fill:#cc8a79;fill-opacity:1;fill-rule:nonzero;stroke:none"
                     id="path359" />
                </g>
              </g>
            </g>
          </g>
          <g
             id="g367">
            <g
               id="g369" />
            <g
               id="g381">
              <g
                 clip-path="url(#clipPath373)"
                 opacity="0.5"
                 id="g379">
                <g
                   transform="translate(98.7348,220.9949)"
                   id="g377">
                  <path
                     d="m 0,0 -27.159,-3.598 c 0.086,0.754 0.266,1.58 0.553,2.478 l 23.647,2.994 c 0,0 1.846,0.058 2.959,-1.874"
                     style="fill:#cc8a79;fill-opacity:1;fill-rule:nonzero;stroke:none"
                     id="path375" />
                </g>
              </g>
            </g>
          </g>
          <g
             id="g383">
            <g
               id="g385" />
            <g
               id="g397">
              <g
                 clip-path="url(#clipPath389)"
                 opacity="0.5"
                 id="g395">
                <g
                   transform="translate(86.5724,257.1779)"
                   id="g393">
                  <path
                     d="m 0,0 c 0,0 1.471,-13.766 13.233,-17.716 l 14.254,1.403 -7.562,17.349 c 0,0 -8.287,5.63 -18.039,6.104 C -0.068,7.235 -1.983,7.237 -3.803,7.185 -3.281,5.281 -2.156,2.156 0,0"
                     style="fill:#cc8a79;fill-opacity:1;fill-rule:nonzero;stroke:none"
                     id="path391" />
                </g>
              </g>
            </g>
          </g>
          <g
             id="g399"
             transform="translate(121.06,256.8578)">
            <path
               d="m 0,0 -19.433,13.13 c -1.738,2.199 -5.649,7.328 -7.569,11.307 -1.809,3.747 -3.339,10.191 -4.055,13.508 -0.261,1.21 -1.519,1.905 -2.687,1.496 -3.282,-1.151 -9.032,-4.233 -9.416,-11.773 -0.419,-8.249 3.843,-12.251 5.749,-13.618 0.598,-2.594 2.168,-8.167 5.441,-12.945 0.377,-4.375 3.185,-20.767 24.033,-22.73 0.325,-0.061 0.655,-0.115 0.995,-0.158 h 1.356 c 1.241,-0.049 2.537,-0.052 3.897,0 H 29.442 V 0 Z"
               style="fill:#fab29a;fill-opacity:1;fill-rule:nonzero;stroke:none"
               id="path401" />
          </g>
          <g
             id="g443"
             transform="translate(408.3887,265.8192)">
            <path
               d="M 0,0 C -0.029,-0.266 -0.072,-0.524 -0.122,-0.776 -0.675,-3.605 -2.808,-5.903 -5.264,-7.684 L -26.232,-56.565 H -40.595 V -28.2 c 0,0 -3.877,2.319 -10.951,10.649 -6.219,7.325 -6.657,20.703 -6.362,28.021 l -15.239,30.182 c -1.615,3.763 1.013,6.528 3.771,6.995 2.649,0.459 4.574,-1.437 6.283,-4.216 l 15.296,-23.705 c 0.072,-0.308 0.287,-0.56 0.56,-0.682 0.165,-0.086 0.359,-0.115 0.553,-0.093 0.079,0.007 0.158,0.029 0.23,0.057 0.588,-0.682 1.536,-1.493 2.973,-2.097 l 10.233,-0.136 c 1.235,0.18 2.491,0.381 3.727,0.589 l -0.245,2.427 15.562,7.066 3.109,2.988 c 0,0 4.912,0.359 7.54,-7.181 0,0 1.063,-5.156 1.336,-11.885 0.022,-0.137 0.05,-0.273 0.072,-0.417 0.38,-2.097 0.919,-4.474 1.766,-7.145 C -0.022,2.082 0.086,1.005 0,0"
               style="fill:#fab29a;fill-opacity:1;fill-rule:nonzero;stroke:none"
               id="path445" />
          </g>
          <g
             id="g447">
            <g
               id="g449" />
            <g
               id="g461">
              <g
                 clip-path="url(#clipPath453)"
                 opacity="0.5"
                 id="g459">
                <g
                   transform="translate(408.3887,265.8192)"
                   id="g457">
                  <path
                     d="m 0,0 c -6.642,-3.677 -19.059,-10.362 -23.784,-11.562 -6.585,-1.68 -8.38,2.873 -8.38,2.873 -5.86,-3.591 -12.445,-1.436 -13.644,4.905 -1.163,6.182 -1.415,22.031 -1.429,22.828 0.165,-0.086 0.359,-0.115 0.553,-0.093 0.079,0.007 0.158,0.029 0.23,0.057 0.588,-0.682 1.536,-1.493 2.973,-2.097 l 10.233,-0.136 c 1.235,0.18 2.491,0.381 3.727,0.589 l -0.245,2.427 15.562,7.066 3.109,2.988 c 0,0 4.912,0.359 7.54,-7.181 0,0 1.063,-5.156 1.336,-11.885 0.022,-0.137 0.05,-0.273 0.072,-0.417 0.38,-2.097 0.919,-4.474 1.766,-7.145 C -0.022,2.082 0.086,1.005 0,0"
                     style="fill:#cc8a79;fill-opacity:1;fill-rule:nonzero;stroke:none"
                     id="path455" />
                </g>
              </g>
            </g>
          </g>
          <g
             id="g463"
             transform="translate(401.4854,291.2079)">
            <path
               d="m 0,0 c -0.808,4.129 -3.591,6.014 -7.809,5.565 -4.219,-0.448 -6.015,-3.77 -6.015,-3.77 l 3.052,-27.198 c 0,0 -0.05,-0.328 -0.217,-0.832 4.786,-9.752 12.702,-1.642 13.143,0.832 C 2.603,-22.89 0.808,-4.129 0,0"
               style="fill:#fab29a;fill-opacity:1;fill-rule:nonzero;stroke:none"
               id="path465" />
          </g>
          <g
             id="g467"
             transform="translate(390.7161,265.8048)">
            <path
               d="m 0,0 c 0,0 -0.811,-5.386 -7.095,-6.197 -3.634,-0.467 -5.256,2.226 -5.975,4.574 0.173,0.955 0.173,1.666 0.173,1.666 l -3.426,23.956 c 0,0 3.684,6.549 10.93,4.208 0.747,-0.237 1.522,-0.567 2.341,-1.012 l 3.045,-27.13 z"
               style="fill:#fab29a;fill-opacity:1;fill-rule:nonzero;stroke:none"
               id="path469" />
          </g>
          <g
             id="g471"
             transform="translate(377.8188,265.8479)">
            <path
               d="m 0,0 c 0,0 0.029,-3.411 -1.932,-5.479 -0.66,-0.704 -1.565,-1.257 -2.772,-1.458 -4.337,-0.74 -7.102,0.488 -8.416,4.079 l -3.547,21.902 c 0,0 3.389,7.347 10.779,5.738 0.775,-0.172 1.594,-0.438 2.463,-0.826 z"
               style="fill:#fab29a;fill-opacity:1;fill-rule:nonzero;stroke:none"
               id="path473" />
          </g>
          <g
             id="g475">
            <g
               id="g477" />
            <g
               id="g489">
              <g
                 clip-path="url(#clipPath481)"
                 opacity="0.5"
                 id="g487">
                <g
                   transform="translate(377.8188,265.8479)"
                   id="g485">
                  <path
                     d="m 0,0 c 0,0 0.029,-3.411 -1.932,-5.479 l -3.956,30.261 c 0.775,-0.172 1.594,-0.438 2.463,-0.826 z"
                     style="fill:#cc8a79;fill-opacity:1;fill-rule:nonzero;stroke:none"
                     id="path483" />
                </g>
              </g>
            </g>
          </g>
          <g
             id="g491">
            <g
               id="g493" />
            <g
               id="g505">
              <g
                 clip-path="url(#clipPath497)"
                 opacity="0.5"
                 id="g503">
                <g
                   transform="translate(390.7089,265.8694)"
                   id="g501">
                  <path
                     d="m 0,0 -1.673,-0.84 -3.713,28.983 c 0.747,-0.237 1.523,-0.568 2.341,-1.013 z"
                     style="fill:#cc8a79;fill-opacity:1;fill-rule:nonzero;stroke:none"
                     id="path499" />
                </g>
              </g>
            </g>
          </g>
          <g
             id="g507">
            <g
               id="g509" />
            <g
               id="g521">
              <g
                 clip-path="url(#clipPath513)"
                 opacity="0.5"
                 id="g519">
                <g
                   transform="translate(408.2667,265.0436)"
                   id="g517">
                  <path
                     d="m 0,0 c -9.048,-11.418 -30.635,-37.394 -32.279,-17.85 -2.154,25.613 25.134,26.929 25.134,26.929 1.565,1.2 3.447,1.463 5.12,2.059 C -1.644,9.041 -1.106,6.664 -0.258,3.993 0.194,2.564 0.251,1.228 0,0"
                     style="fill:#cc8a79;fill-opacity:1;fill-rule:nonzero;stroke:none"
                     id="path515" />
                </g>
              </g>
            </g>
          </g>
          <g
             id="g523"
             transform="translate(438.4153,271.7841)">
            <path
               d="m 0,0 c -1.772,3.448 -5.856,7.665 -12.454,7.665 -8.259,0 -12.148,-4.608 -12.148,-4.608 0,0 -5.805,0.209 -11.73,-3.232 0,0 -25.851,-0.478 -25.851,-25.971 V -62.53 h 21.782 v 29.442 l 6.521,9.651 c 2.91,3.293 8.229,8.922 13.108,12.012 0,0 12.248,5.764 19.244,7.839 C -0.006,-3.135 0.726,-1.412 0,0"
               style="fill:#fab29a;fill-opacity:1;fill-rule:nonzero;stroke:none"
               id="path525" />
          </g>
          <g
             id="g527"
             transform="translate(286.1076,128.2918)">
            <path
               d="m 0,0 c -0.151,-1.58 -1.623,-2.7 -3.188,-2.427 -3.289,0.574 -8.402,2.635 -9.286,9.845 0,0 -2.85,1.386 -5.335,3.052 -0.611,-2.915 -1.609,-5.278 -2.628,-7.102 -0.201,-0.352 -0.395,-0.682 -0.596,-0.991 0.107,-0.553 0.201,-1.149 0.287,-1.795 0.258,-1.889 0.495,-4.173 1.012,-6.916 0.367,-2.003 0.898,-4.251 1.695,-6.771 2.011,-6.349 -3.835,-10.729 -8.624,-13.163 -0.352,-2.363 -0.661,-4.474 -0.884,-5.989 -0.229,-1.523 -0.366,-2.449 -0.366,-2.449 l -7.662,-17.867 -8.718,-20.315 h -14.362 v 28.365 c 0,0 -3.878,2.32 -10.951,10.65 -7.856,9.256 -6.485,28.15 -6.076,32.315 l -6.276,33.528 c -0.51,2.722 1.3,5.35 4.058,5.817 2.649,0.459 5.156,-1.4 5.737,-4.029 l 6.707,-30.354 c 0.115,-0.503 0.596,-0.84 1.106,-0.776 0.56,0.065 0.948,0.575 0.876,1.128 l -4.509,42.225 c -0.41,3.051 1.759,5.866 4.847,6.233 2.973,0.352 5.651,-1.867 6.14,-4.819 l 5.752,-41.923 c 0.064,-0.409 0.388,-0.732 0.797,-0.811 0.632,-0.123 1.213,0.394 1.17,1.041 l -1.709,49.851 c -0.395,3.353 1.997,6.398 5.35,6.808 3.196,0.387 6.154,-1.753 6.772,-4.912 l 2.693,-46.498 c 0.122,-0.61 0.38,-0.919 0.689,-1.005 3.052,4.876 9.271,14.003 14.513,16.624 0.445,0.223 0.955,0.28 1.444,0.151 2.082,-0.546 9.299,-2.93 16.164,-7.418 0.625,-0.41 1.07,-1.034 1.278,-1.752 C -1.271,14.721 0.668,7.023 0,0"
               style="fill:#fab29a;fill-opacity:1;fill-rule:nonzero;stroke:none"
               id="path529" />
          </g>
          <g
             id="g531">
            <g
               id="g533" />
            <g
               id="g545">
              <g
                 clip-path="url(#clipPath537)"
                 opacity="0.5"
                 id="g543">
                <g
                   transform="translate(259.4442,102.0234)"
                   id="g541">
                  <path
                     d="M 0,0 C -0.352,-2.363 -0.661,-4.474 -0.883,-5.989 -1.113,-7.511 -1.25,-8.438 -1.25,-8.438 l -7.662,-17.866 c -6.929,0.38 -12.509,4.021 -14.319,13.615 -6.054,32.135 24.588,30.52 24.588,30.52 1.149,0.56 3.548,1.422 5.573,2.104 C 7.296,17.931 7.827,15.684 8.624,13.163 10.635,6.815 4.79,2.434 0,0"
                     style="fill:#cc8a79;fill-opacity:1;fill-rule:nonzero;stroke:none"
                     id="path539" />
                </g>
              </g>
            </g>
          </g>
          <g
             id="g547"
             transform="translate(285.8777,125.1537)">
            <path
               d="m 0,0 c -0.007,-0.014 -0.022,-0.022 -0.029,-0.036 -4.043,-4.797 -7.231,-14.348 -8.229,-17.543 -0.208,-0.668 -0.625,-1.25 -1.199,-1.645 -4.625,-3.174 -9.494,-8.337 -12.23,-11.432 l -6.52,-9.651 V -69.75 h -21.781 v 36.387 c 0,25.493 25.852,25.966 25.852,25.966 2.025,1.178 4.029,1.925 5.803,2.399 1.343,3.77 3.253,6.14 5.364,7.569 1.12,0.747 2.298,1.235 3.476,1.529 C -7.519,1.932 -4.912,1.056 -2.959,0.711 -1.537,0.46 -0.201,1.372 0.144,2.722 0.675,1.925 0.689,0.819 0,0"
               style="fill:#fab29a;fill-opacity:1;fill-rule:nonzero;stroke:none"
               id="path549" />
          </g>
          <g
             id="g551">
            <g
               id="g553" />
            <g
               id="g565">
              <g
                 clip-path="url(#clipPath557)"
                 opacity="0.5"
                 id="g563">
                <g
                   transform="translate(265.0742,130.6687)"
                   id="g561">
                  <path
                     d="M 0,0 C 0.108,-0.553 0.201,-1.149 0.287,-1.795 -35.984,0.517 -49.392,-5.537 -51.223,-6.47 -36.387,2.276 -6.923,1.379 0.596,0.991 0.395,0.639 0.201,0.309 0,0"
                     style="fill:#cc8a79;fill-opacity:1;fill-rule:nonzero;stroke:none"
                     id="path559" />
                </g>
              </g>
            </g>
          </g>
          <g
             id="g567">
            <g
               id="g569" />
            <g
               id="g581">
              <g
                 clip-path="url(#clipPath573)"
                 opacity="0.5"
                 id="g579">
                <g
                   transform="translate(285.8777,125.1537)"
                   id="g577">
                  <path
                     d="m 0,0 c -0.007,-0.014 -0.022,-0.022 -0.029,-0.036 -5.378,-3.777 -10.901,0.632 -12.94,2.607 1.12,0.747 2.298,1.235 3.476,1.529 C -7.519,1.932 -4.912,1.056 -2.959,0.711 -1.537,0.46 -0.201,1.372 0.144,2.722 0.675,1.925 0.689,0.819 0,0"
                     style="fill:#cc8a79;fill-opacity:1;fill-rule:nonzero;stroke:none"
                     id="path575" />
                </g>
              </g>
            </g>
          </g>
          <g
             id="g583"
             transform="translate(117.5086,109.0537)">
            <path
               d="m 0,0 0.036,-1.35 -1.092,0.093 -0.459,0.036 -0.517,-1.199 -21.974,-51.23 h -14.363 v 28.365 c 0,0 -3.877,2.32 -10.951,10.65 -8.854,10.434 -5.982,33.155 -5.982,33.155 l 4.367,1.436 28.767,-0.38 4.869,-0.065 0.251,9.637 1.02,39.726 c -0.029,3.899 3.124,7.073 7.023,7.073 3.698,0 6.757,-2.872 7.001,-6.563 L -0.388,13.256 -0.144,4.668 0.409,3.26 -0.065,2.147 Z"
               style="fill:#fab29a;fill-opacity:1;fill-rule:nonzero;stroke:none"
               id="path585" />
          </g>
          <g
             id="g587">
            <g
               id="g589" />
            <g
               id="g601">
              <g
                 clip-path="url(#clipPath593)"
                 opacity="0.5"
                 id="g599">
                <g
                   transform="translate(117.918,112.3139)"
                   id="g597">
                  <path
                     d="m 0,0 -0.546,1.408 -0.064,2.24 -13.171,-1.077 -0.486,0.234 c -0.385,5.099 -1.11,14.369 -1.539,17.604 -0.596,4.545 -1.443,4.782 -1.443,4.782 l -0.208,0.697 -0.252,-9.637 -4.703,0.062 0.553,6.2 -6.758,-3.067 0.302,-3.059 -23.03,0.309 -4.366,-1.436 c 0,0 -1.379,-10.894 0.718,-21.055 2.937,-2.815 10.14,-7.217 25.658,-5.637 0,0 16.765,2.998 26.455,4.708 l 0.963,2.243 1.544,-0.129 -0.101,3.497 z"
                     style="fill:#cc8a79;fill-opacity:1;fill-rule:nonzero;stroke:none"
                     id="path595" />
                </g>
              </g>
            </g>
          </g>
          <g
             id="g603"
             transform="translate(100.6657,137.5075)">
            <path
               d="m 0,0 c -9.694,5.506 -15.602,-1.556 -15.602,-1.556 l 3.423,-23.956 c 0,0 0.002,-0.706 -0.172,-1.664 0.721,-2.349 2.341,-5.038 5.978,-4.57 6.283,0.807 7.091,6.193 7.091,6.193 z"
               style="fill:#fab29a;fill-opacity:1;fill-rule:nonzero;stroke:none"
               id="path605" />
          </g>
          <g
             id="g607"
             transform="translate(72.9787,105.9874)">
            <path
               d="m 0,0 c -0.79,-0.338 -1.838,-0.553 -3.231,-0.553 -5.745,0 -5.745,3.591 -7.541,22.139 0,0 1.185,6.219 7.95,5.3 0.682,-0.093 1.414,-0.259 2.219,-0.51 L 2.391,3.153 C 2.391,3.153 2.463,1.027 0,0"
               style="fill:#fab29a;fill-opacity:1;fill-rule:nonzero;stroke:none"
               id="path609" />
          </g>
          <g
             id="g611"
             transform="translate(88.4898,111.9979)">
            <path
               d="m 0,0 c 0,0 0.029,-3.332 -1.867,-5.407 -0.675,-0.74 -1.594,-1.322 -2.844,-1.53 -4.33,-0.74 -7.095,0.488 -8.409,4.079 l -2.994,23.224 c 0,0 2.922,6.24 10.19,4.459 0.782,-0.187 1.615,-0.474 2.499,-0.869 z"
               style="fill:#fab29a;fill-opacity:1;fill-rule:nonzero;stroke:none"
               id="path613" />
          </g>
          <g
             id="g615">
            <g
               id="g617" />
            <g
               id="g629">
              <g
                 clip-path="url(#clipPath621)"
                 opacity="0.5"
                 id="g627">
                <g
                   transform="translate(117.444,111.2008)"
                   id="g625">
                  <path
                     d="M 0,0 0.065,-2.147 C -0.28,-2.556 -0.625,-2.973 -0.991,-3.404 -1.307,-3.784 -1.63,-4.172 -1.968,-4.567 -12.43,-16.926 -29.859,-35.087 -31.353,-17.859 -33.564,7.756 -5.522,9.07 -5.522,9.07 c 1.587,1.185 3.49,1.457 5.199,2.039 L -0.079,2.521 0.474,1.113 Z"
                     style="fill:#cc8a79;fill-opacity:1;fill-rule:nonzero;stroke:none"
                     id="path623" />
                </g>
              </g>
            </g>
          </g>
          <g
             id="g631"
             transform="translate(149.761,117.9342)">
            <path
               d="m 0,0 c -1.772,3.448 -5.856,7.665 -12.454,7.665 -8.259,0 -12.148,-4.608 -12.148,-4.608 0,0 -5.805,0.209 -11.73,-3.232 0,0 -25.851,-0.478 -25.851,-25.971 V -62.53 h 21.782 v 29.442 l 6.521,9.651 c 2.91,3.293 8.229,8.922 13.107,12.012 0,0 12.249,5.764 19.245,7.839 C -0.006,-3.135 0.726,-1.412 0,0"
               style="fill:#fab29a;fill-opacity:1;fill-rule:nonzero;stroke:none"
               id="path633" />
          </g>
          <g
             id="g635">
            <g
               id="g637" />
            <g
               id="g649">
              <g
                 clip-path="url(#clipPath641)"
                 opacity="0.5"
                 id="g647">
                <g
                   transform="translate(88.4898,111.9979)"
                   id="g645">
                  <path
                     d="m 0,0 c 0,0 0.029,-3.332 -1.867,-5.407 l -4.057,30.232 c 0.782,-0.187 1.615,-0.474 2.499,-0.869 z"
                     style="fill:#cc8a79;fill-opacity:1;fill-rule:nonzero;stroke:none"
                     id="path643" />
                </g>
              </g>
            </g>
          </g>
          <g
             id="g651">
            <g
               id="g653" />
            <g
               id="g665">
              <g
                 clip-path="url(#clipPath657)"
                 opacity="0.5"
                 id="g663">
                <g
                   transform="translate(72.9787,105.9874)"
                   id="g661">
                  <path
                     d="m 0,0 -2.822,26.886 c 0.682,-0.093 1.414,-0.259 2.219,-0.51 L 2.391,3.153 C 2.391,3.153 2.463,1.027 0,0"
                     style="fill:#cc8a79;fill-opacity:1;fill-rule:nonzero;stroke:none"
                     id="path659" />
                </g>
              </g>
            </g>
          </g>
          <g
             id="g667"
             transform="translate(411.6621,104.2854)">
            <path
               d="M 0,0 -20.969,-48.882 H -35.36 v 28.366 c 0,0 -3.885,2.319 -10.951,10.649 -6.269,7.382 -6.664,20.904 -6.362,28.186 l -6.154,36.178 c -0.719,4.338 1.551,6.801 4.308,7.268 2.65,0.459 4.79,-1.257 5.745,-4.489 l 6.535,-28.645 0.237,-1.034 c 0.108,-0.503 0.589,-0.84 1.106,-0.776 0.079,0.008 0.158,0.029 0.229,0.058 0.589,-0.682 1.013,-1.681 2.449,-2.284 l 10.233,-0.136 c 1.235,0.179 2.499,0.38 3.734,0.589 l -0.244,2.427 10.406,4.725 0.1,3.792 0.963,37.65 c -0.022,3.899 3.123,7.073 7.023,7.073 3.698,0 6.764,-2.872 7.008,-6.563 l 1.379,-48.02 c 0.266,-2.047 0.539,-4.704 0.661,-7.669 0.093,-0.546 0.201,-1.121 0.323,-1.71 v -0.007 c 0.33,-1.623 0.761,-3.404 1.364,-5.35 0.043,-0.165 0.101,-0.33 0.151,-0.495 C 6.384,6.183 3.533,2.549 0,0"
               style="fill:#fab29a;fill-opacity:1;fill-rule:nonzero;stroke:none"
               id="path669" />
          </g>
          <g
             id="g671">
            <g
               id="g673" />
            <g
               id="g685">
              <g
                 clip-path="url(#clipPath677)"
                 opacity="0.5"
                 id="g683">
                <g
                   transform="translate(395.6339,115.3659)"
                   id="g681">
                  <path
                     d="m 0,0 v 20.239 l -8.466,-3.845 0.244,-2.427 c -1.235,-0.208 -2.499,-0.409 -3.734,-0.589 l -10.234,0.137 c -1.436,0.603 -1.859,1.601 -2.448,2.283 -0.072,-0.028 -0.151,-0.05 -0.23,-0.057 -0.517,-0.065 -0.998,0.273 -1.106,0.775 l -0.237,1.035 c 0.079,-4.058 0.402,-18.032 1.408,-23.942 1.192,-6.959 7.741,-9.321 13.565,-5.379 0,0 0.557,-1.546 2.176,-2.601 -2.677,-3.614 -4.193,-8.539 -1.261,-14.712 5.673,-11.943 13.702,9.687 16.247,17.316 L 5.924,0 Z"
                     style="fill:#cc8a79;fill-opacity:1;fill-rule:nonzero;stroke:none"
                     id="path679" />
                </g>
              </g>
            </g>
          </g>
          <g
             id="g687">
            <g
               id="g689" />
            <g
               id="g701">
              <g
                 clip-path="url(#clipPath693)"
                 opacity="0.5"
                 id="g699">
                <g
                   transform="translate(397.0558,108.7521)"
                   id="g697">
                  <path
                     d="m 0,0 c -0.208,0.108 -0.345,0.237 -0.345,0.237 l -1.529,26.412 -0.194,3.354 c 0.833,-0.302 1.695,-0.704 2.592,-1.214 0,0 0.007,-0.014 0.022,-0.05 V 28.732 C 0.768,28.157 2.542,23.181 2.793,10.477 3.009,-0.395 0.862,-0.416 0,0"
                     style="fill:#cc8a79;fill-opacity:1;fill-rule:nonzero;stroke:none"
                     id="path695" />
                </g>
              </g>
            </g>
          </g>
          <g
             id="g703"
             transform="translate(398.5422,111.9548)">
            <path
               d="m 0,0 c 0,0 -0.237,-1.609 -1.486,-3.203 -0.711,-0.905 -1.738,-1.802 -3.232,-2.391 -0.689,-0.28 -1.472,-0.488 -2.37,-0.603 -0.323,-0.043 -0.632,-0.058 -0.919,-0.051 -0.057,0 -0.115,0.008 -0.172,0.008 -2.88,0.143 -4.244,2.513 -4.891,4.617 0.173,0.955 0.173,1.666 0.173,1.666 l -1.314,9.206 -1.078,7.548 -1.026,7.202 c 0,0 4.66,5.831 12.76,2.801 0.833,-0.302 1.695,-0.704 2.593,-1.214 l 0.014,-0.287 0.646,-14.685 z"
               style="fill:#fab29a;fill-opacity:1;fill-rule:nonzero;stroke:none"
               id="path705" />
          </g>
          <g
             id="g707"
             transform="translate(385.645,111.9979)">
            <path
               d="m 0,0 c 0,0 0.036,-3.196 -1.745,-5.278 -0.682,-0.797 -1.637,-1.436 -2.959,-1.659 -4.33,-0.74 -7.095,0.488 -8.409,4.079 l -2.994,23.224 c 0,0 3.016,6.434 10.534,4.373 0.683,-0.187 1.401,-0.445 2.155,-0.783 z"
               style="fill:#fab29a;fill-opacity:1;fill-rule:nonzero;stroke:none"
               id="path709" />
          </g>
          <g
             id="g711">
            <g
               id="g713" />
            <g
               id="g725">
              <g
                 clip-path="url(#clipPath717)"
                 opacity="0.5"
                 id="g723">
                <g
                   transform="translate(416.3944,115.6818)"
                   id="g721">
                  <path
                     d="m 0,0 c 0,-1.027 -0.122,-1.996 -0.338,-2.772 -0.868,-3.117 -3.317,-5.745 -6.355,-6.836 -1.005,-0.359 -2.097,-0.56 -3.138,-0.345 -1.695,0.352 -3.21,1.501 -4.826,2.118 -1.579,0.611 -2.29,1.81 -3.131,3.232 -0.545,-1.207 -1.177,-2.305 -2.204,-3.203 -0.668,-0.582 -1.508,-1.12 -2.578,-1.515 -0.725,-0.28 -1.558,-0.488 -2.514,-0.603 -0.272,-0.036 -0.531,-0.051 -0.775,-0.051 -0.065,0 -0.122,0 -0.172,0.008 -2.88,0.143 -4.244,2.513 -4.891,4.617 0.173,0.955 0.173,1.666 0.173,1.666 l -1.315,9.206 c 0.13,0.359 0.259,0.675 0.381,0.948 0.338,0.74 1.156,1.178 2.011,1.092 3.863,-0.395 7.21,-0.582 10.104,-0.654 0.251,-0.007 0.502,-0.014 0.746,-0.014 0.223,-0.007 0.446,-0.007 0.668,-0.007 6.219,-0.079 10.233,0.38 12.912,0.459 0.309,0.007 0.589,0 0.847,-0.036 1.343,-0.136 2.334,-0.89 3.031,-1.953 V 5.35 C -1.034,3.727 -0.603,1.946 0,0"
                     style="fill:#cc8a79;fill-opacity:1;fill-rule:nonzero;stroke:none"
                     id="path719" />
                </g>
              </g>
            </g>
          </g>
          <g
             id="g727">
            <g
               id="g729" />
            <g
               id="g741">
              <g
                 clip-path="url(#clipPath733)"
                 opacity="0.5"
                 id="g739">
                <g
                   transform="translate(385.645,111.9979)"
                   id="g737">
                  <path
                     d="m 0,0 c 0,0 0.036,-3.196 -1.745,-5.278 l -3.828,30.017 c 0.683,-0.187 1.401,-0.445 2.155,-0.783 z"
                     style="fill:#cc8a79;fill-opacity:1;fill-rule:nonzero;stroke:none"
                     id="path735" />
                </g>
              </g>
            </g>
          </g>
          <g
             id="g743"
             transform="translate(384.7366,91.788)">
            <path
               d="m 0,0 v -36.384 h 21.783 v 29.442 l 13.535,20.033 c 0.871,1.288 0.921,2.962 0.131,4.301 l -6.16,10.431 C 28.41,29.312 26.69,30.078 24.995,29.738 21.074,28.951 13.291,27.896 3.569,29.184 2.513,29.324 1.545,28.582 1.399,27.526 0.866,23.691 1.117,15.344 13.046,14.242 13.046,14.242 1.436,11.37 0,0"
               style="fill:#fab29a;fill-opacity:1;fill-rule:nonzero;stroke:none"
               id="path745" />
          </g>
        </g>
        <g
           id="g3569"
           transform="matrix(-0.0012783,-4.3140151,4.3140151,-0.0012783,-1576.2262,3131.0623)">
          <g
             id="g27"
             transform="translate(662.81722,566.38429)">
            <path
               d="m 0,0 -24.416,-56.91 h -14.362 v 28.365 c 0,0 -3.878,2.32 -10.951,10.65 -4.366,5.141 -5.881,13.263 -6.298,20.179 v 0.007 c -0.424,7.123 0.316,12.969 0.316,12.969 l 4.366,1.436 9.407,-0.129 13.623,-0.18 -0.302,3.059 15.555,7.067 2.039,1.96 1.077,1.027 c 0,0 4.905,0.359 7.54,-7.181 0,0 1.796,-8.732 1.314,-18.312 C -1.106,3.662 -1.135,3.325 -1.163,2.98 l 0.768,-1.96 z"
               style="fill:#de9c80;fill-opacity:1;fill-rule:nonzero;stroke:none"
               id="path29" />
          </g>
          <g
             id="g31"
             transform="translate(392.33762,300.22049)">
            <g
               id="g33" />
            <g
               id="g45">
              <g
                 clip-path="url(#clipPath37-6)"
                 opacity="0.5"
                 id="g43">
                <g
                   transform="translate(270.0036,265.0508)"
                   id="g41">
                  <path
                     d="m 0,0 0.101,-3.497 -1.544,0.129 -12.345,-28.76 c -6.929,-2.104 -13.328,-2.427 -15.432,2.305 -5.271,11.849 0.359,19.504 0.359,19.504 -15.518,-1.58 -22.721,2.822 -25.658,5.637 -2.097,10.161 -0.718,21.055 -0.718,21.055 l 4.366,1.436 23.03,-0.309 -0.302,3.059 6.758,3.067 -1.372,-15.389 9.451,-4.553 13.17,1.077 0.064,-2.24 0.546,-1.408 z"
                     style="fill:#cc8a79;fill-opacity:1;fill-rule:nonzero;stroke:none"
                     id="path39" />
                </g>
              </g>
            </g>
          </g>
          <g
             id="g47"
             transform="translate(392.33762,300.22049)">
            <g
               id="g49" />
            <g
               id="g61">
              <g
                 clip-path="url(#clipPath53-2)"
                 opacity="0.5"
                 id="g59">
                <g
                   transform="translate(270.0847,267.1835)"
                   id="g57">
                  <path
                     d="m 0,0 -5.242,0.237 -5.386,27.216 1.077,1.027 c 0,0 4.905,0.359 7.54,-7.181 0,0 1.796,-8.732 1.314,-18.312 C -0.711,2.643 -0.74,2.305 -0.768,1.96 Z"
                     style="fill:#cc8a79;fill-opacity:1;fill-rule:nonzero;stroke:none"
                     id="path55" />
                </g>
              </g>
            </g>
          </g>
          <g
             id="g63"
             transform="translate(659.22672,569.57989)">
            <path
               d="m 0,0 c -0.093,2.039 -0.287,4.704 -0.531,7.483 -0.503,5.831 -1.207,12.172 -1.638,14.362 -0.804,4.136 -3.59,6.018 -7.813,5.572 -4.215,-0.452 -6.01,-3.777 -6.01,-3.777 l 1.86,-16.574 1.192,-10.621 c 0,0 -0.051,-0.33 -0.223,-0.833 1.228,-2.499 2.65,-3.827 4.108,-4.38 4.236,-1.602 8.717,3.375 9.041,5.213 C 0.079,-3.016 0.072,-1.731 0,0"
               style="fill:#de9c80;fill-opacity:1;fill-rule:nonzero;stroke:none"
               id="path65" />
          </g>
          <g
             id="g67"
             transform="translate(645.09432,576.64609)">
            <path
               d="m 0,0 -1.86,16.574 c -0.955,0.517 -1.853,0.883 -2.707,1.12 -7.009,2.011 -10.564,-4.316 -10.564,-4.316 l 3.426,-23.956 c 0,0 0.006,-0.707 -0.17,-1.671 0.722,-2.348 2.342,-5.034 5.972,-4.569 2.212,0.28 3.749,1.135 4.804,2.118 1.214,1.128 1.803,2.42 2.068,3.246 0.173,0.503 0.223,0.833 0.223,0.833 z"
               style="fill:#de9c80;fill-opacity:1;fill-rule:nonzero;stroke:none"
               id="path69" />
          </g>
          <g
             id="g71"
             transform="translate(618.58892,560.41689)">
            <path
               d="m 0,0 c -0.833,-0.524 -2.083,-0.912 -3.942,-0.912 -5.745,0 -5.745,3.591 -7.541,22.139 0,0 1.193,6.277 8.043,5.286 0.654,-0.094 1.365,-0.252 2.133,-0.496 L 1.68,2.793 C 1.68,2.793 1.738,1.106 0,0"
               style="fill:#de9c80;fill-opacity:1;fill-rule:nonzero;stroke:none"
               id="path73" />
          </g>
          <g
             id="g75"
             transform="translate(633.38912,566.06839)">
            <path
               d="m 0,0 c 0,0 0.029,-2.707 -1.35,-4.761 -0.697,-1.034 -1.752,-1.903 -3.354,-2.176 -4.33,-0.74 -7.095,0.488 -8.416,4.079 l -2.987,23.224 c 0,0 2.793,5.96 9.701,4.567 0.92,-0.18 1.911,-0.496 2.981,-0.977 z"
               style="fill:#de9c80;fill-opacity:1;fill-rule:nonzero;stroke:none"
               id="path77" />
          </g>
          <g
             id="g79"
             transform="translate(392.33762,300.22049)">
            <g
               id="g81" />
            <g
               id="g93">
              <g
                 clip-path="url(#clipPath85-1)"
                 opacity="0.5"
                 id="g91">
                <g
                   transform="translate(253.9488,265.8048)"
                   id="g89">
                  <path
                     d="m 0,0 c 0,0 -0.338,-2.262 -2.291,-4.079 l -3.468,32.394 c 0.854,-0.237 1.752,-0.603 2.707,-1.12 z"
                     style="fill:#cc8a79;fill-opacity:1;fill-rule:nonzero;stroke:none"
                     id="path87" />
                </g>
              </g>
            </g>
          </g>
          <g
             id="g95"
             transform="translate(392.33762,300.22049)">
            <g
               id="g97" />
            <g
               id="g109">
              <g
                 clip-path="url(#clipPath101-3)"
                 opacity="0.5"
                 id="g107">
                <g
                   transform="translate(241.0515,265.8479)"
                   id="g105">
                  <path
                     d="m 0,0 c 0,0 0.029,-2.707 -1.35,-4.761 l -5.056,29.694 c 0.92,-0.18 1.911,-0.496 2.981,-0.977 z"
                     style="fill:#cc8a79;fill-opacity:1;fill-rule:nonzero;stroke:none"
                     id="path103" />
                </g>
              </g>
            </g>
          </g>
          <g
             id="g111"
             transform="translate(392.33762,300.22049)">
            <g
               id="g113" />
            <g
               id="g125">
              <g
                 clip-path="url(#clipPath117-1)"
                 opacity="0.5"
                 id="g123">
                <g
                   transform="translate(226.2513,260.1964)"
                   id="g121">
                  <path
                     d="m 0,0 -3.44,26.513 c 0.654,-0.094 1.365,-0.252 2.133,-0.496 L 1.68,2.793 C 1.68,2.793 1.738,1.106 0,0"
                     style="fill:#cc8a79;fill-opacity:1;fill-rule:nonzero;stroke:none"
                     id="path119" />
                </g>
              </g>
            </g>
          </g>
          <path
             d="m 632.48012,545.85839 v -36.384 h 21.783 v 29.442 l 13.535,20.033 c 0.871,1.288 0.921,2.962 0.131,4.301 l -6.16,10.431 c -0.879,1.489 -2.599,2.255 -4.294,1.915 -3.921,-0.787 -11.704,-1.842 -21.426,-0.554 -1.056,0.14 -2.024,-0.602 -2.17,-1.658 -0.533,-3.835 -0.282,-12.182 11.647,-13.284 0,0 -11.61,-2.872 -13.046,-14.242"
             style="fill:#de9c80;fill-opacity:1;fill-rule:nonzero;stroke:none"
             id="path145" />
          <g
             id="g141"
             transform="translate(392.33762,300.22049)">
            <g
               clip-path="url(#clipPath133-9)"
               opacity="0.5"
               id="g139">
              <g
                 transform="translate(266.3577,276.8421)"
                 id="g137">
                <path
                   d="m 0,0 c -0.244,0.036 -0.51,0.043 -0.797,0.036 -2.614,-0.079 -6.578,-0.575 -12.804,-0.453 -0.23,0 -0.467,0.008 -0.704,0.015 -2.729,0.072 -5.881,0.258 -9.522,0.653 -0.804,0.087 -1.58,-0.352 -1.896,-1.091 -0.243,-0.57 -0.508,-1.33 -0.715,-2.237 l 1.132,-7.917 c 0,0 0.006,-0.708 -0.17,-1.672 0.722,-2.348 2.342,-5.034 5.972,-4.569 2.212,0.28 3.749,1.135 4.804,2.119 1.214,1.127 1.803,2.42 2.068,3.246 1.228,-2.499 2.65,-3.828 4.108,-4.381 3.914,2.234 7.038,5.91 9.055,8.768 1.638,2.327 2.543,4.101 2.543,4.101 0,0 0.064,3.037 -3.074,3.382"
                   style="fill:#cc8a79;fill-opacity:1;fill-rule:nonzero;stroke:none"
                   id="path135" />
              </g>
            </g>
          </g>
        </g>
      </g>
    </g>
  </g>
</svg>
