<?xml version="1.0" encoding="utf-8"?>
<!-- Generator: Adobe Illustrator 26.0.1, SVG Export Plug-In . SVG Version: 6.00 Build 0)  -->
<svg version="1.1"
	 id="svg5" xmlns:inkscape="http://www.inkscape.org/namespaces/inkscape" xmlns:sodipodi="http://sodipodi.sourceforge.net/DTD/sodipodi-0.dtd" xmlns:svg="http://www.w3.org/2000/svg"
	 xmlns="http://www.w3.org/2000/svg" xmlns:xlink="http://www.w3.org/1999/xlink" x="0px" y="0px" viewBox="0 0 566.9 396.9"
	 style="enable-background:new 0 0 566.9 396.9;" xml:space="preserve">
<style type="text/css">
	.st0{clip-path:url(#SVGID_00000086689659550703111640000017992884360680329867_);}
	.st1{fill:#C5C5C5;}
	.st2{opacity:0.5;clip-path:url(#SVGID_00000008845491031088255080000008825591128030404031_);}
	.st3{fill:#9C9C9C;}
	.st4{opacity:0.5;clip-path:url(#SVGID_00000020371513379839964460000005822599649938588086_);}
	.st5{opacity:0.5;clip-path:url(#SVGID_00000050653192120478878260000000681187402058718641_);}
	.st6{opacity:0.5;clip-path:url(#SVGID_00000098919172328951217560000013081735326093791377_);}
	.st7{opacity:0.5;clip-path:url(#SVGID_00000063612949948375602880000017961892248936755370_);}
	.st8{opacity:0.5;clip-path:url(#SVGID_00000029763262983078595930000003365911514973980325_);}
	.st9{opacity:0.5;clip-path:url(#SVGID_00000064336911104002346780000003061068797997123985_);}
	.st10{opacity:0.5;clip-path:url(#SVGID_00000119799953939798609880000007624078468436129445_);}
	.st11{opacity:0.5;clip-path:url(#SVGID_00000147932825672853781780000005281507382677721784_);}
	.st12{opacity:0.5;clip-path:url(#SVGID_00000029756510143684297620000016429505506456342460_);}
	.st13{opacity:0.5;clip-path:url(#SVGID_00000026851311343702941260000008489873856343443328_);}
	.st14{opacity:0.5;clip-path:url(#SVGID_00000043424461241560660110000007359561899806752156_);}
	.st15{opacity:0.5;clip-path:url(#SVGID_00000106831232507393837470000008074414489867500430_);}
	.st16{opacity:0.5;clip-path:url(#SVGID_00000097475655236361739810000017480469997553666203_);}
	.st17{opacity:0.5;clip-path:url(#SVGID_00000075868517760245378560000003451289310032579217_);}
	.st18{opacity:0.5;clip-path:url(#SVGID_00000085225639278609579590000002385136050168671402_);}
	.st19{opacity:0.5;clip-path:url(#SVGID_00000034799653705341877590000008546800578350327226_);}
	.st20{opacity:0.5;clip-path:url(#SVGID_00000135691499753251277850000016183959809232348814_);}
	.st21{opacity:0.5;clip-path:url(#SVGID_00000084491620186163295750000004319392474157868980_);}
	.st22{opacity:0.5;clip-path:url(#SVGID_00000087371687617460909640000016773282116307857306_);}
	.st23{opacity:0.5;clip-path:url(#SVGID_00000129169788564044257670000009973975329268710305_);}
	.st24{opacity:0.5;clip-path:url(#SVGID_00000094600225765576193560000005702760903429018046_);}
	.st25{opacity:0.5;clip-path:url(#SVGID_00000096753571442130019660000012813710541129460654_);}
	.st26{opacity:0.5;clip-path:url(#SVGID_00000058563875707869467400000002200370472438182060_);}
	.st27{opacity:0.5;clip-path:url(#SVGID_00000070837079417986890730000018140771774403480221_);}
	.st28{fill:#ADADAD;}
	.st29{opacity:0.5;clip-path:url(#SVGID_00000078005649967359294610000008288049492314869912_);}
	.st30{opacity:0.5;clip-path:url(#SVGID_00000052080621767357159300000012261759969169869458_);}
	.st31{opacity:0.5;clip-path:url(#SVGID_00000167375887534281533680000017744458878927790217_);}
	.st32{opacity:0.5;clip-path:url(#SVGID_00000114752765505652322910000005253171474785113017_);}
	.st33{opacity:0.5;clip-path:url(#SVGID_00000065073886245473569840000015188015597445615758_);}
	.st34{opacity:0.5;clip-path:url(#SVGID_00000160872462156825742190000000913990886045067399_);}
</style>
<sodipodi:namedview  bordercolor="#999999" borderopacity="1" height="10000000mm" id="namedview7" inkscape:current-layer="g3569" inkscape:cx="249.79576" inkscape:cy="383.28036" inkscape:document-units="mm" inkscape:pagecheckerboard="0" inkscape:pageopacity="0" inkscape:pageshadow="0" inkscape:window-height="1001" inkscape:window-maximized="1" inkscape:window-width="1920" inkscape:window-x="-9" inkscape:window-y="-9" inkscape:zoom="0.64052329" pagecolor="#ffffff" showgrid="false" width="200mm">
	</sodipodi:namedview>
<g id="layer1" inkscape:groupmode="layer" inkscape:label="Calque 1">
	<g id="g15" transform="matrix(0.35277777,0,0,-0.35277777,-214.18192,201.37664)" inkscape:label="268148-P5GZOV-896">
		<g id="g19">
			<g>
				<defs>
					<rect id="SVGID_1_" x="-655.2" y="-588.6" width="500" height="500"/>
				</defs>
				<clipPath id="SVGID_00000005946256682822680450000000863853544404708247_">
					<use xlink:href="#SVGID_1_"  style="overflow:visible;"/>
				</clipPath>
				<g id="g21" style="clip-path:url(#SVGID_00000005946256682822680450000000863853544404708247_);">
					<g id="g127">
						<g id="g129">
						</g>
					</g>
					<g id="g147" transform="translate(411.4904,389.0993)">
						<path id="path149" class="st1" d="M-358.9-333.4l0.3-9.9l-4.4,0.4l-35-81.5l-28.8-67.1h-40.7v80.4c0,0-11,6.6-31,30.2
							c-7.7,9.1-12.3,21.5-14.9,34.3c-5.9,28.8-2,59.7-2,59.7l12.4,4.1l65.3-0.9l-0.9,8.7l19.2,8.7l12.4,5.6l3,116.6v0.1
							c0,11,8.9,19.9,19.9,19.9c1.4,0,2.7-0.1,4.1-0.4c8.6-1.8,15.2-9.1,15.8-18.2l4.6-158.6l0.5-18.5l0.2-6.3l1.2-3l0.4-1
							L-358.9-333.4z"/>
					</g>
					<g id="g151">
						<g id="g153">
						</g>
						<g id="g165">
							<g>
								<defs>
									<rect id="SVGID_00000086666361937477785720000009959823263275454862_" x="-53.8" y="12.9" width="56.2" height="57.2"/>
								</defs>
								<clipPath id="SVGID_00000141421134749221224310000011791341782775304076_">
									<use xlink:href="#SVGID_00000086666361937477785720000009959823263275454862_"  style="overflow:visible;"/>
								</clipPath>
								<g id="g163" style="opacity:0.5;clip-path:url(#SVGID_00000141421134749221224310000011791341782775304076_);">
									<g id="g161" transform="translate(411.4904,389.0993)">
										<path id="path159" class="st3" d="M-358.9-333.4l0.3-9.9l-4.4,0.4l-35-81.5c-19.6-6-37.8-6.9-43.7,6.5
											c-14.9,33.6,1,55.3,1,55.3c-44-4.5-64.4,8-72.7,16c-5.9,28.8-2,59.7-2,59.7l12.4,4.1l65.3-0.9l-0.9,8.7l19.2,8.7
											l-3.9-43.6l26.8-12.9l37.3,3.1l0.2-6.3l1.5-4L-358.9-333.4z"/>
									</g>
								</g>
							</g>
						</g>
					</g>
					<g id="g167" transform="translate(395.4335,389.8534)">
						<path id="path169" class="st1" d="M-388.4-332c0,0-1-7-7.3-12.3c-1.3-1.1-2.7-2.1-4.5-2.9c-2.3-1.1-5-2-8.3-2.4
							c-10.3-1.3-14.9,6.3-16.9,12.9c0.5,2.7,0.5,4.7,0.5,4.7l-3.3,22.7l-6.5,45.2c0,0,13.2,15.8,35.4,8.4c2.8-0.9,5.7-2.2,8.8-4
							l1.2-44.1l0.1-4.5L-388.4-332z"/>
					</g>
					<g id="g171" transform="translate(367.2406,383.9792)">
						<path id="path173" class="st1" d="M-440.1-342.8c-2.3-1.1-5.4-1.8-9.8-1.8c-16.3,0-16.3,10.2-21.4,62.8
							c0,0,3.1,16.3,20.5,15.2c2.5-0.1,5.3-0.7,8.4-1.6l8.5-65.8C-433.9-334.1-433.8-339.8-440.1-342.8"/>
					</g>
					<g id="g175" transform="translate(382.5363,389.8965)">
						<path id="path177" class="st1" d="M-412-332c0,0,0.1-8.8-4.7-14.7c-2-2.4-4.7-4.3-8.6-4.9c-12.3-2.1-20.1,1.4-23.9,11.6
							l-8.5,65.8c0,0,7.9,16.8,27.4,13c2.6-0.5,5.5-1.4,8.6-2.8L-412-332z"/>
					</g>
					<g id="g179">
						<g id="g181">
						</g>
						<g id="g193">
							<g>
								<defs>
									<rect id="SVGID_00000015351331892485805860000001598789592532540832_" x="-5.5" y="55.7" width="29.8" height="16.9"/>
								</defs>
								<clipPath id="SVGID_00000056420226535951961160000006939576448470102917_">
									<use xlink:href="#SVGID_00000015351331892485805860000001598789592532540832_"  style="overflow:visible;"/>
								</clipPath>
								<g id="g191" style="opacity:0.5;clip-path:url(#SVGID_00000056420226535951961160000006939576448470102917_);">
									<g id="g189" transform="translate(411.1386,396.9052)">
										<path id="path187" class="st3" d="M-359.6-319.1c0,0-2.6-5-7.3-11.6c-5.8-8.1-14.8-18.5-26-24.9
											c-4.2,1.6-8.3,5.3-11.8,12.4c-0.8-2.3-2.5-6-5.9-9.2c-0.9-0.9-2-1.7-3.2-2.4c-0.7,0.1-1.4,0.3-2.1,0.5
											c-2.3-1.1-5-2-8.3-2.4c-10.3-1.3-14.9,6.3-16.9,12.9c0.5,2.7,0.5,4.7,0.5,4.7l-3.3,22.7c0.5,1.7,1,3.2,1.5,4.3
											c0.9,2.1,3.1,3.3,5.5,3.1c10.5-1.1,19.5-1.6,27.4-1.9c0.7,0,1.4,0,2,0c0.9,0,1.8,0,2.6,0c16.4-0.2,27,1.1,34.2,1.3
											c0.8,0,1.6,0,2.3-0.1c7.5-0.8,8.6-6.8,8.8-8.9C-359.6-318.8-359.6-319.1-359.6-319.1"/>
									</g>
								</g>
							</g>
						</g>
					</g>
					<g id="g195">
						<g id="g197">
						</g>
						<g id="g209">
							<g>
								<defs>
									<rect id="SVGID_00000116223794179516765920000012676460344136683149_" x="-41.9" y="70.9" width="6.5" height="30.1"/>
								</defs>
								<clipPath id="SVGID_00000105388305451441751470000017274524050221085873_">
									<use xlink:href="#SVGID_00000116223794179516765920000012676460344136683149_"  style="overflow:visible;"/>
								</clipPath>
								<g id="g207" style="opacity:0.5;clip-path:url(#SVGID_00000105388305451441751470000017274524050221085873_);">
									<g id="g205" transform="translate(382.5363,389.8965)">
										<path id="path203" class="st3" d="M-412-332c0,0,0.1-8.8-4.7-14.7l-13.6,85.4c2.6-0.5,5.5-1.4,8.6-2.8L-412-332z"/>
									</g>
								</g>
							</g>
						</g>
					</g>
					<g id="g211">
						<g id="g213">
						</g>
						<g id="g225">
							<g>
								<defs>
									<rect id="SVGID_00000041996774447588299140000001686941355274925983_" x="-78.1" y="65.8" width="5.9" height="26.9"/>
								</defs>
								<clipPath id="SVGID_00000034768812954055364160000000272341827164443050_">
									<use xlink:href="#SVGID_00000041996774447588299140000001686941355274925983_"  style="overflow:visible;"/>
								</clipPath>
								<g id="g223" style="opacity:0.5;clip-path:url(#SVGID_00000034768812954055364160000000272341827164443050_);">
									<g id="g221" transform="translate(367.2406,383.9792)">
										<path id="path219" class="st3" d="M-440.1-342.8l-10.7,76.1c2.5-0.1,5.3-0.7,8.4-1.6l8.5-65.8
											C-433.9-334.1-433.8-339.8-440.1-342.8"/>
									</g>
								</g>
							</g>
						</g>
					</g>
					<g id="g227">
						<g id="g229">
						</g>
						<g id="g241">
							<g>
								<defs>
									<rect id="SVGID_00000146476562859335250090000008947426716870101130_" x="-0.3" y="74.3" width="3.8" height="31.3"/>
								</defs>
								<clipPath id="SVGID_00000065048022087042256200000015870851161941290662_">
									<use xlink:href="#SVGID_00000146476562859335250090000008947426716870101130_"  style="overflow:visible;"/>
								</clipPath>
								<g id="g239" style="opacity:0.5;clip-path:url(#SVGID_00000065048022087042256200000015870851161941290662_);">
									<g id="g237" transform="translate(395.4335,389.8534)">
										<path id="path235" class="st3" d="M-388.4-332c0,0-1-7-7.3-12.3l-3.6,88.7c2.8-0.9,5.7-2.2,8.8-4L-388.4-332z"/>
									</g>
								</g>
							</g>
						</g>
					</g>
					<g id="g243" transform="translate(416.9481,382.78)">
						<path id="path245" class="st1" d="M-348.9-345l-38.4-56.8v-83.5H-449v103.1c4.1,32.2,37,40.4,37,40.4
							c-2.7,0.2-5.2,0.6-7.6,1.1c-0.7,0.1-1.4,0.3-2.1,0.5c-24.3,6.3-24.7,26.3-23.4,36c0.4,3,3.2,5.1,6.1,4.7
							c10.3-1.4,19.9-1.8,28.4-1.7c14.2,0.2,25.4,1.9,32.4,3.3c4.8,1,9.7-1.2,12.2-5.4l0.6-1l16.9-28.5
							C-346.3-336.6-346.5-341.4-348.9-345"/>
					</g>
					<g id="g299" transform="translate(150.5032,241.0014)">
						<path id="path301" class="st1" d="M-837.7-605.1v-40.7h-81.9c0,0-6.7-11-30.8-31c-8.2-6.8-19.1-11.2-30.5-14
							c-30.5-7.3-65.2-3-65.2-3l-4.1,12.4l0.9,65.3l-8.8-0.9l-6.7,14.5l-13.7,29.6l-8.6,8.8c0,0-1,13.9,20.7,21.4c0,0,15,3,34.5,3.8
							c5.8,0.2,12,0.2,18.3-0.1c1,0,2-0.1,2.9-0.2l8.6,3.3l10-4.2l30-12.6L-837.7-605.1z"/>
					</g>
					<g id="g303">
						<g id="g305">
						</g>
						<g id="g317">
							<g>
								<defs>
									<rect id="SVGID_00000016061990455570738110000013262749872176303021_" x="-898.3" y="-402.6" width="41.9" height="56.2"/>
								</defs>
								<clipPath id="SVGID_00000088842698763951532820000003001632492213088901_">
									<use xlink:href="#SVGID_00000016061990455570738110000013262749872176303021_"  style="overflow:visible;"/>
								</clipPath>
								<g id="g315" style="opacity:0.5;clip-path:url(#SVGID_00000088842698763951532820000003001632492213088901_);">
									<g id="g313" transform="translate(100.013,210.7618)">
										<path id="path311" class="st3" d="M-930.4-660.6c-30.5-7.3-65.2-3-65.2-3l-4.1,12.4l0.9,65.3l-8.8-0.9l-6.7,14.5
											l-13.7,29.6l-8.6,8.8c0,0-1,13.9,20.7,21.4c0,0,15,3,34.5,3.8c5.8,0.2,12,0.2,18.3-0.1c1,0,2-0.1,2.9-0.2l8.7,3.3l10-4.2
											c5.9-12.9,12.9-33.9,19.5-67.6C-912-629-922.4-651.4-930.4-660.6"/>
									</g>
								</g>
							</g>
						</g>
					</g>
					<g id="g319" transform="translate(65.208,245.8293)">
						<path id="path321" class="st1" d="M-994.2-596.3l61.7,6.8c9.1,2.9,14.2,8.7,12,21.6c-1.8,10.3-9,14.3-14.4,15.8
							c-1.1,0.3-2.2,0.4-3.3,0.3c-18.8-1.4-43.3-3.9-50.8-5.4c-11.9-2.3-17.4-10.2-16.1-22.1C-1003.8-591.2-994.2-596.3-994.2-596.3
							"/>
					</g>
					<g id="g323" transform="translate(94.0384,235.8956)">
						<path id="path325" class="st1" d="M-941.3-614.5c-2,0.2-3.3,0.2-3.3,0.2l-69.2-9.7c0,0-19.1,10.5-12.1,31.3
							c0.7,2,1.6,4.1,2.8,6.3l71.9,7.9c1.9,0.2,3.8,0,5.6-0.6c2.7-0.9,5.5-2.3,7.8-4.7c2.1-2.1,3.7-4.9,4.4-8.7
							C-931.3-602.7-932.9-609.3-941.3-614.5"/>
					</g>
					<g id="g327" transform="translate(99.5534,217.2391)">
						<path id="path329" class="st1" d="M-931.2-648.7c0-16.3-10.4-16.3-63.9-21.4c0,0-17.5,3.3-15.4,21.8c0.2,2.1,0.8,4.5,1.6,7
							l67,8.5c0,0,5.2,0.2,8.4-5.3C-932.2-640.4-931.2-643.8-931.2-648.7"/>
					</g>
					<g id="g331" transform="translate(95.7762,222.8691)">
						<path id="path333" class="st1" d="M-938.2-638.4l-67-8.5c0,0-17.5,8-13.1,27.9c0.5,2.5,1.4,5.2,2.7,8.1l69.2,9.7
							c0,0,9.9,0.1,15.9-5.5c2-1.9,3.6-4.4,4.2-7.8C-924.2-626.8-927.8-634.7-938.2-638.4"/>
					</g>
					<g id="g335">
						<g id="g337">
						</g>
						<g id="g349">
							<g>
								<defs>
									<rect id="SVGID_00000119811116231594556810000010401341421296476804_" x="-903.3" y="-352.1" width="31.1" height="5.1"/>
								</defs>
								<clipPath id="SVGID_00000127757754317570762860000016799478088635551412_">
									<use xlink:href="#SVGID_00000119811116231594556810000010401341421296476804_"  style="overflow:visible;"/>
								</clipPath>
								<g id="g347" style="opacity:0.5;clip-path:url(#SVGID_00000127757754317570762860000016799478088635551412_);">
									<g id="g345" transform="translate(95.3094,246.7749)">
										<path id="path343" class="st3" d="M-939-594.5l-88.1-9c0.7,2,1.6,4.1,2.8,6.3l71.9,7.9c1.9,0.2,3.8,0,5.6-0.6
											C-944.1-590.7-941.3-592.2-939-594.5"/>
									</g>
								</g>
							</g>
						</g>
					</g>
					<g id="g351">
						<g id="g353">
						</g>
						<g id="g365">
							<g>
								<defs>
									<rect id="SVGID_00000035522962984300770170000002143411287826506386_" x="-894.1" y="-390.4" width="31" height="6.3"/>
								</defs>
								<clipPath id="SVGID_00000067223263235694864460000008794542601168580538_">
									<use xlink:href="#SVGID_00000035522962984300770170000002143411287826506386_"  style="overflow:visible;"/>
								</clipPath>
								<g id="g363" style="opacity:0.5;clip-path:url(#SVGID_00000067223263235694864460000008794542601168580538_);">
									<g id="g361" transform="translate(98.4619,234.0357)">
										<path id="path359" class="st3" d="M-933.2-617.9l-87.8-12.2c0.5,2.5,1.4,5.2,2.7,8.1l69.2,9.7
											C-949.1-612.4-939.2-612.3-933.2-617.9"/>
									</g>
								</g>
							</g>
						</g>
					</g>
					<g id="g367">
						<g id="g369">
						</g>
						<g id="g381">
							<g>
								<defs>
									<rect id="SVGID_00000049940381470714423510000004484242364445202849_" x="-886.1" y="-426" width="27.2" height="5.5"/>
								</defs>
								<clipPath id="SVGID_00000091702417982530911320000009401181628689120171_">
									<use xlink:href="#SVGID_00000049940381470714423510000004484242364445202849_"  style="overflow:visible;"/>
								</clipPath>
								<g id="g379" style="opacity:0.5;clip-path:url(#SVGID_00000091702417982530911320000009401181628689120171_);">
									<g id="g377" transform="translate(98.7348,220.9949)">
										<path id="path375" class="st3" d="M-932.7-641.8l-77-10.2c0.2,2.1,0.8,4.5,1.6,7l67,8.5
											C-941.1-636.5-935.9-636.3-932.7-641.8"/>
									</g>
								</g>
							</g>
						</g>
					</g>
					<g id="g383">
						<g id="g385">
						</g>
						<g id="g397">
							<g>
								<defs>
									<rect id="SVGID_00000126306876063032037580000017890331035073717893_" x="-850.5" y="-345.6" width="31.3" height="24.9"/>
								</defs>
								<clipPath id="SVGID_00000130607628085228586820000005280300159907021699_">
									<use xlink:href="#SVGID_00000126306876063032037580000017890331035073717893_"  style="overflow:visible;"/>
								</clipPath>
								<g id="g395" style="opacity:0.5;clip-path:url(#SVGID_00000130607628085228586820000005280300159907021699_);">
									<g id="g393" transform="translate(86.5724,257.1779)">
										<path id="path391" class="st3" d="M-955-575.4c0,0,4.2-39,37.5-50.2l40.4,4l-21.4,49.2c0,0-23.5,16-51.1,17.3
											c-5.5,0.3-11,0.3-16.1,0.1C-964.3-560.5-961.1-569.3-955-575.4"/>
									</g>
								</g>
							</g>
						</g>
					</g>
					<g id="g399" transform="translate(121.06,256.8578)">
						<path id="path401" class="st1" d="M-891.8-576l-55.1,37.2c-4.9,6.2-16,20.8-21.5,32.1c-5.1,10.6-9.5,28.9-11.5,38.3
							c-0.7,3.4-4.3,5.4-7.6,4.2c-9.3-3.3-25.6-12-26.7-33.4c-1.2-23.4,10.9-34.7,16.3-38.6c1.7-7.4,6.1-23.2,15.4-36.7
							c1.1-12.4,9-58.9,68.1-64.4c0.9-0.2,1.9-0.3,2.8-0.4h3.8c3.5-0.1,7.2-0.1,11,0h88.2v61.7H-891.8z"/>
					</g>
					<g id="g443" transform="translate(408.3887,265.8192)">
						<path id="path445" class="st1" d="M-364.6-559.6c-0.1-0.8-0.2-1.5-0.3-2.2c-1.6-8-7.6-14.5-14.6-19.6L-439-719.9h-40.7v80.4
							c0,0-11,6.6-31,30.2c-17.6,20.8-18.9,58.7-18,79.4l-43.2,85.6c-4.6,10.7,2.9,18.5,10.7,19.8c7.5,1.3,13-4.1,17.8-12l43.4-67.2
							c0.2-0.9,0.8-1.6,1.6-1.9c0.5-0.2,1-0.3,1.6-0.3c0.2,0,0.4,0.1,0.7,0.2c1.7-1.9,4.4-4.2,8.4-5.9l29-0.4
							c3.5,0.5,7.1,1.1,10.6,1.7l-0.7,6.9l44.1,20l8.8,8.5c0,0,13.9,1,21.4-20.4c0,0,3-14.6,3.8-33.7c0.1-0.4,0.1-0.8,0.2-1.2
							c1.1-5.9,2.6-12.7,5-20.3C-364.7-553.7-364.4-556.7-364.6-559.6"/>
					</g>
					<g id="g447">
						<g id="g449">
						</g>
						<g id="g461">
							<g>
								<defs>
									<rect id="SVGID_00000142895379670070692860000015262176464254422174_" x="-46.8" y="-289.3" width="47.3" height="41.8"/>
								</defs>
								<clipPath id="SVGID_00000164495731670443843580000011318789768120866709_">
									<use xlink:href="#SVGID_00000142895379670070692860000015262176464254422174_"  style="overflow:visible;"/>
								</clipPath>
								<g id="g459" style="opacity:0.5;clip-path:url(#SVGID_00000164495731670443843580000011318789768120866709_);">
									<g id="g457" transform="translate(408.3887,265.8192)">
										<path id="path455" class="st3" d="M-364.6-559.6c-18.8-10.4-54-29.4-67.4-32.8c-18.7-4.8-23.8,8.1-23.8,8.1
											c-16.6-10.2-35.3-4.1-38.7,13.9c-3.3,17.5-4,62.5-4.1,64.7c0.5-0.2,1-0.3,1.6-0.3c0.2,0,0.4,0.1,0.7,0.2
											c1.7-1.9,4.4-4.2,8.4-5.9l29-0.4c3.5,0.5,7.1,1.1,10.6,1.7l-0.7,6.9l44.1,20l8.8,8.5c0,0,13.9,1,21.4-20.4
											c0,0,3-14.6,3.8-33.7c0.1-0.4,0.1-0.8,0.2-1.2c1.1-5.9,2.6-12.7,5-20.3C-364.7-553.7-364.4-556.7-364.6-559.6"/>
									</g>
								</g>
							</g>
						</g>
					</g>
					<g id="g463" transform="translate(401.4854,291.2079)">
						<path id="path465" class="st1" d="M-377.3-513c-2.3,11.7-10.2,17-22.1,15.8c-12-1.3-17.1-10.7-17.1-10.7l8.7-77.1
							c0,0-0.1-0.9-0.6-2.4c13.6-27.6,36-4.7,37.3,2.4C-369.9-577.9-375-524.7-377.3-513"/>
					</g>
					<g id="g467" transform="translate(390.7161,265.8048)">
						<path id="path469" class="st1" d="M-397-559.6c0,0-2.3-15.3-20.1-17.6c-10.3-1.3-14.9,6.3-16.9,13c0.5,2.7,0.5,4.7,0.5,4.7
							l-9.7,67.9c0,0,10.4,18.6,31,11.9c2.1-0.7,4.3-1.6,6.6-2.9l8.6-76.9L-397-559.6z"/>
					</g>
					<g id="g471" transform="translate(377.8188,265.8479)">
						<path id="path473" class="st1" d="M-420.7-559.5c0,0,0.1-9.7-5.5-15.5c-1.9-2-4.4-3.6-7.9-4.1c-12.3-2.1-20.1,1.4-23.9,11.6
							l-10.1,62.1c0,0,9.6,20.8,30.6,16.3c2.2-0.5,4.5-1.2,7-2.3L-420.7-559.5z"/>
					</g>
					<g id="g475">
						<g id="g477">
						</g>
						<g id="g489">
							<g>
								<defs>
									<rect id="SVGID_00000015314224289050981490000001536237723577906573_" x="-54.2" y="-281.5" width="5.9" height="30.3"/>
								</defs>
								<clipPath id="SVGID_00000156585986550136016750000015623504539552419248_">
									<use xlink:href="#SVGID_00000015314224289050981490000001536237723577906573_"  style="overflow:visible;"/>
								</clipPath>
								<g id="g487" style="opacity:0.5;clip-path:url(#SVGID_00000156585986550136016750000015623504539552419248_);">
									<g id="g485" transform="translate(377.8188,265.8479)">
										<path id="path483" class="st3" d="M-420.7-559.5c0,0,0.1-9.7-5.5-15.5l-11.2,85.8c2.2-0.5,4.5-1.2,7-2.3L-420.7-559.5z"/>
									</g>
								</g>
							</g>
						</g>
					</g>
					<g id="g491">
						<g id="g493">
						</g>
						<g id="g505">
							<g>
								<defs>
									<rect id="SVGID_00000027577202682828480690000010451565957975545257_" x="-16.7" y="-269.4" width="5.4" height="29"/>
								</defs>
								<clipPath id="SVGID_00000120539902705138921430000015372965971953141676_">
									<use xlink:href="#SVGID_00000027577202682828480690000010451565957975545257_"  style="overflow:visible;"/>
								</clipPath>
								<g id="g503" style="opacity:0.5;clip-path:url(#SVGID_00000120539902705138921430000015372965971953141676_);">
									<g id="g501" transform="translate(390.7089,265.8694)">
										<path id="path499" class="st3" d="M-397.1-559.5l-4.7-2.4l-10.5,82.2c2.1-0.7,4.3-1.6,6.6-2.9L-397.1-559.5z"/>
									</g>
								</g>
							</g>
						</g>
					</g>
					<g id="g507">
						<g id="g509">
						</g>
						<g id="g521">
							<g>
								<defs>
									<rect id="SVGID_00000051374959601263155990000015509286574747612817_" x="-18.6" y="-333.5" width="32.5" height="36.1"/>
								</defs>
								<clipPath id="SVGID_00000181807234429253496480000014478575427319447442_">
									<use xlink:href="#SVGID_00000051374959601263155990000015509286574747612817_"  style="overflow:visible;"/>
								</clipPath>
								<g id="g519" style="opacity:0.5;clip-path:url(#SVGID_00000181807234429253496480000014478575427319447442_);">
									<g id="g517" transform="translate(408.2667,265.0436)">
										<path id="path515" class="st3" d="M-364.8-561c-25.6-32.4-86.8-106-91.5-50.6c-6.1,72.6,71.2,76.3,71.2,76.3
											c4.4,3.4,9.8,4.1,14.5,5.8c1.1-5.9,2.6-12.7,5-20.3C-364.3-553.7-364.1-557.5-364.8-561"/>
									</g>
								</g>
							</g>
						</g>
					</g>
					<g id="g523" transform="translate(438.4153,271.7841)">
						<path id="path525" class="st1" d="M-309.5-548.6c-5,9.8-16.6,21.7-35.3,21.7c-23.4,0-34.4-13.1-34.4-13.1s-16.5,0.6-33.3-9.2
							c0,0-73.3-1.4-73.3-73.6v-103.1h61.7v83.5l18.5,27.4c8.2,9.3,23.3,25.3,37.2,34c0,0,34.7,16.3,54.5,22.2
							C-309.5-557.5-307.5-552.6-309.5-548.6"/>
					</g>
					<g id="g527" transform="translate(286.1076,128.2918)">
						<path id="path529" class="st1" d="M-589-811.9c-0.4-4.5-4.6-7.7-9-6.9c-9.3,1.6-23.8,7.5-26.3,27.9c0,0-8.1,3.9-15.1,8.7
							c-1.7-8.3-4.6-15-7.4-20.1c-0.6-1-1.1-1.9-1.7-2.8c0.3-1.6,0.6-3.3,0.8-5.1c0.7-5.4,1.4-11.8,2.9-19.6
							c1-5.7,2.5-12.1,4.8-19.2c5.7-18-10.9-30.4-24.4-37.3c-1-6.7-1.9-12.7-2.5-17c-0.6-4.3-1-6.9-1-6.9l-21.7-50.6l-24.7-57.6
							h-40.7v80.4c0,0-11,6.6-31,30.2c-22.3,26.2-18.4,79.8-17.2,91.6l-17.8,95c-1.4,7.7,3.7,15.2,11.5,16.5
							c7.5,1.3,14.6-4,16.3-11.4l19-86c0.3-1.4,1.7-2.4,3.1-2.2c1.6,0.2,2.7,1.6,2.5,3.2l-12.8,119.7c-1.2,8.6,5,16.6,13.7,17.7
							c8.4,1,16-5.3,17.4-13.7l16.3-118.8c0.2-1.2,1.1-2.1,2.3-2.3c1.8-0.3,3.4,1.1,3.3,3l-4.8,141.3c-1.1,9.5,5.7,18.1,15.2,19.3
							c9.1,1.1,17.4-5,19.2-13.9l7.6-131.8c0.3-1.7,1.1-2.6,2-2.8c8.7,13.8,26.3,39.7,41.1,47.1c1.3,0.6,2.7,0.8,4.1,0.4
							c5.9-1.5,26.4-8.3,45.8-21c1.8-1.2,3-2.9,3.6-5C-592.6-770.2-587.1-792-589-811.9"/>
					</g>
					<g id="g531">
						<g id="g533">
						</g>
						<g id="g545">
							<g>
								<defs>
									<rect id="SVGID_00000014635270036658036310000017893786296756864405_" x="-416.2" y="-790.2" width="33.1" height="46.2"/>
								</defs>
								<clipPath id="SVGID_00000077313848283498911130000003060975848609145789_">
									<use xlink:href="#SVGID_00000014635270036658036310000017893786296756864405_"  style="overflow:visible;"/>
								</clipPath>
								<g id="g543" style="opacity:0.5;clip-path:url(#SVGID_00000077313848283498911130000003060975848609145789_);">
									<g id="g541" transform="translate(259.4442,102.0234)">
										<path id="path539" class="st3" d="M-637.9-860.1c-1-6.7-1.9-12.7-2.5-17c-0.7-4.3-1-6.9-1-6.9l-21.7-50.6
											c-19.6,1.1-35.5,11.4-40.6,38.6c-17.2,91.1,69.7,86.5,69.7,86.5c3.3,1.6,10.1,4,15.8,6c1-5.7,2.5-12.1,4.8-19.2
											C-607.7-840.8-624.3-853.2-637.9-860.1"/>
									</g>
								</g>
							</g>
						</g>
					</g>
					<g id="g547" transform="translate(285.8777,125.1537)">
						<path id="path549" class="st1" d="M-589.4-817.7c0,0-0.1-0.1-0.1-0.1c-11.5-13.6-20.5-40.7-23.3-49.7
							c-0.6-1.9-1.8-3.5-3.4-4.7c-13.1-9-26.9-23.6-34.7-32.4l-18.5-27.4v-83.5h-61.7v103.1c0,72.3,73.3,73.6,73.3,73.6
							c5.7,3.3,11.4,5.5,16.4,6.8c3.8,10.7,9.2,17.4,15.2,21.5c3.2,2.1,6.5,3.5,9.9,4.3c5.6-6.1,13-8.6,18.5-9.6
							c4-0.7,7.8,1.9,8.8,5.7C-587.5-812.2-587.4-815.3-589.4-817.7"/>
					</g>
					<g id="g551">
						<g id="g553">
						</g>
						<g id="g565">
							<g>
								<defs>
									<rect id="SVGID_00000108301647374614793870000001534382046045561245_" x="-460.1" y="-688.2" width="51.8" height="7.7"/>
								</defs>
								<clipPath id="SVGID_00000067196711203770132310000015459550056978297489_">
									<use xlink:href="#SVGID_00000108301647374614793870000001534382046045561245_"  style="overflow:visible;"/>
								</clipPath>
								<g id="g563" style="opacity:0.5;clip-path:url(#SVGID_00000067196711203770132310000015459550056978297489_);">
									<g id="g561" transform="translate(265.0742,130.6687)">
										<path id="path559" class="st3" d="M-627.6-807.5c0.3-1.6,0.6-3.3,0.8-5.1c-102.8,6.6-140.8-10.6-146-13.3
											c42.1,24.8,125.6,22.2,146.9,21.1C-626.4-805.7-627-806.7-627.6-807.5"/>
									</g>
								</g>
							</g>
						</g>
					</g>
					<g id="g567">
						<g id="g569">
						</g>
						<g id="g581">
							<g>
								<defs>
									<rect id="SVGID_00000181088293452067244930000017895921201443950246_" x="-327.9" y="-691.7" width="13.5" height="5.6"/>
								</defs>
								<clipPath id="SVGID_00000113323820058368964580000001474262225459769277_">
									<use xlink:href="#SVGID_00000181088293452067244930000017895921201443950246_"  style="overflow:visible;"/>
								</clipPath>
								<g id="g579" style="opacity:0.5;clip-path:url(#SVGID_00000113323820058368964580000001474262225459769277_);">
									<g id="g577" transform="translate(285.8777,125.1537)">
										<path id="path575" class="st3" d="M-589.4-817.7c0,0-0.1-0.1-0.1-0.1c-15.2-10.7-30.9,1.8-36.7,7.4
											c3.2,2.1,6.5,3.5,9.9,4.3c5.6-6.1,13-8.6,18.5-9.6c4-0.7,7.8,1.9,8.8,5.7C-587.5-812.2-587.4-815.3-589.4-817.7"/>
									</g>
								</g>
							</g>
						</g>
					</g>
					<g id="g583" transform="translate(117.5086,109.0537)">
						<path id="path585" class="st1" d="M-898.3-847.2l0.1-3.8l-3.1,0.3l-1.3,0.1l-1.5-3.4l-62.3-145.2h-40.7v80.4
							c0,0-11,6.6-31,30.2c-25.1,29.6-17,94-17,94l12.4,4.1l81.5-1.1l13.8-0.2l0.7,27.3l2.9,112.6c-0.1,11.1,8.9,20,19.9,20
							c10.5,0,19.2-8.1,19.8-18.6l4.6-159.1l0.7-24.3l1.6-4l-1.3-3.2L-898.3-847.2z"/>
					</g>
					<g id="g587">
						<g id="g589">
						</g>
						<g id="g601">
							<g>
								<defs>
									<rect id="SVGID_00000041274712309321627100000008175194762942603182_" x="-887.3" y="-727.7" width="56.2" height="37.7"/>
								</defs>
								<clipPath id="SVGID_00000005265316179619700710000004702579685968970665_">
									<use xlink:href="#SVGID_00000041274712309321627100000008175194762942603182_"  style="overflow:visible;"/>
								</clipPath>
								<g id="g599" style="opacity:0.5;clip-path:url(#SVGID_00000005265316179619700710000004702579685968970665_);">
									<g id="g597" transform="translate(117.918,112.3139)">
										<path id="path595" class="st3" d="M-897.5-841.2l-1.5,4l-0.2,6.3l-37.3-3.1l-1.4,0.7c-1.1,14.5-3.1,40.7-4.4,49.9
											c-1.7,12.9-4.1,13.6-4.1,13.6l-0.6,2l-0.7-27.3l-13.3,0.2l1.6,17.6l-19.2-8.7l0.9-8.7l-65.3,0.9l-12.4-4.1
											c0,0-3.9-30.9,2-59.7c8.3-8,28.7-20.5,72.7-16c0,0,47.5,8.5,75,13.3l2.7,6.4l4.4-0.4l-0.3,9.9L-897.5-841.2z"/>
									</g>
								</g>
							</g>
						</g>
					</g>
					<g id="g603" transform="translate(100.6657,137.5075)">
						<path id="path605" class="st1" d="M-929.2-795c-27.5,15.6-44.2-4.4-44.2-4.4l9.7-67.9c0,0,0-2-0.5-4.7c2-6.7,6.6-14.3,16.9-13
							c17.8,2.3,20.1,17.6,20.1,17.6L-929.2-795z"/>
					</g>
					<g id="g607" transform="translate(72.9787,105.9874)">
						<path id="path609" class="st1" d="M-980-852.8c-2.2-1-5.2-1.6-9.2-1.6c-16.3,0-16.3,10.2-21.4,62.8c0,0,3.4,17.6,22.5,15
							c1.9-0.3,4-0.7,6.3-1.4l8.5-65.8C-973.2-843.9-973-849.9-980-852.8"/>
					</g>
					<g id="g611" transform="translate(88.4898,111.9979)">
						<path id="path613" class="st1" d="M-951.5-841.8c0,0,0.1-9.4-5.3-15.3c-1.9-2.1-4.5-3.7-8.1-4.3c-12.3-2.1-20.1,1.4-23.8,11.6
							l-8.5,65.8c0,0,8.3,17.7,28.9,12.6c2.2-0.5,4.6-1.3,7.1-2.5L-951.5-841.8z"/>
					</g>
					<g id="g615">
						<g id="g617">
						</g>
						<g id="g629">
							<g>
								<defs>
									<rect id="SVGID_00000142165875588246189870000003406013327929998780_" x="-840.9" y="-769.7" width="32" height="36"/>
								</defs>
								<clipPath id="SVGID_00000103953581223660555390000013830564746474670983_">
									<use xlink:href="#SVGID_00000142165875588246189870000003406013327929998780_"  style="overflow:visible;"/>
								</clipPath>
								<g id="g627" style="opacity:0.5;clip-path:url(#SVGID_00000103953581223660555390000013830564746474670983_);">
									<g id="g625" transform="translate(117.444,111.2008)">
										<path id="path623" class="st3" d="M-898.4-843.3l0.2-6.1c-1-1.2-2-2.3-3-3.6c-0.9-1.1-1.8-2.2-2.8-3.3
											c-29.7-35-79.1-86.5-83.3-37.7c-6.3,72.6,73.2,76.3,73.2,76.3c4.5,3.4,9.9,4.1,14.7,5.8l0.7-24.3l1.6-4L-898.4-843.3z"/>
									</g>
								</g>
							</g>
						</g>
					</g>
					<g id="g631" transform="translate(149.761,117.9342)">
						<path id="path633" class="st1" d="M-839.1-830.9c-5,9.8-16.6,21.7-35.3,21.7c-23.4,0-34.4-13.1-34.4-13.1s-16.5,0.6-33.3-9.2
							c0,0-73.3-1.4-73.3-73.6v-103.1h61.7v83.5l18.5,27.4c8.2,9.3,23.3,25.3,37.2,34c0,0,34.7,16.3,54.6,22.2
							C-839.1-839.8-837.1-834.9-839.1-830.9"/>
					</g>
					<g id="g635">
						<g id="g637">
						</g>
						<g id="g649">
							<g>
								<defs>
									<rect id="SVGID_00000036949057294867236680000011777563196290907803_" x="-874.4" y="-717.4" width="5.9" height="30.2"/>
								</defs>
								<clipPath id="SVGID_00000103257938654626868220000000971753022505912221_">
									<use xlink:href="#SVGID_00000036949057294867236680000011777563196290907803_"  style="overflow:visible;"/>
								</clipPath>
								<g id="g647" style="opacity:0.5;clip-path:url(#SVGID_00000103257938654626868220000000971753022505912221_);">
									<g id="g645" transform="translate(88.4898,111.9979)">
										<path id="path643" class="st3" d="M-951.5-841.8c0,0,0.1-9.4-5.3-15.3l-11.5,85.7c2.2-0.5,4.6-1.3,7.1-2.5L-951.5-841.8z"
											/>
									</g>
								</g>
							</g>
						</g>
					</g>
					<g id="g651">
						<g id="g653">
						</g>
						<g id="g665">
							<g>
								<defs>
									<rect id="SVGID_00000003822797974167139180000011277530989180674964_" x="-910.2" y="-722.2" width="5.2" height="26.9"/>
								</defs>
								<clipPath id="SVGID_00000088102649521512469760000006492935200148526239_">
									<use xlink:href="#SVGID_00000003822797974167139180000011277530989180674964_"  style="overflow:visible;"/>
								</clipPath>
								<g id="g663" style="opacity:0.5;clip-path:url(#SVGID_00000088102649521512469760000006492935200148526239_);">
									<g id="g661" transform="translate(72.9787,105.9874)">
										<path id="path659" class="st3" d="M-980-852.8l-8,76.2c1.9-0.3,4-0.7,6.3-1.4l8.5-65.8C-973.2-843.9-973-849.9-980-852.8"
											/>
									</g>
								</g>
							</g>
						</g>
					</g>
					<g id="g667" transform="translate(411.6621,104.2854)">
						<path id="path669" class="st1" d="M-358.6-855.9l-59.4-138.6h-40.8v80.4c0,0-11,6.6-31,30.2c-17.8,20.9-18.9,59.3-18,79.9
							l-17.4,102.6c-2,12.3,4.4,19.3,12.2,20.6c7.5,1.3,13.6-3.6,16.3-12.7l18.5-81.2l0.7-2.9c0.3-1.4,1.7-2.4,3.1-2.2
							c0.2,0,0.4,0.1,0.6,0.2c1.7-1.9,2.9-4.8,6.9-6.5l29-0.4c3.5,0.5,7.1,1.1,10.6,1.7l-0.7,6.9l29.5,13.4l0.3,10.7l2.7,106.7
							c-0.1,11.1,8.9,20,19.9,20c10.5,0,19.2-8.1,19.9-18.6l3.9-136.1c0.8-5.8,1.5-13.3,1.9-21.7c0.3-1.5,0.6-3.2,0.9-4.8v0
							c0.9-4.6,2.2-9.6,3.9-15.2c0.1-0.5,0.3-0.9,0.4-1.4C-340.5-838.4-348.6-848.7-358.6-855.9"/>
					</g>
					<g id="g671">
						<g id="g673">
						</g>
						<g id="g685">
							<g>
								<defs>
									<rect id="SVGID_00000110458558567736974330000001851422827920134292_" x="-37.2" y="-764.2" width="32.1" height="52.8"/>
								</defs>
								<clipPath id="SVGID_00000096032535024488831230000006361730713264360099_">
									<use xlink:href="#SVGID_00000110458558567736974330000001851422827920134292_"  style="overflow:visible;"/>
								</clipPath>
								<g id="g683" style="opacity:0.5;clip-path:url(#SVGID_00000096032535024488831230000006361730713264360099_);">
									<g id="g681" transform="translate(395.6339,115.3659)">
										<path id="path679" class="st3" d="M-388-835.6v57.4l-24-10.9l0.7-6.9c-3.5-0.6-7.1-1.2-10.6-1.7l-29,0.4
											c-4.1,1.7-5.3,4.5-6.9,6.5c-0.2-0.1-0.4-0.1-0.7-0.2c-1.5-0.2-2.8,0.8-3.1,2.2l-0.7,2.9c0.2-11.5,1.1-51.1,4-67.9
											c3.4-19.7,21.9-26.4,38.5-15.2c0,0,1.6-4.4,6.2-7.4c-7.6-10.2-11.9-24.2-3.6-41.7c16.1-33.9,38.8,27.5,46.1,49.1l0,33.4
											H-388z"/>
									</g>
								</g>
							</g>
						</g>
					</g>
					<g id="g687">
						<g id="g689">
						</g>
						<g id="g701">
							<g>
								<defs>
									<rect id="SVGID_00000124847644213886536950000014417558730767089815_" x="10.3" y="-711.7" width="4.9" height="30.1"/>
								</defs>
								<clipPath id="SVGID_00000156561008885643618210000007187190533432901296_">
									<use xlink:href="#SVGID_00000124847644213886536950000014417558730767089815_"  style="overflow:visible;"/>
								</clipPath>
								<g id="g699" style="opacity:0.5;clip-path:url(#SVGID_00000156561008885643618210000007187190533432901296_);">
									<g id="g697" transform="translate(397.0558,108.7521)">
										<path id="path695" class="st3" d="M-385.4-847.8c-0.6,0.3-1,0.7-1,0.7l-4.3,74.9l-0.5,9.5c2.4-0.9,4.8-2,7.3-3.4
											c0,0,0,0,0.1-0.1v0c0.6-1.6,5.7-15.7,6.4-51.7C-376.9-848.9-383-848.9-385.4-847.8"/>
									</g>
								</g>
							</g>
						</g>
					</g>
					<g id="g703" transform="translate(398.5422,111.9548)">
						<path id="path705" class="st1" d="M-382.7-841.9c0,0-0.7-4.6-4.2-9.1c-2-2.6-4.9-5.1-9.2-6.8c-2-0.8-4.2-1.4-6.7-1.7
							c-0.9-0.1-1.8-0.2-2.6-0.1c-0.2,0-0.3,0-0.5,0c-8.2,0.4-12,7.1-13.9,13.1c0.5,2.7,0.5,4.7,0.5,4.7l-3.7,26.1l-3.1,21.4
							l-2.9,20.4c0,0,13.2,16.5,36.2,7.9c2.4-0.9,4.8-2,7.4-3.4l0-0.8l1.8-41.6L-382.7-841.9z"/>
					</g>
					<g id="g707" transform="translate(385.645,111.9979)">
						<path id="path709" class="st1" d="M-406.3-841.8c0,0,0.1-9.1-4.9-15c-1.9-2.3-4.6-4.1-8.4-4.7c-12.3-2.1-20.1,1.4-23.8,11.6
							l-8.5,65.8c0,0,8.5,18.2,29.9,12.4c1.9-0.5,4-1.3,6.1-2.2L-406.3-841.8z"/>
					</g>
					<g id="g711">
						<g id="g713">
						</g>
						<g id="g725">
							<g>
								<defs>
									<rect id="SVGID_00000091734338534086942680000017643318393007569332_" x="5" y="-731.7" width="32.1" height="17.6"/>
								</defs>
								<clipPath id="SVGID_00000109730707607913674850000017382077366594778758_">
									<use xlink:href="#SVGID_00000091734338534086942680000017643318393007569332_"  style="overflow:visible;"/>
								</clipPath>
								<g id="g723" style="opacity:0.5;clip-path:url(#SVGID_00000109730707607913674850000017382077366594778758_);">
									<g id="g721" transform="translate(416.3944,115.6818)">
										<path id="path719" class="st3" d="M-349.9-835c0-2.9-0.3-5.7-1-7.9c-2.5-8.8-9.4-16.3-18-19.4c-2.8-1-5.9-1.6-8.9-1
											c-4.8,1-9.1,4.3-13.7,6c-4.5,1.7-6.5,5.1-8.9,9.2c-1.5-3.4-3.3-6.5-6.2-9.1c-1.9-1.6-4.3-3.2-7.3-4.3
											c-2.1-0.8-4.4-1.4-7.1-1.7c-0.8-0.1-1.5-0.1-2.2-0.1c-0.2,0-0.3,0-0.5,0c-8.2,0.4-12,7.1-13.9,13.1
											c0.5,2.7,0.5,4.7,0.5,4.7l-3.7,26.1c0.4,1,0.7,1.9,1.1,2.7c1,2.1,3.3,3.3,5.7,3.1c11-1.1,20.4-1.6,28.6-1.9
											c0.7,0,1.4,0,2.1,0c0.6,0,1.3,0,1.9,0c17.6-0.2,29,1.1,36.6,1.3c0.9,0,1.7,0,2.4-0.1c3.8-0.4,6.6-2.5,8.6-5.5v0
											C-352.9-824.5-351.6-829.5-349.9-835"/>
									</g>
								</g>
							</g>
						</g>
					</g>
					<g id="g727">
						<g id="g729">
						</g>
						<g id="g741">
							<g>
								<defs>
									<rect id="SVGID_00000111907045151052847000000005147955318461233588_" x="-31.4" y="-717.2" width="5.6" height="30"/>
								</defs>
								<clipPath id="SVGID_00000103975593805856139390000011360100817021077939_">
									<use xlink:href="#SVGID_00000111907045151052847000000005147955318461233588_"  style="overflow:visible;"/>
								</clipPath>
								<g id="g739" style="opacity:0.5;clip-path:url(#SVGID_00000103975593805856139390000011360100817021077939_);">
									<g id="g737" transform="translate(385.645,111.9979)">
										<path id="path735" class="st3" d="M-406.3-841.8c0,0,0.1-9.1-4.9-15l-10.9,85.1c1.9-0.5,4-1.3,6.1-2.2L-406.3-841.8z"/>
									</g>
								</g>
							</g>
						</g>
					</g>
					<g id="g743" transform="translate(384.7366,91.788)">
						<path id="path745" class="st1" d="M-408-878.9V-982h61.7v83.5l38.4,56.8c2.5,3.7,2.6,8.4,0.4,12.2L-325-800
							c-2.5,4.2-7.4,6.4-12.2,5.4c-11.1-2.2-33.2-5.2-60.7-1.6c-3,0.4-5.7-1.7-6.2-4.7c-1.5-10.9-0.8-34.5,33-37.7
							C-371-838.5-403.9-846.6-408-878.9"/>
					</g>
				</g>
			</g>
			<g id="g3569" transform="matrix(-0.0012783,-4.3140151,4.3140151,-0.0012783,-1576.2262,3131.0623)">
				<g id="g27" transform="translate(662.81722,566.38429)">
					<path id="path29" class="st28" d="M127.5,110.3L58.3-51.1l-40.7,0l0,80.4c0,0-11,6.6-31,30.2c-12.4,14.6-16.7,37.6-17.9,57.2v0
						c-1.2,20.2,0.9,36.8,0.9,36.8l12.4,4.1l26.7-0.4l38.6-0.5l-0.9,8.7l44.1,20l5.8,5.6l3.1,2.9c0,0,13.9,1,21.4-20.4
						c0,0,5.1-24.8,3.7-51.9c0-1-0.1-1.9-0.2-2.9l2.2-5.6L127.5,110.3z"/>
				</g>
				<g id="g31" transform="translate(392.33762,300.22049)">
					<g id="g33">
					</g>
					<g id="g45">
						<g>
							<defs>
								<rect id="SVGID_00000052805616513208178370000007300030048904127653_" x="195" y="238" width="246.9" height="242.3"/>
							</defs>
							<clipPath id="SVGID_00000074424061294326519820000013955359155288160654_">
								<use xlink:href="#SVGID_00000052805616513208178370000007300030048904127653_"  style="overflow:visible;"/>
							</clipPath>
							<g id="g43" style="opacity:0.5;clip-path:url(#SVGID_00000074424061294326519820000013955359155288160654_);">
								<g id="g41" transform="translate(270.0036,265.0508)">
									<path id="path39" class="st3" d="M126.6,108.2l0.3-9.9l-4.4,0.4l-35-81.5c-19.6-6-37.8-6.9-43.7,6.5
										c-14.9,33.6,1,55.3,1,55.3c-44-4.5-64.4,8-72.7,16c-5.9,28.8-2,59.7-2,59.7l12.4,4.1l65.3-0.9l-0.9,8.7l19.2,8.7l-3.9-43.6
										l26.8-12.9l37.3,3.1l0.2-6.3l1.5-4L126.6,108.2z"/>
								</g>
							</g>
						</g>
					</g>
				</g>
				<g id="g47" transform="translate(392.33762,300.22049)">
					<g id="g49">
					</g>
					<g id="g61">
						<g>
							<defs>
								<rect id="SVGID_00000030450206654098731760000002731472181203557298_" x="320.4" y="396.8" width="122.9" height="45.8"/>
							</defs>
							<clipPath id="SVGID_00000053528639123818936820000006279552474448218808_">
								<use xlink:href="#SVGID_00000030450206654098731760000002731472181203557298_"  style="overflow:visible;"/>
							</clipPath>
							<g id="g59" style="opacity:0.5;clip-path:url(#SVGID_00000053528639123818936820000006279552474448218808_);">
								<g id="g57" transform="translate(270.0847,267.1835)">
									<path id="path55" class="st3" d="M126.8,112.1l-14.9,0.7L96.7,190l3.1,2.9c0,0,13.9,1,21.4-20.4c0,0,5.1-24.8,3.7-51.9
										c0-1-0.1-1.9-0.2-2.9L126.8,112.1z"/>
								</g>
							</g>
						</g>
					</g>
				</g>
				<g id="g63" transform="translate(659.22672,569.57989)">
					<path id="path65" class="st28" d="M120.9,116.1c-0.3,5.8-0.8,13.3-1.5,21.2c-1.4,16.5-3.4,34.5-4.6,40.7
						c-2.3,11.7-10.2,17.1-22.1,15.8c-11.9-1.3-17-10.7-17-10.7l5.3-47l3.4-30.1c0,0-0.1-0.9-0.6-2.4c3.5-7.1,7.5-10.8,11.6-12.4
						c12-4.5,24.7,9.6,25.6,14.8C121.1,107.6,121.1,111.2,120.9,116.1"/>
				</g>
				<g id="g67" transform="translate(645.09432,576.64609)">
					<path id="path69" class="st28" d="M95,129.1l-5.3,47c-2.7,1.5-5.3,2.5-7.7,3.2C62.2,184.9,52.1,167,52.1,167l9.7-67.9
						c0,0,0-2-0.5-4.7c2-6.7,6.6-14.3,16.9-13c6.3,0.8,10.6,3.2,13.6,6c3.4,3.2,5.1,6.9,5.9,9.2c0.5,1.4,0.6,2.4,0.6,2.4L95,129.1z"
						/>
				</g>
				<g id="g71" transform="translate(618.58892,560.41689)">
					<path id="path73" class="st28" d="M46.4,99.3c-2.4-1.5-5.9-2.6-11.2-2.6c-16.3,0-16.3,10.2-21.4,62.8c0,0,3.4,17.8,22.8,15
						c1.9-0.3,3.9-0.7,6-1.4l8.5-65.8C51.1,107.2,51.3,102.5,46.4,99.3"/>
				</g>
				<g id="g75" transform="translate(633.38912,566.06839)">
					<path id="path77" class="st28" d="M73.5,109.7c0,0,0.1-7.7-3.8-13.5c-2-2.9-5-5.4-9.5-6.2c-12.3-2.1-20.1,1.4-23.9,11.6
						l-8.5,65.8c0,0,7.9,16.9,27.5,12.9c2.6-0.5,5.4-1.4,8.5-2.8L73.5,109.7z"/>
				</g>
				<g id="g79" transform="translate(392.33762,300.22049)">
					<g id="g81">
					</g>
					<g id="g93">
						<g>
							<defs>
								<rect id="SVGID_00000021824500984517440290000017508862493518333844_" x="273.1" y="397.3" width="139.7" height="24.8"/>
							</defs>
							<clipPath id="SVGID_00000174570324675313512470000011589561912361022128_">
								<use xlink:href="#SVGID_00000021824500984517440290000017508862493518333844_"  style="overflow:visible;"/>
							</clipPath>
							<g id="g91" style="opacity:0.5;clip-path:url(#SVGID_00000174570324675313512470000011589561912361022128_);">
								<g id="g89" transform="translate(253.9488,265.8048)">
									<path id="path87" class="st3" d="M97.2,109.6c0,0-1-6.4-6.5-11.6l-9.8,91.8c2.4-0.7,5-1.7,7.7-3.2L97.2,109.6z"/>
								</g>
							</g>
						</g>
					</g>
				</g>
				<g id="g95" transform="translate(392.33762,300.22049)">
					<g id="g97">
					</g>
					<g id="g109">
						<g>
							<defs>
								<rect id="SVGID_00000137854000851983815980000014652994683424825734_" x="241.4" y="390.3" width="128.1" height="27.6"/>
							</defs>
							<clipPath id="SVGID_00000119111448674759835720000016047739100681015480_">
								<use xlink:href="#SVGID_00000137854000851983815980000014652994683424825734_"  style="overflow:visible;"/>
							</clipPath>
							<g id="g107" style="opacity:0.5;clip-path:url(#SVGID_00000119111448674759835720000016047739100681015480_);">
								<g id="g105" transform="translate(241.0515,265.8479)">
									<path id="path103" class="st3" d="M73.5,109.7c0,0,0.1-7.7-3.8-13.5l-14.3,84.2c2.6-0.5,5.4-1.4,8.5-2.8L73.5,109.7z"/>
								</g>
							</g>
						</g>
					</g>
				</g>
				<g id="g111" transform="translate(392.33762,300.22049)">
					<g id="g113">
					</g>
					<g id="g125">
						<g>
							<defs>
								<rect id="SVGID_00000143613641698052808370000016682222219646428348_" x="212.9" y="386" width="114.4" height="22.1"/>
							</defs>
							<clipPath id="SVGID_00000154389158559678928050000013408767244715260579_">
								<use xlink:href="#SVGID_00000143613641698052808370000016682222219646428348_"  style="overflow:visible;"/>
							</clipPath>
							<g id="g123" style="opacity:0.5;clip-path:url(#SVGID_00000154389158559678928050000013408767244715260579_);">
								<g id="g121" transform="translate(226.2513,260.1964)">
									<path id="path119" class="st3" d="M46.4,99.3l-9.8,75.2c1.9-0.3,3.9-0.7,6-1.4l8.5-65.8C51.1,107.2,51.3,102.5,46.4,99.3"
										/>
								</g>
							</g>
						</g>
					</g>
				</g>
				<path id="path145" class="st28" d="M704.3,618.5V515.3h61.7v83.5l38.4,56.8c2.5,3.7,2.6,8.4,0.4,12.2l-17.5,29.6
					c-2.5,4.2-7.4,6.4-12.2,5.4c-11.1-2.2-33.2-5.2-60.7-1.6c-3,0.4-5.7-1.7-6.2-4.7c-1.5-10.9-0.8-34.5,33-37.7
					C741.3,658.8,708.4,650.7,704.3,618.5"/>
				<g id="g141" transform="translate(392.33762,300.22049)">
					<g>
						<defs>
							<rect id="SVGID_00000045590174629883708130000009580644641796942770_" x="315.3" y="318.9" width="75.7" height="127.3"/>
						</defs>
						<clipPath id="SVGID_00000177443871566963152970000011833259206417983664_">
							<use xlink:href="#SVGID_00000045590174629883708130000009580644641796942770_"  style="overflow:visible;"/>
						</clipPath>
						<g id="g139" style="opacity:0.5;clip-path:url(#SVGID_00000177443871566963152970000011833259206417983664_);">
							<g id="g137" transform="translate(266.3577,276.8421)">
								<path id="path135" class="st3" d="M119.9,129.9c-0.7,0.1-1.4,0.1-2.3,0.1c-7.4-0.2-18.6-1.6-36.3-1.3c-0.7,0-1.3,0-2,0
									c-7.7,0.2-16.7,0.7-27,1.9c-2.3,0.2-4.5-1-5.4-3.1c-0.7-1.6-1.4-3.8-2-6.3l3.2-22.4c0,0,0-2-0.5-4.7c2-6.7,6.6-14.3,16.9-13
									c6.3,0.8,10.6,3.2,13.6,6c3.4,3.2,5.1,6.9,5.9,9.2c3.5-7.1,7.5-10.9,11.6-12.4c11.1,6.3,20,16.8,25.7,24.9
									c4.6,6.6,7.2,11.6,7.2,11.6S128.8,128.9,119.9,129.9"/>
							</g>
						</g>
					</g>
				</g>
			</g>
		</g>
	</g>
</g>
</svg>
