<?xml version="1.0" encoding="utf-8"?>
<!-- Generator: Adobe Illustrator 26.0.1, SVG Export Plug-In . SVG Version: 6.00 Build 0)  -->
<svg version="1.1" id="Layer_1" xmlns="http://www.w3.org/2000/svg" xmlns:xlink="http://www.w3.org/1999/xlink" x="0px" y="0px"
	 viewBox="0 0 1158.7 1205.3" style="enable-background:new 0 0 1158.7 1205.3;" xml:space="preserve">
<style type="text/css">
	.st0{fill:none;}
	.st1{fill:#FFFFFF;}
	.st2{fill:#B8C7E6;}
	.st3{fill:#303030;}
</style>
<g>
	<path class="st0" d="M229.9-21.3L229.9-21.3c-191.6,0-346.7,155.2-346.7,346.7c0,191.3,155.1,346.7,346.7,346.7c0,0,0,0,0.1,0
		c194.5,0,346.7-157.8,346.7-346.7C576.6,134,421.4-21.3,229.9-21.3z"/>
	<g>
		<path class="st1" d="M153.2,507.2c0,24.9,41.6,33.3,92.9,33.3s92.9-8.3,92.9-33.3c0-18.4-41.6-33.3-92.9-33.3
			C194.7,473.9,153.2,488.8,153.2,507.2z"/>
	</g>
	<g>
		<path class="st2" d="M161.9,497.8c0,16.2,37.9,21.6,84.6,21.6s84.6-5.4,84.6-21.6c0-11.9-37.9-21.6-84.6-21.6
			S161.9,485.9,161.9,497.8z"/>
	</g>
	<g>
		<g>
			<path class="st3" d="M163.6,495c3.6-3.5,7.8-6.1,11.2-8c6.9-4.1,11.2-6.2,10.8-7.3c-0.3-1-5.2-0.9-13.4,1.6
				c-4.1,1.4-9,3.3-14.2,7.1c-2.6,1.9-5.2,4.3-7.5,7.9c-1,1.7-1.9,4-2.3,6.2c-0.3,2.6-0.3,4.5,0,6.8c0.2,2.2,0.9,4.4,1.7,6.6
				c0.9,2.1,2.2,4.2,3.6,6.1c2.9,3.7,6.6,6.6,10.5,9c7.8,4.7,16.5,7.3,25.5,9.4c17.9,4,37.2,5.1,56.2,5.1c19,0,38.2-1.2,56.2-5.1
				c9-2.1,17.7-4.8,25.5-9.4c4-2.3,7.6-5.1,10.6-8.9c1.5-1.7,2.7-3.8,3.7-5.9c0.9-2.2,1.6-4.4,1.9-6.6c0.2-1.2,0.2-2.2,0.2-3.3
				c0.1-1-0.1-2.2-0.2-3.5c-0.5-2.3-1.3-4.5-2.3-6.3c-2.1-3.6-4.8-6.1-7.3-7.9c-5.2-3.8-10.1-5.7-14.2-7.1
				c-8.2-2.7-13.1-2.7-13.4-1.6c-0.3,1.2,4,3.4,10.8,7.3c3.4,2.1,7.6,4.5,11.2,8c1.7,1.7,3.4,3.7,4.3,5.8c0.9,2.1,0.9,3.8,0.3,6.6
				c-1,5-5.2,9.3-11.5,12.6c-6.3,3.3-14,5.5-22.3,7c-16.5,3-35.1,4-53.5,4s-36.9-0.9-53.5-4c-8.2-1.6-16-3.7-22.3-7
				c-6.3-3.3-10.5-7.6-11.4-12.6c-0.3-1.2-0.3-2.7-0.3-3.5c0.1-0.9,0.3-2,0.8-3C160.1,498.7,161.8,496.7,163.6,495z"/>
		</g>
	</g>
	<g>
		<path class="st1" d="M71.1,355.3c0,40.1,15.3,92.5,87.4,136.5l-17.2-199.1C141.4,292.6,71.1,315.1,71.1,355.3z"/>
	</g>
	<g>
		<g>
			<path class="st3" d="M80.7,346.9c0.7-3.3,2-6.3,3.7-9.1c3.4-5.7,7.9-10.6,12.5-14.7c9.2-8.2,18.2-13.6,25.1-17.9
				c14-8.5,20.3-12.5,19.5-14.8c-0.3-1.2-2.6-1.7-6.6-1.3s-10.1,1.9-18.3,4.9c-8,3.1-18.4,7.8-29.9,16.7
				c-5.7,4.4-11.8,10.1-16.9,18.2c-2.6,4-4.8,8.7-6.1,14c-0.6,2.7-1,5.5-1.2,8.3c0,0.7-0.1,1.5-0.1,2.1v1.9c0,1.3,0.1,2.4,0.1,3.7
				c0.3,10,1.9,20.4,4.2,30.4c2.4,10.1,6.2,19.9,10.5,29.2c9,18.5,21.2,34.4,33.6,46.1c12.4,11.9,24.7,19.7,33.4,24.9
				c9.1,4.8,14.7,6.9,15.3,5.9c0.7-1-3.7-5.2-11.3-11.5c-7.3-6.8-17.9-15.7-28.3-27.8c-10.5-12-20.5-27.3-27.7-44.3
				c-3.5-8.5-6.5-17.4-8.5-26.5c-2-9.1-3.1-18.3-3.5-27.2c0-1.2-0.1-2.2-0.1-3.3v-1.6c0-0.6,0-0.9,0-1.3
				C80.1,350.2,80.4,348.5,80.7,346.9z"/>
		</g>
	</g>
	<g>
		<path class="st1" d="M332.3,266c-23.2,3.7-38.8,25.9-30.2,79.1l83.8-13.6C377.4,278.3,355.5,262.3,332.3,266z"/>
	</g>
	<g>
		<g>
			<path class="st3" d="M387.6,308c-0.5-2.1-0.9-4.3-1.7-6.5c-2.7-9.1-7.1-19.6-15.3-29.4c-4.2-4.8-9.6-9.2-16-12.2
				c-6.4-3-14-4.3-21.2-3.5c-7.1,0.8-14.1,3.3-20,7.5s-10.3,10-13.1,15.8c-2.8,5.8-4.4,11.8-5.1,17.4c-0.2,1.4-0.5,2.8-0.6,4.1
				c-0.1,1.3-0.1,2.7-0.2,4c-0.2,2.6-0.1,5.1,0,7.5c0,1.2,0.1,2.3,0.1,3.5c0.1,1.2,0.2,2.2,0.3,3.3c0.2,2.1,0.5,4.2,0.8,6.1
				c0.7,3.7,1.3,7,2.2,9.6c1.6,5.2,3,8,4.2,7.8c1.2-0.2,1.7-3.4,2-8.6c0.1-2.7,0.3-5.8,0.3-9.4c0-1.7,0.2-3.7,0.3-5.7
				c0-1,0.1-2,0.1-3c0.1-1,0.2-2.1,0.3-3.1c0.2-2.1,0.3-4.4,0.8-6.6c0.1-1.2,0.3-2.3,0.6-3.5c0.2-1.2,0.6-2.3,0.8-3.5
				c1-4.7,2.7-9.3,4.9-13.5c2.3-4.2,5.4-7.9,9.2-10.5s8.6-4.2,13.4-4.8c4.8-0.6,9.6,0.2,13.9,2.1c4.4,1.9,8.4,4.9,11.9,8.4
				c6.9,7.2,11.7,16.1,15.1,24c0.9,2,1.7,3.8,2.4,5.7s1.5,3.6,2.1,5.2c1.2,3.4,2.4,6.3,3.3,8.7c1.9,4.9,3.4,7.7,4.5,7.6
				c1.2-0.2,1.6-3.4,1.5-8.7c0-2.7-0.6-5.9-1-9.8C388.6,312,388,310.1,387.6,308z"/>
		</g>
	</g>
	<g>
		<ellipse class="st1" cx="290.7" cy="308.6" rx="42.4" ry="73.2"/>
	</g>
	<g>
		<g>
			<path class="st3" d="M329.5,256.7c-0.5-1.5-1-3.1-1.6-4.8c-0.8-1.6-1.5-3.4-2.4-5.1c-1.9-3.6-4.7-7.2-8.3-10.6
				c-3.6-3.3-8.2-6.2-13.3-7.9c-5.1-1.7-10.7-2.4-16.3-2.1c-5.6,0.3-11.4,1.7-16.7,4.4c-5.2,2.8-9.7,6.8-13.2,11.1
				c-0.8,1.2-1.6,2.2-2.4,3.4c-0.8,1.2-1.4,2.3-2,3.5c-1.4,2.3-2.3,4.7-3.3,7c-3.7,9.3-4.9,18.3-5.4,25.9
				c-0.8,15.1,1.5,24.9,3.7,24.8c2.6,0,3.8-9.7,6.9-23.4c1.6-6.8,3.6-14.7,7.1-22c0.9-1.7,1.7-3.7,2.9-5.4c0.6-0.8,1-1.7,1.6-2.6
				l1.9-2.3c2.6-3,5.5-5.6,8.9-7.3c3.4-1.7,7.1-2.7,11-3c4-0.3,7.8,0,11.3,0.9c7,1.9,12.6,6.5,16.5,11.5c1,1.3,1.9,2.6,2.8,3.8
				c0.8,1.3,1.6,2.6,2.3,3.7c0.7,1.2,1.3,2.3,2,3.4c0.6,1,1.2,2.1,1.6,3c2,3.6,3.5,5.8,4.8,5.5c1.2-0.2,1.6-2.9,1.3-7.3
				c-0.1-1.2-0.3-2.3-0.5-3.7C330.2,259.7,329.8,258.2,329.5,256.7z"/>
		</g>
	</g>
	<g>
		<ellipse class="st1" cx="228" cy="289.3" rx="42.4" ry="73.2"/>
	</g>
	<g>
		<g>
			<path class="st3" d="M248.5,212.2c-5-3-11-4.8-16.9-5.2c-5.9-0.5-12.1,0-18.1,2.1c-5.9,2.1-11.3,5.7-15.5,10
				c-1,1.2-2.1,2.1-2.9,3.4c-0.8,1.2-1.7,2.3-2.6,3.5c-0.8,1.2-1.4,2.4-2.1,3.6c-0.7,1.2-1.4,2.4-1.9,3.6
				c-4.4,9.8-5.9,19.3-6.6,27.4c-1,16.1,1.3,26.5,3.5,26.5c2.6,0,3.8-10.4,7.1-24.8c1.7-7.2,4.1-15.5,8-23.1
				c4-7.7,10-13.9,17.6-16.5c3.7-1.4,8-1.7,12.2-1.6c4.2,0.2,8,1.3,11.4,3c6.9,3.4,11.8,9.9,15.3,16.1c3.5,6.2,5.6,12.1,7.3,16.2
				c1.6,4.1,3,6.5,4.3,6.4c1.2-0.1,1.9-2.9,1.9-7.6c-0.1-4.7-0.8-11.4-3.7-19.3c-1.4-4-3.5-8.2-6.5-12.2
				C257.6,219.2,253.6,215.1,248.5,212.2z"/>
		</g>
	</g>
	<g>
		<g>
			<ellipse class="st1" cx="160.6" cy="304" rx="42.4" ry="73.2"/>
		</g>
	</g>
	<g>
		<path class="st1" d="M245.9,266.4c-78.2,0-141.6,31.7-141.6,127.2c0,70.3,63.4,127.2,141.6,127.2c87.4,0,160.9-65.5,140.1-189.2
			C379.2,291.3,316,266.4,245.9,266.4z"/>
	</g>
	<g>
		<path class="st2" d="M117.5,345.8V308C107,315.7,86.9,340.8,117.5,345.8z"/>
	</g>
	<g>
		<g>
			<path class="st3" d="M176.8,225.5c-5.8-2.7-12.5-3.8-19.2-3.5c-6.8,0.2-14.2,2.3-20.4,6.6c-6.2,4.2-10.8,10.1-14.2,16.3
				c-3.5,6.2-5.5,12.6-7.1,19c-0.3,1.6-0.7,3.1-1.2,4.8c-0.2,1.6-0.6,3.1-0.8,4.7c-0.6,3.1-0.8,6.2-1.2,9.2
				c-1,12.1-0.9,23.1-0.6,32.5c0.8,18.9,3,31.2,5.4,31.2c2.4,0,3.7-12.5,5.4-31c0.8-9.2,1.6-20,3.1-31.1c0.5-2.8,0.8-5.6,1.4-8.4
				c0.2-1.4,0.6-2.8,0.8-4.2c0.3-1.4,0.7-2.8,1-4.1c1.5-5.5,3.4-11,6.1-15.6c2.6-4.8,5.8-8.7,9.8-11.7c3.8-2.9,8.4-4.3,13.3-4.8
				c4.9-0.5,9.7,0,13.6,1.5c4.1,1.4,7.7,3.7,10.6,6.5c5.8,5.6,9.3,12.4,11.8,16.9c1.3,2.3,2.2,4.2,3.1,5.5c0.8,1.3,1.6,1.9,2.2,1.7
				c0.6-0.1,0.9-1,1-2.6c0.1-1.5,0.1-3.8-0.5-6.6c-1-5.6-3.1-13.9-9.8-22.3C187.3,232,182.5,228,176.8,225.5z"/>
		</g>
	</g>
	<g>
		<g>
			<path class="st3" d="M366.3,444.5c-6.4,12.4-14.3,22.8-21.9,31c-7.6,8.4-15.1,14.1-20.2,18.5c-5.4,4.1-8.3,6.9-7.7,7.9
				c0.6,1,4.4,0.1,11-2.6c6.3-3.1,15.3-7.9,24.4-16.1c9.2-8,18.6-19,26.2-32.3c7.7-13.3,13.3-28.9,16.3-44.9s3.5-32.2,2.7-47.2
				c-0.7-7.5-1.2-14.7-2.4-21.4c-0.6-3.4-1.2-6.6-1.6-9.8c-0.6-3.3-1.5-6.4-2.3-9.3c-3.5-11.7-7.8-20.7-11.4-26.7
				c-3.6-6.1-6.5-9-7.6-8.4c-2.2,1.2,4.2,15.4,8.5,37.6c0.5,2.8,1,5.6,1.3,8.6c0.2,3,0.6,6.3,0.9,9.6c0.8,6.5,0.8,13.4,1.3,20.5
				c0.1,14.2-0.6,29.2-3.4,43.9C377.5,418.1,372.7,432.3,366.3,444.5z"/>
		</g>
	</g>
	<g>
		<g>
			<g>
				<path class="st3" d="M194.2,339.2c-4.8,0.2-5.4,31.6-1.9,62.6c1.7,15.5,4.5,31,7.8,42.3c3.3,11.4,6.8,18.6,9.1,18.1
					c2.3-0.6,2.3-8.4,1.5-19.9s-2.4-26.8-4.1-42.1C203.1,369.6,198.9,339,194.2,339.2z"/>
			</g>
		</g>
		<g>
			<g>
				<path class="st3" d="M252.3,462.3c9.6-0.2,6.8-123.3-2.8-123.1C240,339.4,242.8,462.5,252.3,462.3z"/>
			</g>
		</g>
		<g>
			<g>
				<path class="st3" d="M296,400.4c-1.4,15.3-2.9,30.4-3.7,41.9s-0.9,19.2,1.4,19.9c2.3,0.6,5.9-6.6,9.2-18.1
					c3.1-11.4,5.9-26.9,7.5-42.4c3.1-31.2,0.9-62.6-3.7-62.6C301.6,339.2,299.2,370,296,400.4z"/>
			</g>
		</g>
	</g>
</g>
<g>
	<g>
		<path class="st0" d="M943.1-33.3c-194.8,0-352.7,157.9-352.7,352.7C590.5,514,748.2,672,943.1,672c0,0,0,0,0.1,0
			c197.8,0,352.7-160.5,352.7-352.7C1295.9,124.7,1138-33.3,943.1-33.3L943.1-33.3z"/>
	</g>
	<g>
		<g>
			<g>
				<path class="st1" d="M853,504.4c0,25.4,42.3,33.9,94.5,33.9s94.5-8.4,94.5-33.9c0-18.7-42.3-33.9-94.5-33.9
					C895.4,470.5,853,485.6,853,504.4z"/>
			</g>
			<g>
				<ellipse class="st2" cx="947.6" cy="494.8" rx="86.4" ry="21.2"/>
			</g>
			<g>
				<g>
					<path class="st3" d="M863.7,491.9c3.7-3.6,7.9-6.2,11.4-8.2c7-4.1,11.4-6.3,11-7.5c-0.4-1.1-5.3-0.9-13.6,1.7
						c-4.1,1.4-9.1,3.3-14.5,7.2c-2.6,1.9-5.3,4.4-7.6,8.1c-1.1,1.8-1.9,4-2.4,6.3c-0.4,2.6-0.4,4.6,0,6.9c0.2,2.3,0.9,4.5,1.8,6.8
						c0.9,2.1,2.3,4.3,3.7,6.2c3,3.8,6.8,6.8,10.7,9.1c7.9,4.7,16.8,7.5,26,9.6c18.3,4,37.8,5.2,57.1,5.2c19.3,0,38.9-1.2,57.1-5.2
						c9.1-2.1,18-4.9,26-9.6c4-2.4,7.7-5.2,10.8-9c1.5-1.8,2.7-3.9,3.8-6c0.9-2.3,1.7-4.5,1.9-6.8c0.2-1.2,0.2-2.3,0.2-3.3
						c0.1-1.1-0.1-2.3-0.2-3.6c-0.5-2.4-1.3-4.6-2.4-6.4c-2.1-3.7-4.9-6.2-7.5-8.1c-5.3-3.9-10.3-5.8-14.5-7.2
						c-8.3-2.7-13.3-2.7-13.6-1.7c-0.4,1.2,4,3.4,11,7.5c3.4,2.1,7.7,4.6,11.4,8.2c1.8,1.8,3.4,3.8,4.4,5.9c0.9,2.1,0.9,3.9,0.4,6.8
						c-1.1,5.1-5.3,9.5-11.7,12.8s-14.2,5.6-22.6,7.1c-16.8,3.1-35.7,4-54.4,4s-37.6-0.9-54.4-4c-8.3-1.7-16.2-3.8-22.6-7.1
						c-6.4-3.3-10.7-7.7-11.6-12.8c-0.4-1.2-0.4-2.7-0.4-3.6c0.1-0.9,0.4-2,0.8-3.1C860.1,495.7,861.8,493.7,863.7,491.9z"/>
				</g>
			</g>
			<g>
				<path class="st1" d="M769.7,349.8c0,40.8,15.5,94.1,88.9,138.8L841.1,286C841.1,286,769.7,308.9,769.7,349.8z"/>
			</g>
			<g>
				<g>
					<path class="st3" d="M779.3,341.5c0.7-3.3,2-6.4,3.8-9.4c3.3-5.8,8.1-10.8,12.7-15.1c9.4-8.4,18.5-14,25.5-18.4
						c14.2-8.7,20.6-12.7,19.8-15.2c-0.4-1.2-2.6-1.8-6.8-1.3c-4.1,0.5-10.4,1.9-18.7,5c-8.3,3.2-18.8,7.9-30.6,17.1
						c-3,2.3-5.9,4.9-8.8,7.9c-3,3-5.8,6.6-8.3,10.7c-2.5,4.1-4.9,8.9-6,14.5c-0.6,2.7-1.1,5.6-1.1,8.5c-0.1,1.5,0,2.6,0,3.9
						c0,1.3,0.1,2.5,0.1,3.8c0.5,10.3,1.9,20.7,4.5,31.1c2.5,10.3,6.4,20.4,10.8,29.9c9.1,19,21.6,35.2,34.3,47.2
						c12.6,12.1,25.1,20.2,34,25.5c9.2,4.9,14.9,7.1,15.6,6c0.7-1.1-3.8-5.3-11.5-11.7c-7.5-6.9-18.3-16.1-28.8-28.6
						c-10.7-12.3-20.9-28-28.3-45.3c-3.6-8.8-6.8-17.8-8.7-27c-2-9.2-3.3-18.6-3.7-27.7c0-1.2-0.1-2.3-0.1-3.4c0-1.1-0.1-2.4,0-3.1
						C778.7,344.8,779.1,343.2,779.3,341.5z"/>
				</g>
			</g>
			<g>
				<path class="st1" d="M1035.4,259c-23.6,3.8-39.5,26.3-30.7,80.5l85.2-13.9C1081.1,271.4,1058.9,255.2,1035.4,259z"/>
			</g>
			<g>
				<g>
					<path class="st3" d="M1091.5,301.7c-0.5-2.1-0.9-4.4-1.8-6.6c-2.7-9.2-7.2-19.9-15.5-29.9c-4.3-4.9-9.7-9.4-16.2-12.4
						c-6.5-3.1-14.2-4.4-21.6-3.6c-7.2,0.8-14.3,3.3-20.4,7.6c-6,4.3-10.4,10.2-13.3,16.1c-2.8,5.9-4.5,12-5.2,17.7
						c-0.2,1.4-0.5,2.8-0.6,4.1c-0.1,1.3-0.1,2.7-0.2,4c-0.2,2.6-0.1,5.2,0,7.6c0,1.2,0.1,2.4,0.1,3.6c0.1,1.2,0.2,2.3,0.4,3.3
						c0.2,2.1,0.5,4.3,0.8,6.2c0.7,3.8,1.3,7.1,2.3,9.7c1.7,5.3,3.1,8.2,4.3,7.9c1.2-0.2,1.8-3.4,2-8.8c0.1-2.7,0.4-5.9,0.4-9.6
						c0-1.8,0.2-3.8,0.4-5.8c0-1.1,0.1-2,0.1-3.1c0.1-1.1,0.2-2.1,0.4-3.2c0.2-2.1,0.4-4.5,0.8-6.8c0.1-1.2,0.4-2.4,0.6-3.6
						c0.2-1.2,0.6-2.4,0.8-3.6c1.1-4.7,2.7-9.5,5-13.8c2.4-4.3,5.5-8.1,9.4-10.7c3.9-2.6,8.8-4.3,13.6-4.9c4.9-0.6,9.7,0.2,14.1,2.1
						c4.5,1.9,8.5,5,12.1,8.5c7,7.3,11.9,16.4,15.4,24.4c0.9,2,1.8,3.9,2.5,5.8c0.7,1.9,1.5,3.7,2.1,5.3c1.2,3.4,2.5,6.4,3.4,8.9
						c1.9,5,3.4,7.8,4.6,7.7c1.2-0.2,1.7-3.4,1.5-8.9c0-2.7-0.6-6-1.1-10C1092.5,305.8,1092,303.8,1091.5,301.7z"/>
				</g>
			</g>
			<g>
				<ellipse class="st1" cx="992.9" cy="302.3" rx="43.1" ry="74.4"/>
			</g>
			<g>
				<g>
					<path class="st3" d="M1021.7,231.6c-3.3-3.7-7.6-7.1-12.7-9.6c-5.1-2.5-11.1-3.9-17.1-3.8c-5.8,0-11.9,1.2-17.4,3.8
						c-5.6,2.6-10.4,6.5-14.2,10.9c-0.9,1.1-1.8,2.3-2.6,3.4l-1.2,1.8l-1.1,1.8c-0.7,1.2-1.3,2.4-2,3.6c-0.5,1.2-1.1,2.5-1.5,3.7
						c-4,9.7-5.3,19-5.9,26.8c-0.8,15.8,1.4,25.8,3.7,25.8c2.6,0,3.9-10.1,7.1-24.3c1.7-7,3.8-15.2,7.6-22.8
						c0.5-0.9,0.9-1.9,1.4-2.8c0.6-0.8,1.1-1.8,1.7-2.6l0.8-1.3l0.9-1.2c0.6-0.8,1.2-1.7,1.9-2.4c2.7-3.1,5.9-5.5,9.5-7.1
						c3.6-1.7,7.5-2.6,11.6-2.7c3.9-0.2,7.7,0.5,11.1,1.9c7,2.8,12.6,8.5,16.7,14c4,5.6,6.9,10.9,8.9,14.7c2.1,3.8,3.7,6,4.9,5.7
						c1.2-0.2,1.7-3,1.2-7.6c-0.5-4.6-1.9-11.1-5.7-18.5C1027.5,239.2,1024.9,235.3,1021.7,231.6z"/>
				</g>
			</g>
			<g>
				<path class="st1" d="M824.9,102c-32.4,10.2-20.2,64.7-12.1,112c11.7,68.5,19.9,132.8,19.9,132.8l67.1-59.3
					c0,0-14.6-43.3-29-100.2C860.9,148.6,850.4,94,824.9,102z"/>
			</g>
			<g>
				<path class="st1" d="M928,70.7c-35.2-1.8-34.7,53.8-36.4,103.6c-2.5,72.3-2.1,105.4-2.1,105.4L962,274c0,0-0.6-42-3.6-103
					C956.3,129.7,954.3,72.1,928,70.7z"/>
			</g>
			<g>
				<path class="st1" d="M947.5,259.4c-79.5,0-144,32.2-144,129.4c0,71.5,64.5,129.4,144,129.4c88.9,0,163.7-66.6,142.5-192.5
					C1083,284.7,1018.8,259.4,947.5,259.4z"/>
			</g>
			<g>
				<g>
					<path class="st3" d="M1070,440.6c-6.5,12.6-14.6,23.2-22.3,31.5c-7.7,8.5-15.4,14.3-20.5,18.8c-5.5,4.1-8.4,7-7.8,8.1
						c0.6,1.1,4.5,0.1,11.1-2.6c6.4-3.2,15.5-8.1,24.8-16.4c9.4-8.2,19-19.3,26.7-32.8c7.8-13.5,13.5-29.4,16.6-45.6
						c3.1-16.2,3.6-32.7,2.7-48c-0.7-7.6-1.2-14.9-2.5-21.8c-0.6-3.4-1.2-6.8-1.7-10c-0.6-3.3-1.5-6.5-2.4-9.5
						c-3.6-11.9-7.9-21.1-11.6-27.1c-3.7-6.2-6.6-9.1-7.7-8.5c-2.3,1.2,4.3,15.6,8.7,38.3c0.5,2.8,1.1,5.7,1.3,8.8
						c0.2,3.1,0.6,6.4,0.9,9.7c0.8,6.6,0.8,13.6,1.3,20.9c0.1,14.5-0.6,29.8-3.4,44.7C1081.3,413.7,1076.5,428.2,1070,440.6z"/>
				</g>
			</g>
			<g>
				<g>
					<g>
						<path class="st3" d="M894.9,333.4c-4.9,0.2-5.5,32.1-1.9,63.7c1.8,15.8,4.6,31.5,7.9,43c3.3,11.6,6.9,19,9.2,18.4
							c2.4-0.6,2.4-8.5,1.5-20.3c-0.8-11.7-2.5-27.3-4.1-42.8C903.9,364.4,899.6,333.2,894.9,333.4z"/>
					</g>
				</g>
				<g>
					<g>
						<path class="st3" d="M953.9,458.6c9.7-0.2,6.9-125.4-2.8-125.2C941.5,333.7,944.3,458.9,953.9,458.6z"/>
					</g>
				</g>
				<g>
					<g>
						<path class="st3" d="M998.5,395.7c-1.4,15.5-3,30.9-3.8,42.7c-0.8,11.7-0.9,19.6,1.4,20.3c2.4,0.6,6-6.8,9.4-18.4
							c3.2-11.6,6-27.4,7.6-43.1c3.2-31.8,0.9-63.7-3.8-63.7C1004.2,333.4,1001.6,364.7,998.5,395.7z"/>
					</g>
				</g>
			</g>
		</g>
		<g>
			<path class="st2" d="M833.7,346.6l-6.5-50.6C816.5,303.8,776,331.1,833.7,346.6z"/>
		</g>
		<g>
			<g>
				<path class="st3" d="M817.9,112.6c1.5-2,3.4-3.6,5.7-4.7c1.1-0.6,2.4-1.1,3.6-1.5c0.5-0.1,0.9-0.2,1.4-0.4
					c0.5,0,0.9-0.1,1.3-0.1c1.7,0,3.4,0.6,5.3,2c1.9,1.3,3.8,3.4,5.5,5.7c3.4,4.6,6.2,10.3,8.7,16c4.9,11.5,8.5,23.4,11.9,34.7
					c3.2,11.5,6.3,22.3,9.1,32.2c11.5,40.1,19.2,66.6,21.5,66.1c2.5-0.5-1.8-28.1-10.9-68.9c-2.3-10.2-4.7-21.1-7.6-32.8
					c-3-11.7-6.3-24.1-11.3-36.6c-2.6-6.3-5.5-12.7-9.8-19c-2.3-3.1-4.9-6.2-8.4-8.9c-3.6-2.6-8.3-4.7-13.5-4.9
					c-1.3-0.1-2.5,0.1-3.8,0.2c-1.2,0.2-2.4,0.5-3.6,0.8c-2,0.7-4,1.4-5.9,2.5c-3.9,2-7.5,5-10.2,8.3c-5.6,6.9-7.8,15.1-9.1,22.5
					c-1.2,7.6-1.3,14.9-0.9,22.2c0.4,7.2,1.1,14.2,2,21.1c1.9,13.9,4.5,27,6.9,39.8c0.4,1.7,0.5,3.2,1.1,5.1
					c0.4,1.5,0.7,3.1,1.1,4.6c0.7,3.1,1.4,6.2,2.1,9.2c1.4,6,2.7,12.1,4,17.8c2.6,11.6,5,22.6,7,32.7c4.1,20.3,7.3,37.2,9.4,49.1
					s2.8,18.7,4.1,18.7c1.2,0.1,2.5-7,2.3-19.3c-0.2-12.3-1.9-29.8-5-50.5c-1.5-10.3-3.3-21.6-5.6-33.3c-1.1-5.9-2.3-12-3.4-18.1
					c-0.6-3.1-1.3-6.2-1.9-9.4c-0.4-1.5-0.7-3.2-0.9-4.7c-0.4-1.3-0.5-3-0.8-4.5c-2-12.8-4.4-26.1-6-39.4
					c-0.8-6.6-1.5-13.3-1.8-19.9c-0.2-6.6-0.1-13.2,0.8-19.3C813,122.3,814.7,116.5,817.9,112.6z"/>
			</g>
		</g>
		<g>
			<g>
				<path class="st3" d="M958.5,97.4c-1.8-6.6-3.8-13.5-7.6-20.3c-1.9-3.3-4.1-6.6-7.3-9.7c-3.2-3-7.5-5.5-12.1-6.4
					c-1.2-0.2-2.4-0.4-3.4-0.5c-1.2-0.1-2.3-0.1-3.3,0c-2.1,0-4.3,0.5-6.4,1.1c-4.3,1.2-8.3,3.4-11.5,6.3
					c-6.4,5.8-9.8,12.8-12.3,19.6c-4.7,13.5-6.3,26.8-7.5,39.5c-1.1,12.7-1.3,24.9-1.5,36.3c-0.1,11.5-0.2,22.3-0.2,32.2
					c0.1,20,0.8,36.7,2,48.4c1.2,11.6,3.2,18.4,4.5,18.1c1.1-0.2,1.2-6.8,1.8-18.3c0.6-11.6,1.4-28.1,2.5-48
					c0.6-10,1.2-20.7,1.8-32.1c0.6-11.4,1.3-23.4,2.6-35.4s3.2-24.7,7.3-35.8c2.1-5.5,4.9-10.6,8.4-13.6c1.8-1.5,3.7-2.6,5.8-3.2
					c2.1-0.6,4.7-0.7,6.5-0.4c1.9,0.4,3.6,1.3,5.2,2.8c1.7,1.5,3.2,3.7,4.6,6c2.7,4.9,4.7,10.8,6.3,16.7c3.1,12,4.7,24.5,5.9,36.7
					c1.2,12.2,2,24.2,2.7,35.6c0.7,11.4,1.4,22.2,2,32c2.5,39.7,4,66.3,6.4,66.3s4.5-26.7,4.5-66.6c0-10-0.1-20.9-0.5-32.2
					c-0.2-11.5-0.7-23.6-1.7-36.2C963.3,124,961.9,110.8,958.5,97.4z"/>
			</g>
		</g>
	</g>
</g>
<g>
	<g>
		<path class="st0" d="M574.5,614.7L574.5,614.7c-183,0-331.3,148.3-331.2,331.2c0,182.8,148.2,331.2,331.2,331.2c0,0,0,0,0.1,0
			c185.8,0,331.2-150.7,331.2-331.2C905.9,763.1,757.6,614.7,574.5,614.7z"/>
	</g>
	<g>
		<g>
			<g>
				<path class="st1" d="M517.7,1119.6c0,23.8,39.7,31.8,88.7,31.8c49,0,88.7-7.9,88.7-31.8c0-17.6-39.7-31.8-88.7-31.8
					C557.4,1087.8,517.7,1102.1,517.7,1119.6z"/>
			</g>
			<g>
				<path class="st2" d="M523.8,1110.6c0,15.6,37,20.8,82.5,20.8c45.5,0,82.5-5.2,82.5-20.8c0-11.5-37-20.8-82.5-20.8
					S523.8,1099.2,523.8,1110.6z"/>
			</g>
			<g>
				<g>
					<path class="st3" d="M527.7,1108c3.5-3.3,7.5-5.8,10.7-7.7c6.6-3.9,10.7-5.9,10.4-7c-0.3-1-5-0.9-12.8,1.6
						c-3.9,1.3-8.6,3.1-13.6,6.8c-2.4,1.8-5,4.1-7.1,7.6c-1,1.7-1.8,3.8-2.2,5.9c-0.3,2.4-0.3,4.3,0,6.5c0.2,2.1,0.9,4.2,1.7,6.3
						c0.9,2,2.1,4,3.5,5.8c2.8,3.6,6.3,6.3,10,8.6c7.5,4.5,15.8,7,24.4,9c17.1,3.8,35.5,4.9,53.7,4.9s36.5-1.1,53.7-4.9
						c8.6-2,16.9-4.6,24.4-9c3.8-2.2,7.2-4.9,10.1-8.5c1.4-1.7,2.6-3.7,3.6-5.7c0.9-2.1,1.6-4.2,1.8-6.3c0.2-1.1,0.2-2.1,0.2-3.1
						c0.1-1-0.1-2.1-0.2-3.3c-0.4-2.2-1.2-4.3-2.2-6c-2-3.5-4.6-5.8-7-7.6c-5-3.7-9.7-5.5-13.6-6.8c-7.8-2.6-12.5-2.6-12.8-1.6
						c-0.3,1.1,3.8,3.2,10.4,7c3.2,2,7.2,4.3,10.7,7.7c1.7,1.7,3.2,3.6,4.1,5.6c0.9,2,0.9,3.7,0.3,6.3c-1,4.8-5,8.9-11,12
						s-13.4,5.2-21.3,6.7c-15.8,2.9-33.5,3.8-51.1,3.8c-17.6,0-35.3-0.9-51.1-3.8c-7.8-1.6-15.3-3.6-21.3-6.7c-6-3.1-10-7.2-10.9-12
						c-0.3-1.1-0.3-2.6-0.3-3.3c0.1-0.9,0.3-1.9,0.8-2.9C524.3,1111.5,525.9,1109.6,527.7,1108z"/>
				</g>
			</g>
			<g>
				<path class="st1" d="M606.4,1132.6c83.5,0,153.7-62.6,133.8-180.8c-6.5-38.3-66.9-62.2-133.8-62.2c-55.2,0-98.6,12-119.7,57.4
					c8,28.7-15.6,40.3-15.6,64C471.1,1078.1,531.7,1132.6,606.4,1132.6z"/>
			</g>
			<g>
				<path class="st1" d="M424.6,922.7c-38.4-32.5-72.1,3-63.7,19.8c9.1,18.1,43.2,38.1,68.8,77.5c62.9,96.9,107.8,81.2,112.4,91.1
					c17.7-33.4-52.5-150.5-52.5-150.5C483.1,976.1,463,955.2,424.6,922.7z"/>
			</g>
			<g>
				<g>
					<path class="st3" d="M721.4,1059.8c-6.1,11.8-13.7,21.8-20.9,29.6c-7.2,8-14.5,13.5-19.3,17.7c-5.1,3.9-7.9,6.6-7.3,7.6
						s4.2,0.1,10.5-2.4c6-3,14.6-7.6,23.3-15.4c8.8-7.7,17.8-18.1,25-30.8c7.3-12.7,12.7-27.6,15.6-42.9c2.9-15.3,3.3-30.7,2.6-45.1
						c-0.7-7.1-1.1-14-2.3-20.5c-0.6-3.2-1.1-6.3-1.6-9.4c-0.6-3.1-1.4-6.1-2.2-8.9c-3.3-11.1-7.5-19.8-10.9-25.5
						c-3.5-5.8-6.2-8.6-7.2-8c-2.1,1.1,4,14.7,8.1,36c0.4,2.7,1,5.3,1.2,8.2c0.2,2.9,0.6,6,0.9,9.1c0.8,6.2,0.8,12.8,1.2,19.6
						c0.1,13.6-0.6,27.9-3.2,42C732.1,1034.5,727.5,1048.1,721.4,1059.8z"/>
				</g>
			</g>
			<g>
				<g>
					<g>
						<path class="st3" d="M556.8,959.1c-4.6,0.2-5.1,30.2-1.8,59.8c1.7,14.8,4.3,29.6,7.5,40.4c3.1,10.9,6.5,17.8,8.7,17.3
							s2.2-8,1.4-19c-0.8-11-2.3-25.6-3.9-40.2C565.3,988.2,561.4,958.9,556.8,959.1z"/>
					</g>
				</g>
				<g>
					<g>
						<path class="st3" d="M612.4,1076.7c9.1-0.2,6.5-117.8-2.7-117.6C600.7,959.3,603.3,1076.9,612.4,1076.7z"/>
					</g>
				</g>
				<g>
					<g>
						<path class="st3" d="M654.2,1017.6c-1.3,14.6-2.8,29.1-3.6,40.1s-0.9,18.4,1.3,19c2.2,0.6,5.7-6.3,8.8-17.3
							c3-10.9,5.7-25.7,7.1-40.5c3-29.8,0.9-59.8-3.6-59.8C659.6,959.1,657.1,988.4,654.2,1017.6z"/>
					</g>
				</g>
			</g>
		</g>
		<g>
			<g>
				<path class="st1" d="M589.3,718.5c-33.1-2-33.2,50.1-35.4,97c-3.1,67.9-3.2,99-3.2,99l68.1-4.6c0,0-0.1-39.4-2.2-96.7
					C615.4,774.2,614.2,720.1,589.3,718.5z"/>
			</g>
			<g>
				<g>
					<path class="st3" d="M617.5,742.7c-1.6-6.2-3.6-12.7-7.2-18.9c-1.8-3.1-4.1-6.2-7.2-9c-3.1-2.7-7.3-4.8-11.8-5.5
						c-1.1-0.1-2.2-0.2-3.2-0.2l-3,0.1c-2,0.2-4,0.6-6,1.2c-4,1.2-7.6,3.6-10.5,6.2c-2.9,2.7-5,5.8-6.9,8.9
						c-1.8,3.1-3.1,6.2-4.3,9.4c-2.2,6.3-3.8,12.6-4.8,18.7c-1.1,6.1-1.8,12.1-2.3,18.1c-1.1,11.8-1.4,23.2-1.8,33.8
						c-0.2,10.7-0.4,20.8-0.7,30.1c-0.7,37.3-0.1,62.1,2.2,62.2c2.2,0.1,5.1-24.6,8-61.8c0.8-9.2,1.4-19.4,2.1-30.1
						c0.7-10.6,1.4-21.7,2.8-33.1c1.3-11.2,3.1-23,7-33.4c1-2.6,2.1-5.1,3.5-7.2c1.3-2.2,2.8-4.2,4.5-5.7c1.7-1.6,3.5-2.6,5.3-3.2
						c1-0.3,2-0.4,3.1-0.7l1.7-0.1c0.4,0,0.9,0.1,1.4,0.1c1.8,0.2,3.3,1,4.9,2.3c1.6,1.3,3,3.2,4.3,5.5c2.6,4.5,4.5,9.9,5.9,15.4
						c2.9,11.1,4.3,22.9,5.3,34.3c1,11.5,1.7,22.6,2.2,33.2c0.6,10.7,1.1,20.7,1.6,29.9c2,37.2,3.2,61.9,5.5,62
						c2.3,0,4.5-24.8,4.8-62.2c0.1-9.4,0.1-19.5-0.1-30.2c-0.1-10.7-0.4-22-1.2-33.8C621.9,767.5,620.6,755.2,617.5,742.7z"/>
				</g>
			</g>
		</g>
		<g>
			<g>
				<path class="st1" d="M618,922.5l65.1-7.2c0,0-1.8-37.9-6.2-92.7c-3-37.2-6.6-89.1-30.4-89.5c-31.7-0.6-29.7,49.5-29.7,94.4
					C616.7,892.8,618,922.5,618,922.5z"/>
			</g>
			<g>
				<g>
					<path class="st3" d="M681.9,794c-1.1-11-2.7-22.6-5.6-34.3c-1.6-5.9-3.3-11.8-6.2-17.7c-1.4-2.9-3.1-5.9-5.5-8.7
						c-2.2-2.8-5.2-5.5-8.9-7.3c-3.7-1.9-8.2-2.6-12-2.2c-3.8,0.3-7.7,1.3-11.1,3.3c-3.5,2-6.2,4.7-8.5,7.6
						c-2.2,2.9-3.8,5.9-5.1,8.9c-2.6,6.1-3.9,12.1-5,17.9c-1,5.9-1.6,11.7-1.9,17.3c-0.7,11.2-0.7,21.9-0.4,32.1
						c0.2,10.1,0.4,19.6,0.8,28.4c1.1,35.1,3.3,58.7,5.9,58.6c1.9-0.1,3.1-23.4,4.3-58.6c0.3-8.8,0.6-18.4,0.8-28.4
						c0.2-10,0.6-20.5,1.4-31.2c0.4-5.3,1.1-10.7,2.1-15.9c1-5.2,2.3-10.5,4.3-14.9c1.9-4.6,4.8-8.2,7.9-10c1.6-1,3.5-1.4,5.6-1.6
						c2-0.1,3.5,0.1,5,0.9c3,1.4,6,5.2,8.2,9.9c2.3,4.6,4,9.8,5.5,15c2.8,10.6,4.5,21.6,5.9,32.4c1.3,10.7,2.3,21.3,3.3,31.3
						c1,10,1.9,19.5,2.8,28.2c3.3,34.8,5.6,58.2,7.9,58.1c2.2,0,3.5-23.6,2.3-58.8c-0.2-8.8-0.7-18.4-1.2-28.4
						C683.6,815.7,683,805,681.9,794z"/>
				</g>
			</g>
		</g>
		<g>
			<g>
				<path class="st1" d="M689.3,859.3c-9.4,57.2-12.5,83.6-12.5,83.6l58.2,2.9c0,0,0.7-32.6,4.7-81.5c2.7-33.2,10-79.9-10.8-83.7
					C701.1,775.5,695.8,819.8,689.3,859.3z"/>
			</g>
			<g>
				<g>
					<path class="st3" d="M742.9,929.7c0.1-1,0.1-2.1,0.2-3.1c1.1-16.7,2.1-36.1,3.9-56.8c0.9-10.4,2-21,2.9-32.2
						c0.8-11.1,1.3-22.5,0.3-34.4c-0.3-3-0.7-6-1.3-9c-0.7-3-1.6-6.1-2.9-9.2c-1.4-3.1-3.3-6.3-6.5-9.1c-3-2.8-7.3-4.5-11.2-4.8
						c-3.6-0.4-7.6,0-11,1.3c-3.6,1.3-6.6,3.5-9,5.8c-2.4,2.3-4.3,4.9-6,7.5c-1.7,2.6-2.9,5.2-4.1,7.8c-4.6,10.5-6.8,20.6-8.7,30.2
						s-3.1,18.6-4.1,26.9c-4.1,33.3-5.8,55.6-3.6,55.9c2.3,0.3,7.2-21.5,13.7-54.2c1.7-8.1,3.3-17,5.6-26.2s4.8-18.7,8.8-27.4
						c1-2.1,2.1-4.2,3.3-6.1c1.2-1.9,2.6-3.6,4.1-4.9c3-2.7,5.9-3.8,9.7-3.3c1.7,0.2,2.7,0.7,3.8,1.6c1.1,1,2.1,2.6,3,4.5
						c1.7,3.9,2.7,9,3.1,14.1c1,10.4,0.6,21.4-0.1,32.2c-0.7,10.8-1.7,21.6-2.2,32.2c-1.2,21-1.3,40.6-1.3,57.3c0,1,0,2.1,0,3.1v1.6
						l0.1,1.9c0.1,2.3,0.6,4.5,0.9,6.5c0.8,3.9,1.8,7.5,2.6,10.8c1.8,6.6,3.2,12.1,4.3,16.8c2.2,9.4,2.6,14.8,3.8,14.9
						c1.1,0.1,2.7-5.7,2.1-15.7c-0.2-5-1-11-2.1-17.7c-0.6-3.3-1.1-6.9-1.6-10.5c-0.2-1.8-0.3-3.6-0.3-5.2v-1.2L742.9,929.7z"/>
				</g>
			</g>
		</g>
		<g>
			<g>
				<path class="st1" d="M486.4,749.4c-32.7,4.8-22,55.9-14.5,102.2c11,67,20.2,118.7,20.2,118.7l63-39.7c0,0-8.3-38.5-22.3-94.2
					C523.3,798.5,510.9,745.8,486.4,749.4z"/>
			</g>
			<g>
				<g>
					<path class="st3" d="M473,770.1c0.6-2.6,1.3-5,2.3-7.2c2.1-4.3,4.9-7.2,8.8-8.6c2.1-0.7,3.9-1,5.6-0.7c1.7,0.2,3.5,1,5.2,2.3
						c3.6,2.6,6.8,6.9,9.6,11.5c2.8,4.6,5.1,9.7,7.2,14.7c4.2,10.1,7.6,20.5,10.6,30.3c3,9.9,5.6,19.4,8,28.2
						c9.9,35.1,16.9,58.2,19,57.8c2.4-0.4-1.3-24.7-9-60.2c-1.9-8.9-4-18.6-6.7-28.8c-2.7-10.2-5.7-20.9-10-32
						c-2.1-5.5-4.6-11-7.7-16.6c-3.2-5.5-6.9-11-12.9-15.7c-3-2.2-6.8-4.2-11-4.9c-1.1-0.2-2.1-0.3-3.2-0.3s-2.1,0-3.2,0.1
						c-1.1,0.1-2.1,0.2-3,0.6c-0.9,0.2-1.9,0.4-2.8,0.8c-3.8,1.2-7.3,3.5-10.2,6.3c-2.9,2.8-5,6.1-6.6,9.5c-3,6.7-4.1,13.5-4.7,19.9
						c-0.6,6.5-0.4,12.8-0.1,18.9c0.7,12.4,2.4,24.2,4.3,35.5c3.8,22.6,8,43.3,11.7,61.2c7.3,35.7,13.1,59.3,15.4,58.9
						c2.2-0.4-0.2-24.6-5.3-60.7c-2.7-17.9-5.8-39-9.1-61.5c-1.6-11.1-3-22.7-3.6-34.2c-0.2-5.8-0.3-11.6,0.2-17
						C472,775.4,472.5,772.8,473,770.1z"/>
				</g>
			</g>
		</g>
		<g>
			<g>
				<path class="st3" d="M480.8,958.1c-0.3,0-0.7-0.1-1.1-0.3c-0.8-0.2-2-1-3.1-1.6c-2.2-1.4-4.6-3-6.9-4.9
					c-4.7-3.7-9.5-7.8-14.5-12.2c-4.9-4.5-10-8.9-15.1-13.6c-2.7-2.3-5.2-4.7-7.9-7c-1.3-1.2-2.7-2.3-4.1-3.6
					c-1.6-1.2-3-2.4-4.7-3.6c-6.3-4.7-14-8.5-22.5-10c-8.5-1.7-17.8-0.7-26.1,3.2c-4.1,1.9-7.9,4.5-11.1,7.7
					c-3.3,3.1-6.2,6.9-8.1,11.4c-2,4.3-3.3,9.7-2,15.6c0.3,1.4,0.9,2.9,1.6,4.2l1.8,3c0.6,1,1.2,1.9,1.9,2.8
					c0.7,0.9,1.2,1.8,1.9,2.7c5.3,6.6,11.1,11.9,16.7,17.3c5.6,5.3,11.1,10.5,16.5,15.7c10.6,10.5,20.3,21.4,28.2,32.8
					c1,1.4,2,2.9,3,4.3s2,3,3,4.5c2,3,4.1,5.9,6.1,8.8c4.1,5.7,8.3,11.2,12.7,16.4c8.6,10.5,17.5,19.7,26.3,27.6
					c8.8,7.9,17.8,14.2,26.3,19s16.4,8,22.9,9.9c6.6,2,11.9,2.9,15.1,3.8c1.7,0.4,2.8,0.9,3.6,1.2c0.8,0.4,1.1,0.8,1.4,0.6
					c0.2-0.1,0.3-0.8-0.2-1.7c-0.6-1-1.8-2.1-3.5-3.1c-3.3-2-8.3-3.8-14.4-6.5c-6-2.7-13.1-6.3-20.7-11.5
					c-7.6-5.1-15.6-11.6-23.6-19.5c-8-7.9-16.3-17-24.2-27.4c-4-5.1-7.9-10.6-11.8-16.3c-1.9-2.8-3.9-5.7-5.8-8.7
					c-1-1.4-1.9-2.9-2.9-4.5c-1-1.6-2-3.1-3.1-4.6c-8.2-12.5-18.4-24.2-29.3-35.1c-5.5-5.5-11.1-10.8-16.6-16s-11-10.5-15.4-15.9
					c-0.6-0.7-1-1.3-1.4-2c-0.4-0.7-1-1.3-1.3-2l-1.2-2c-0.1-0.4-0.3-0.8-0.4-1.2c-0.4-1.7-0.1-4.3,1.1-6.9
					c2.3-5.2,7.2-9.8,12.7-12.5c5.6-2.7,11.9-3.5,18-2.3c6.1,1,12.1,3.8,17.5,7.6c1.3,0.9,2.7,1.9,3.9,2.9c1.3,1,2.7,2.2,4,3.3
					c2.7,2.2,5.3,4.6,8,6.8c5.3,4.5,10.6,8.9,15.6,13.1c5.1,4.2,10.2,8.3,15.5,12.1c2.7,1.9,5.5,3.7,8.3,5.3c1.7,0.8,2.9,1.4,5,2.2
					c1.1,0.6,2.4,0.6,3.7,0.8c0.7,0,1.2,0.2,1.8,0.2l1.8-0.1c2.4,0,4.5-1.7,5.7-3.6c1.3-1.9,2-4.3,2.3-6.7c0.4-3.3,0.4-6.1,0.3-9
					c-0.2-5.6-0.9-10.6-1.7-15.4c-1.6-9.5-3.3-17.5-5-24c-3.3-13.1-6.1-20.5-7.2-20.2c-1.1,0.2-0.2,8,1.3,21.3
					c0.8,6.7,1.9,14.8,2.6,23.9c0.3,4.6,0.7,9.5,0.6,14.5c0,2.4-0.2,5-0.7,7.1C481.9,957.2,481.6,958.2,480.8,958.1z"/>
			</g>
		</g>
	</g>
</g>
</svg>
