<?xml version="1.0" encoding="utf-8"?>
<!-- Generator: Adobe Illustrator 26.0.1, SVG Export Plug-In . SVG Version: 6.00 Build 0)  -->
<svg version="1.1" id="_x31_" xmlns="http://www.w3.org/2000/svg" xmlns:xlink="http://www.w3.org/1999/xlink" x="0px" y="0px"
	 viewBox="0 0 435.3 461.3" style="enable-background:new 0 0 435.3 461.3;" xml:space="preserve">
<style type="text/css">
	.st0{fill:#FF9F50;}
	.st1{fill:#FFD664;}
	.st2{fill:#AA2D3F;}
	.st3{fill:#D3EAEA;}
	.st4{fill:#B4D3D2;}
	.st5{fill:#FFB655;}
	.st6{fill:#E55C63;}
	.st7{fill:#CE3C4A;}
	.st8{opacity:0.5;}
	.st9{fill:#FFFFFF;}
	.st10{fill:#DD4B59;}
	.st11{fill:#E24259;}
	.st12{opacity:0.7;fill:#FFFFFF;}
	.st13{fill:#423936;}
	.st14{fill:#FFCD52;}
	.st15{fill:#FFC55F;}
	.st16{fill:#DBC0BA;}
	.st17{fill:#BAA099;}
	.st18{fill:#28201E;}
	.st19{fill:#302825;}
	.st20{fill:#EDAC43;}
	.st21{opacity:0.4;fill:#8E4242;}
	.st22{fill:#FFF8E1;}
	.st23{fill:#FFDDB0;}
	.st24{fill:#FFECC5;}
	.st25{fill:#FFC08D;}
	.st26{fill:#604646;}
	.st27{fill:#422E2E;}
	.st28{fill:#F4694E;}
	.st29{fill:#E0503D;}
	.st30{fill:#FFDC83;}
	.st31{fill:#FFBF61;}
	.st32{fill:#FF9D4D;}
	.st33{fill:#E5763E;}
	.st34{fill:#FFE7B3;}
	.st35{fill:#493030;}
	.st36{fill:#C94D35;}
	.st37{fill:#F9E9C5;}
	.st38{fill:#F4D49D;}
	.st39{opacity:0.4;fill:#F4DBB3;}
	.st40{fill:#C19E61;}
	.st41{opacity:0.7;}
	.st42{fill:#DB4557;}
	.st43{opacity:0.4;fill:#EFD6A8;}
	.st44{opacity:0.7;fill:#DB4557;}
	.st45{opacity:0.5;fill:#EFD6A8;}
</style>
<g>
	<path class="st0" d="M303.1,335.5c0-0.4-0.3-0.8-0.7-0.8c-0.4,0-0.7,0.3-0.7,0.8s0.3,0.8,0.7,0.8
		C302.8,336.3,303.1,336,303.1,335.5z"/>
	<path class="st1" d="M301.4,371.3c0-0.4-0.3-0.8-0.7-0.8c-0.4,0-0.7,0.3-0.7,0.8s0.3,0.8,0.7,0.8C301,372,301.4,371.7,301.4,371.3z
		"/>
	<path class="st1" d="M306.9,375.3c0-0.4-0.3-0.8-0.7-0.8c-0.4,0-0.7,0.3-0.7,0.8c0,0.4,0.3,0.8,0.7,0.8
		C306.5,376,306.9,375.7,306.9,375.3z"/>
	<path class="st1" d="M302.1,367.4c0-0.4-0.3-0.8-0.7-0.8c-0.4,0-0.7,0.3-0.7,0.8s0.3,0.8,0.7,0.8
		C301.8,368.1,302.1,367.8,302.1,367.4z"/>
	<path class="st1" d="M303,362c0-0.4-0.3-0.8-0.7-0.8c-0.4,0-0.7,0.3-0.7,0.8c0,0.4,0.3,0.8,0.7,0.8C302.6,362.8,303,362.5,303,362z
		"/>
	<path class="st0" d="M302.9,341.1c0-0.4-0.3-0.8-0.7-0.8c-0.4,0-0.7,0.3-0.7,0.8c0,0.4,0.3,0.8,0.7,0.8
		C302.5,341.9,302.9,341.5,302.9,341.1z"/>
	<path class="st0" d="M298.7,333c0-0.4-0.3-0.7-0.6-0.7c-0.3,0-0.6,0.3-0.6,0.7c0,0.4,0.3,0.7,0.6,0.7
		C298.4,333.7,298.7,333.4,298.7,333z"/>
	<path class="st0" d="M301.1,334.9c0-0.4-0.3-0.7-0.6-0.7c-0.3,0-0.6,0.3-0.6,0.7s0.3,0.7,0.6,0.7
		C300.8,335.6,301.1,335.3,301.1,334.9z"/>
	<path class="st0" d="M306.3,333.6c0-0.4-0.3-0.7-0.6-0.7c-0.3,0-0.6,0.3-0.6,0.7s0.3,0.7,0.6,0.7
		C306.1,334.2,306.3,334,306.3,333.6z"/>
	<path class="st0" d="M303.1,337.4c0-0.4-0.3-0.7-0.6-0.7c-0.3,0-0.6,0.3-0.6,0.7c0,0.4,0.3,0.7,0.6,0.7
		C302.8,338,303.1,337.7,303.1,337.4z"/>
	<path class="st0" d="M304.7,334.4c0-0.4-0.3-0.7-0.6-0.7c-0.3,0-0.6,0.3-0.6,0.7s0.3,0.7,0.6,0.7
		C304.4,335.1,304.7,334.8,304.7,334.4z"/>
	<path class="st0" d="M305.6,335.8c0-0.4-0.3-0.7-0.6-0.7c-0.3,0-0.6,0.3-0.6,0.7s0.3,0.7,0.6,0.7
		C305.3,336.4,305.6,336.1,305.6,335.8z"/>
	<path class="st0" d="M303.3,346.3c0-0.4-0.3-0.7-0.6-0.7c-0.3,0-0.6,0.3-0.6,0.7s0.3,0.7,0.6,0.7C303,347,303.3,346.7,303.3,346.3z
		"/>
	<path class="st0" d="M304.8,347.5c0-0.4-0.3-0.7-0.6-0.7c-0.3,0-0.6,0.3-0.6,0.7c0,0.4,0.3,0.7,0.6,0.7
		C304.5,348.2,304.8,347.9,304.8,347.5z"/>
	<path class="st1" d="M303.1,357.9c0-0.4-0.3-0.7-0.6-0.7c-0.3,0-0.6,0.3-0.6,0.7s0.3,0.7,0.6,0.7
		C302.8,358.6,303.1,358.3,303.1,357.9z"/>
	<path class="st1" d="M309.9,377.5c0-0.4-0.3-0.7-0.6-0.7c-0.3,0-0.6,0.3-0.6,0.7c0,0.4,0.3,0.7,0.6,0.7
		C309.7,378.2,309.9,377.9,309.9,377.5z"/>
	<path class="st1" d="M297.6,374.8c0-0.4-0.3-0.7-0.6-0.7c-0.3,0-0.6,0.3-0.6,0.7c0,0.4,0.3,0.7,0.6,0.7
		C297.3,375.4,297.6,375.1,297.6,374.8z"/>
	<path class="st1" d="M303.4,371c0-0.4-0.3-0.7-0.6-0.7c-0.3,0-0.6,0.3-0.6,0.7s0.3,0.7,0.6,0.7C303.1,371.7,303.4,371.4,303.4,371z
		"/>
	<path class="st0" d="M284.3,382.6c0-0.4-0.3-0.7-0.6-0.7c-0.3,0-0.6,0.3-0.6,0.7c0,0.4,0.3,0.7,0.6,0.7
		C284,383.3,284.3,383,284.3,382.6z"/>
	<path class="st1" d="M298.5,362c0-0.4-0.3-0.7-0.6-0.7c-0.3,0-0.6,0.3-0.6,0.7s0.3,0.7,0.6,0.7C298.2,362.7,298.5,362.4,298.5,362z
		"/>
	<path class="st1" d="M302.5,353.1c0-0.4-0.3-0.7-0.6-0.7c-0.3,0-0.6,0.3-0.6,0.7c0,0.4,0.3,0.7,0.6,0.7
		C302.2,353.7,302.5,353.4,302.5,353.1z"/>
	<path class="st0" d="M300.9,350.6c0-0.5-0.4-0.9-0.8-0.9c-0.5,0-0.8,0.4-0.8,0.9s0.4,0.9,0.8,0.9
		C300.5,351.5,300.9,351.1,300.9,350.6z"/>
	<path class="st1" d="M293.1,376.6c0-0.5-0.4-0.9-0.8-0.9c-0.5,0-0.8,0.4-0.8,0.9s0.4,0.9,0.8,0.9
		C292.7,377.4,293.1,377.1,293.1,376.6z"/>
	<path class="st0" d="M302.6,343.8c0-0.5-0.4-0.9-0.8-0.9c-0.5,0-0.8,0.4-0.8,0.9s0.4,0.9,0.8,0.9
		C302.3,344.7,302.6,344.3,302.6,343.8z"/>
	<polygon class="st2" points="344.6,264.3 257.9,265.5 257.9,270 344.6,268.5 	"/>
	<path class="st1" d="M300.1,373.8c-9.7,7.6-29.4,22.1-37,28.5c-1.1,6.9-2.2,14.9-2.7,21.6l82.2-2.5c0,0-1-8.9-3.2-21.6
		C321.3,386,300.1,373.8,300.1,373.8z"/>
	<path class="st3" d="M302.1,338.8c34.2,20.1,40.6,71.5,41.4,81.7l2.5-0.1c0,0-2.8-60.2-43.1-82.8c0,0-41.6,15.4-45.9,86l2.5,0
		C264.2,355.1,302.1,338.8,302.1,338.8z"/>
	<path class="st3" d="M343.5,264.2c-5.2,60.2-40.7,73.5-40.7,73.5c-35.1-17.3-41.7-59.3-43.3-70.8l-4.2,0c0,0,5,52.2,46.8,71.8
		c0,0,41-13.4,45.5-74.6L343.5,264.2z"/>
	<path class="st1" d="M301.9,335.4c0,0,15-5.8,26.1-27.5c-12,1.2-31.2-3.3-38-3.1c-4.5,0.1-9.9,1.7-13.8,3
		C281.9,318.5,290.1,328.9,301.9,335.4z"/>
	<path class="st4" d="M307,341.2c0,0-1.9-3.1,0-4.9l-4.4,1.6L307,341.2z"/>
	<path class="st4" d="M298,341.2c0,0,1.7-3.1,0-4.9l3.7,1.6L298,341.2z"/>
	<path class="st5" d="M287.6,383.5c-9.2,6.9-19.4,14.7-24.4,18.9c-1.1,6.9-2.2,14.9-2.7,21.6l82.2-2.5c0,0-0.9-8.8-3.2-21.4
		C324.1,401,299.8,397.8,287.6,383.5z"/>
	<path class="st0" d="M330.7,402.3c3-0.9,5.9-1.6,8.8-1.9c0-0.1,0-0.2-0.1-0.3c-15.3,1-39.6-2.3-51.8-16.6
		c-9.2,6.9-19.4,14.7-24.4,18.9c-1.1,6.9-2.2,14.9-2.7,21.6l46.9-1.4C308,414.9,317.5,406.4,330.7,402.3z"/>
	<path class="st5" d="M302.5,311.8c-10.6,0-20-1.4-26.1-3.7c5.7,10.6,13.9,20.8,25.6,27.3c0,0,14.9-5.8,25.9-27.2
		C321.7,310.4,312.6,311.8,302.5,311.8z"/>
	<path class="st0" d="M311.1,325.6c-11.1,0-20.4-7.2-22.5-14.7c-4.8-0.6-9-1.6-12.2-2.8c5.7,10.6,13.9,20.8,25.6,27.3
		c0,0,6.4-2.5,14-10.3C314.3,325.5,312.8,325.6,311.1,325.6z"/>
	<g>
		<path class="st4" d="M344.2,285.4c1.6-6.3,2.8-13.4,3.4-21.2l-4.1,0c-0.7,8.1-1.9,15.3-3.6,21.7
			C341.4,285.6,342.8,285.4,344.2,285.4z"/>
		<path class="st4" d="M316.1,328.8c-7.3,6.7-13.3,8.9-13.3,8.9c-35.1-17.3-41.7-59.3-43.3-70.8l-4.2,0c0,0,5,52.2,46.8,71.8
			c0,0,6.1-2,13.9-8C316,330.2,316,329.5,316.1,328.8z"/>
	</g>
	<g>
		<path class="st4" d="M306.9,342c0.3-0.4,0.7-0.8,1-1.1c-1.6-1.1-3.3-2.2-5.1-3.2c0,0-41.6,15.4-45.9,86l2.5,0
			c4.7-68.5,42.7-84.8,42.7-84.8C303.8,339.8,305.4,340.8,306.9,342z"/>
		<path class="st4" d="M342.1,410.2c0.8,4.7,1.1,8.3,1.3,10.3l2.5-0.1c0,0-0.2-4.3-1.3-11.1C343.9,409.7,343,410,342.1,410.2z"/>
	</g>
	<polygon class="st6" points="255.3,433.9 346.6,433.9 349.1,424.9 347.8,419.8 255,422.2 253,427.3 	"/>
	<path class="st7" d="M331.8,430.8c-24.1,0-43.6-3.5-43.6-7.8c0-0.6,0.4-1.2,1.1-1.7l-34.2,0.9l-2,5.1l2.3,6.6h91.3l1-3.6
		C342.7,430.6,337.4,430.8,331.8,430.8z"/>
	<g class="st8">
		<path class="st9" d="M303.9,418.5l38.3-0.5c0,0-2-47.5-32.2-71.3C324,369.6,303.1,406.2,303.9,418.5z"/>
		<path class="st9" d="M291.4,347.7c-11.5,9.3-28.7,30.3-31.3,73.3l13-0.5C275.3,381.2,284.1,359.3,291.4,347.7z"/>
	</g>
	<g class="st8">
		<path class="st9" d="M303.9,272.2l37.2,0.4c0,0-5.1,41-35.6,61.7C320.9,314.4,302.3,282.8,303.9,272.2z"/>
		<path class="st9" d="M297.9,332.7c-12.3-8-31.4-25.9-37.8-62.6l13.1,0.4C278.8,304,289.6,322.8,297.9,332.7z"/>
	</g>
	<polygon class="st6" points="351.2,254 252.7,254 249.8,261.2 253.7,267.9 349.2,266.1 352.1,261.2 	"/>
	<polygon class="st10" points="249.8,261.2 253.7,267.9 349.2,266.1 352.1,261.2 	"/>
	<path class="st7" d="M291.6,257.9c0-1.4,1.3-2.7,3.6-3.9h-42.5l-2.9,7.2l3.9,6.8l61.9-1.2C301.4,265.2,291.6,261.8,291.6,257.9z"/>
	<path class="st11" d="M259,426.1c0-1.4,0.2-2.7,0.6-4l-4.6,0.1l-2,5.1l2.3,6.6h6.1C259.8,431.4,259,428.8,259,426.1z"/>
	<path class="st11" d="M257.7,254h-5l-2.9,7.2l3.9,6.8l7-0.1C259,263.5,257.9,258.8,257.7,254z"/>
	<path class="st12" d="M346.1,422.3c0-0.5-6.4-0.7-14.3-0.5c-7.9,0.3-14.2,0.9-14.2,1.4c0,0.5,6.4,0.7,14.3,0.4
		C339.8,423.4,346.1,422.8,346.1,422.3z"/>
	<path class="st12" d="M349.2,257.8c0-0.5-6.4-0.8-14.3-0.6c-7.9,0.1-14.2,0.7-14.2,1.2c0,0.5,6.4,0.8,14.3,0.6
		C342.8,258.9,349.2,258.3,349.2,257.8z"/>
	<polygon class="st2" points="249.8,261.2 250.3,262 351.6,262.1 349.2,266.1 349.2,266.1 352.1,261.2 	"/>
	<polygon class="st2" points="349,425.4 349.1,424.9 253,427.3 253.2,427.8 	"/>
</g>
<g>
	<polygon class="st13" points="38.7,193.2 160.3,193.2 165.2,99.3 79.5,85.4 32,100.2 	"/>
	<polygon class="st14" points="141.7,110.4 110.7,104.1 110.7,112.5 141,116 	"/>
	<polygon class="st14" points="152.4,193.2 155.6,161.7 147.8,160.9 146.8,193.2 	"/>
	<polygon class="st14" points="152.5,116 151.6,131.5 158,131.5 158.6,119.9 	"/>
	<polygon class="st15" points="137.9,179.5 152,181.6 151.7,173.7 137.4,173.8 	"/>
	<polygon class="st14" points="111.1,145.5 122.1,145.9 121.7,158.3 130.3,158.5 130.7,147.2 139.5,148.9 139.7,140.8 131.3,140.4 
		130.7,128.8 123,127.3 122.4,138.6 111,137.8 	"/>
	<polygon class="st14" points="97.2,156.7 98.6,174.9 84.8,173.3 86.1,181.6 103.3,181.1 104.3,157.1 	"/>
	<polygon class="st14" points="152.7,97.3 152.7,113.3 140.8,111.2 141.1,118.6 158.6,120 160,98.5 	"/>
	<polygon class="st14" points="110.7,138.6 98.3,138.5 97.8,123.8 91.2,123.5 93.7,143.2 110.8,145.3 	"/>
	<polygon class="st14" points="79.5,107.6 93.8,108.4 92.3,123 98.7,123.2 99.7,103.5 79.7,99.5 	"/>
	<polygon class="st14" points="111,177.6 125.4,178.5 123.8,193.2 130.2,193.2 131.3,173.5 111.2,169.6 	"/>
	<polygon class="st14" points="154.8,160.8 155.9,148.1 162.8,148.7 163,142.6 149.5,141.4 147.6,160.6 	"/>
	<polygon class="st16" points="79.5,85.4 32,100.2 32,100.6 78.1,86.3 164.2,100 159,193.2 160.3,193.2 165.2,99.3 	"/>
	<g>
		<polygon class="st17" points="138.6,158.5 140.2,129.9 112.4,126.4 112.4,127.2 139.3,130.7 137.8,158.4 		"/>
		<polygon class="st17" points="110.6,124.3 110.3,90.8 109.4,90.7 109.7,124.2 		"/>
		<polygon class="st17" points="110,156.1 110.9,156.2 110.6,126.2 80.3,121.6 80.5,120.7 79.7,120.6 79.5,122.4 109.8,126.9 		"/>
		<polygon class="st17" points="140.3,128.1 142.1,96 141.3,95.9 139.5,128 		"/>
		<polygon class="st17" points="142,130.2 142,131 163.1,133.7 163.1,132.9 		"/>
		<polygon class="st17" points="140.3,160.4 140.3,161.2 161.6,163 161.6,162.2 		"/>
		<polygon class="st17" points="111.2,192.4 110.9,158 81.9,155.6 81.9,154.6 81.1,154.5 81,156.4 110,158.7 110.3,193.1 		"/>
		<polygon class="st17" points="136.7,192.4 138.5,160.3 112.7,158.2 112.7,159 137.7,161 135.9,193.1 		"/>
	</g>
	<path class="st18" d="M161.9,162.6l0.1-1.8l-22.1-1.8l1.6-28.4l21.9,2.8l0.1-1.8l-21.9-2.8l1.8-32.9l-1.8-0.3l-1.8,33l-27.9-3.6
		l-0.3-34.3l-1.8-0.3l0.3,34.3l-30-4.5l-0.2,1.8l30.3,4.5l0.3,30l-28.9-2.4l-0.1,1.8l29,2.4l0.3,34.8h1.8l-0.3-34.6l25.8,2.1
		l-1.8,32.5h1.8l1.8-32.4L161.9,162.6z M138.1,158.8l-25.9-2.1l-0.3-30l27.8,3.6L138.1,158.8z"/>
	<polygon class="st19" points="38.7,193.2 87.1,193.2 79.5,85.4 32,100.2 	"/>
	<polygon class="st20" points="55.7,160.5 56.6,171.8 49.4,172.4 49.8,177.9 56.8,177.6 57.9,193.2 63.7,193.2 61.1,160.1 	"/>
	<polygon class="st20" points="72.6,157.6 73.9,174.2 67,174.9 67.8,181.8 74.6,181.4 75.2,193.2 80.7,193.2 79.7,181.5 86.4,181.6 
		85.7,173.3 79.4,173.5 77.9,156.6 	"/>
	<polygon class="st20" points="67.2,89.3 70.2,123.6 76.3,122.2 72.7,87.5 	"/>
	<polygon class="st20" points="47,140 35.1,143.7 35.5,149 47.2,147 	"/>
	<polygon class="st20" points="80.7,99.6 62.3,103.4 62.9,110.2 81.3,107.7 	"/>
	<polygon class="st20" points="45.2,113.7 51.7,111.1 53.1,125.8 58.4,126 56.9,110.1 62.2,109.5 61.5,103.3 44.4,108 	"/>
	<polygon class="st20" points="33.2,116.2 36.9,115.6 37.7,128.4 42.8,127.6 41.6,109.2 32.7,110.7 	"/>
	<polygon class="st20" points="40.8,163.1 42.1,177.2 37.5,177.8 37.9,182.2 45.4,181 44.6,162.3 	"/>
	<polygon class="st20" points="72.2,156.9 71.1,142.3 65,143.9 64.2,136 76.6,132.4 78.6,156.2 	"/>
	<polygon class="st20" points="58,125.4 58.2,137.6 63.8,136 64.8,143.9 53.9,145.6 51.8,126.9 	"/>
	<path class="st18" d="M50.1,193.2h1.8l-2.1-30.9l15.1-2.6l2.3,33.5H69l-2.4-33.9l17.8-3.1l-0.1-1.8l-17.8,3.1l-2.2-32.1l17.8-3.1
		l-0.1-1.8l-17.8,3.1l-2.3-32.7l-1.8,0.6l2.3,32.4l-15.1,2.6l-2.1-30.4l-1.8,0.6l2.1,30.1l-11.4,2l0.1,1.8l11.4-2l2.2,32.1l-11.4,2
		l0.1,1.8l11.4-2L50.1,193.2z M47.4,128.3l15.1-2.6l2.2,32.1l-15.1,2.6L47.4,128.3z"/>
	<polygon class="st21" points="38.7,193.2 87.1,193.2 79.5,85.4 32,100.2 	"/>
	<g class="st8">
		<polygon class="st17" points="118.9,91.8 79.5,85.4 85.1,174.1 		"/>
		<polygon class="st17" points="114.3,193.2 160.3,193.2 164.7,109.4 		"/>
	</g>
	<polygon class="st22" points="86,193.2 87.1,193.2 79.5,85.4 78.7,85.7 	"/>
</g>
<g>
	<path class="st23" d="M110.7,262.2c-36.1,0-29.3,60.2-29.3,60.2l7.2,0.4c0,0-1.2-52.2,21-52.2c27.5,0,23.9,52.4,23.9,52.4h8.8
		C142.2,323.1,147.8,262.2,110.7,262.2z"/>
	<path class="st24" d="M89.5,305.5c-0.8-5.3-1.3-11.1-1.3-17.1c0-4.9,0.3-9.7,0.9-14.2c-11.1,17.6-7.7,48.2-7.7,48.2l7.2,0.4
		C88.6,322.9,88.4,315.1,89.5,305.5z"/>
	<path class="st24" d="M128.2,268.6c1.1,6.1,1.7,12.8,1.7,19.8c0,0.4,0,0.7,0,1.1c4.8,15,3.5,33.6,3.5,33.6h8.8
		C142.2,323.1,145.8,284.2,128.2,268.6z"/>
	<g>
		<path class="st24" d="M97.9,277.4c-9.7,12.1-10.1,39.7-10.1,45.4l0.8,0C88.6,322.9,87.9,291.5,97.9,277.4z"/>
		<path class="st24" d="M110.7,262.2c-9.6,0-16.2,4.3-20.6,10.5c4.4-5.7,10.8-9.5,19.9-9.5c34.2,0,32.1,52,31.6,59.9h0.7
			C142.2,323.1,147.8,262.2,110.7,262.2z"/>
	</g>
	<path class="st25" d="M136.4,320.6c0,0,4-52.9-26.5-52.9c-24.5,0-23.2,52.6-23.2,52.6l-5.6-0.3c0.1,1.6,0.2,2.4,0.2,2.4l7.2,0.4
		c0,0-1.2-52.2,21-52.2c27.5,0,23.9,52.4,23.9,52.4h8.8c0,0,0.1-0.9,0.2-2.6H136.4z"/>
	<path class="st26" d="M144.6,319.2c0-0.9-0.8-1.7-1.8-1.7h-9.3c-0.9,0-1.6,0.7-1.6,1.5v2.5h12.8V319.2z"/>
	<path class="st27" d="M141.6,320.9c-2.3,0-4.1-1.1-4.1-2.4c0-0.4,0.1-0.7,0.4-1h-4.5c-0.9,0-1.6,0.7-1.6,1.5v2.5h12.8v-1.3
		C143.8,320.6,142.8,320.9,141.6,320.9z"/>
	<path class="st26" d="M90.5,319.2c0-0.9-0.7-1.7-1.6-1.7H81c-0.8,0-1.4,0.7-1.4,1.5v2.5h10.9V319.2z"/>
	<path class="st27" d="M88.9,317.5h-1.9v0c0,1.3-2.2,2.3-4.9,2.3c-0.9,0-1.8-0.1-2.6-0.4v2h10.9v-2.3
		C90.5,318.2,89.8,317.5,88.9,317.5z"/>
	<rect x="78.2" y="319" class="st28" width="13.4" height="6.9"/>
	<path class="st29" d="M85.1,322.1c-3.2,0-5.8-1-6.8-2.4v6.2h13.4V320C90.4,321.2,88,322.1,85.1,322.1z"/>
	<rect x="130.1" y="319.4" class="st28" width="16.3" height="6.3"/>
	<path class="st29" d="M131.2,319.4h-1v6.3h16.3v-4.6C145.2,323,131.5,322.1,131.2,319.4z"/>
	<path class="st30" d="M71.8,324h78.7c0,0,19.9,82.3-38.3,82.3C57.2,406.3,71.8,324,71.8,324z"/>
	<g>
		<path class="st31" d="M105.3,402.9L94,402.4c5,2.5,11,3.9,18.3,3.9c44.8,0,43.3-48.8,40.2-71.3L105.3,402.9z"/>
		<path class="st31" d="M118.5,324H71.8c0,0-6.3,35.5,5,59.9L118.5,324z"/>
	</g>
	<path class="st32" d="M104.1,391.6h17.2l-3.5-28.9c0,0,5.6-17.3-5.6-17.7c-11.4-0.4-4.3,16.8-4.3,16.8L104.1,391.6z"/>
	<path class="st33" d="M103.7,391.6h16.6l-3.5-28.8c0,0,5.5-16.3-5.4-16.7c-11-0.4-4.2,16.4-4.2,16.4L103.7,391.6z"/>
	<path class="st34" d="M104.9,390.6h15.8l-3.5-28c0,0,5.5-16.8-5.4-16.8c-10.9,0-3.9,16.8-3.9,16.8L104.9,390.6z"/>
	<path class="st35" d="M108.9,387.1h7.6l-2.4-24.1c0,0,4.6-14.5-2-14.5c-5.6,0-1,14.5-1,14.5L108.9,387.1z"/>
	<path class="st32" d="M150.5,324h-1c2.9,15.7,11.4,78.8-37.3,78.8c-46.1,0-41.1-63.1-39.2-78.8h-1.3c0,0-14.6,82.3,40.4,82.3
		C170.4,406.3,150.5,324,150.5,324z"/>
	<path class="st32" d="M151,326.3c-0.3-1.4-0.5-2.2-0.5-2.2H71.8c0,0-0.1,0.8-0.3,2.2H151z"/>
	<g>
		<path class="st36" d="M113.1,404.8c-50.6,0-42.3-69.7-40.7-80.8h-0.6c0,0-14.6,82.3,40.4,82.3c18.3,0,28.9-8.2,34.8-19.3
			C141,397.4,130.6,404.8,113.1,404.8z"/>
	</g>
	<circle class="st32" cx="146.9" cy="331.1" r="2.6"/>
	<circle class="st34" cx="146.9" cy="331.1" r="1.5"/>
	<circle class="st32" cx="76" cy="331.1" r="2.6"/>
	<circle class="st34" cx="76" cy="331.1" r="1.5"/>
	<circle class="st32" cx="96.3" cy="331.1" r="2.6"/>
	<circle class="st34" cx="96.3" cy="331.1" r="1.5"/>
	<circle class="st32" cx="124.5" cy="331.1" r="2.6"/>
	<circle class="st34" cx="124.5" cy="331.1" r="1.5"/>
	<polygon class="st29" points="130.4,322.9 81,324 146.5,324 	"/>
</g>
<g>
	<path class="st37" d="M217.6,208.5l33.2-0.4l11.4-5.5l27.7-3.6l7,1.2l11.7-1.6l31.1,7l24.5-1.8l29.4,5.7l-2.1-18.2l0.8-11
		l-4.9-15.8l0.8-35.5l-3.3-4.6l1.6-13.6l2.3-24.9l13.5-41.4l-13.8-4.7l-16.8,4L346.8,41l-30.4,2.6l-26.9-3.4
		c-7.7,2.2-28.3-0.7-28.3-0.7l-4.1,1.7l-27.1-2.4l-15.5,3.3l11.4,44.2l3.9,7.2l0.4,17.6l-5.4,11.1l-3.3,41.9l0.3,31L217.6,208.5z"/>
	<path class="st38" d="M224.8,201.9l30.6-0.3l10.5-5.1l25.5-3.3l6.5,1.1l10.8-1.4l28.7,6.4l22.6-1.7l27.1,5.2l-1.9-16.8l0.7-10.1
		l-4.5-14.6l0.8-32.7l-3.1-4.2l1.4-12.6l2.1-23L395,50.7l-12.8-4.3l-15.5,3.7l-22.9-2.6l-28,2.4l-24.8-3.2c-7.1,2-26.1-0.7-26.1-0.7
		l-3.8,1.6l-25-2.2l-14.3,3l10.5,40.8l3.6,6.7l0.4,16.2l-5,10.2l-3,38.6l0.3,28.6L224.8,201.9z"/>
	<path class="st39" d="M351.5,137.4c-3.4-5.2-10.2-8.4-14.3-13.2c-4.1-4.9-6.1-10-9.3-15.4c-1.4-2.2-4-7.4-6.6-8
		c-0.3,6.9,1.1,13.4,2.3,20.2c0.7,3.9,0.7,13.5,5.3,15.3c1,2.9,3.1,6,4.6,8.1c1.3,1.8,3.3,4.7,5.7,5.4c1.5,0.4,2.9-0.8,4.1-0.5
		c2.6,0.4,1.2,2.3,3.5,4.4c3,2.8,4.6,0,5.3-3.1C353,146.5,353.7,140.9,351.5,137.4z"/>
	<path class="st39" d="M332.1,187.8c-9.6-3.4-13.7-8-17-17.7c-1.3-3.7-2-13.2-6.1-15.4c-7.8-4.2-4.3,10.4-4.9,13.2
		c-1.3,5.8-8.1,7.5-11,12.8c-0.9,1.7-0.7,2.4-2.3,4.2c-1.6,1.9-2.9,4-4.6,5.8c-1.3,1.4-3.6,2.5-5.4,3.9l10.7-1.4l6.5,1.1l10.8-1.4
		l28.7,6.4l10.2-0.8C343.4,193.7,337.2,189.6,332.1,187.8z"/>
	<path class="st39" d="M240,139.4c2.1,0.5,5.2-0.8,7.1,0.3c3.2,1.8,6.7,12.9,11.3,7.1c2-2.5,3.4-8.8,2.9-12.1
		c-1.3-8.6-12.5-9.3-16.9-15.6c-2.8-4-2.4-8.5-5.9-12.4c-0.8-0.9-1.6-1.7-2.6-2.5l0.2,7.9l-5,10.2l-0.8,10.3
		c1.2,0.2,2.3,0.8,3.3,1.8C236,136.7,236.7,138.6,240,139.4z"/>
	<path class="st39" d="M230.8,74.3c6-5.5,11.8-8.1,13.9-16.4c0.9-3.7,1.6-7.6,1.9-11.4l-10.5-0.9l-14.3,3l7.1,27.7
		C229.6,75.5,230.2,74.8,230.8,74.3z"/>
	<path class="st39" d="M302.9,62.1c2.4,0.6,8.2-0.5,9.8,1.3c1.7,2,0,6.7,2,9c1.4,1.6,8.9,4.7,11,4.7c5.3,0,6.2-12.2,10.8-6.5
		c2.3-5.9,13.3-7.7,18.7-7.8c8-0.2,15.8,2.5,23.9,2.7c2.4,0.1,6.4-1.4,8.5-1c1.2,0.2,1.9,1,2.5,1.9l5.1-15.5l-12.8-4.3l-15.5,3.7
		l-22.9-2.6l-28,2.4l-24.8-3.2c-0.1,0-0.2,0.1-0.3,0.1C293.5,53.4,295,60.1,302.9,62.1z"/>
	<g>
		<path class="st40" d="M385.1,186.6l-0.1-0.5l0,0l-16-2.7l-2.3-6.9l1.2-5.7l-2-11.2l0.3-6.3l15.2,0.3l0-0.5l-15.2-0.3l1-24l0,0
			l-0.5-2l14.9,1.3l-0.4-0.5l-14.5-1.3l-0.1,0l-2.9-11l0.2-11.5l0.6,0l16.8-1.2l0-0.5l-16.9,1.2l-0.6,0l0.3-19.7L367,76l0.3,0
			l18.1,4.4l0.2-0.5l-18.2-4.5l0,0l-0.2,0l8.6-24.2l1-3.6l-0.6,0.1l-0.9,3.3l-8.7,24.3L342,75.7l-1.3-0.1l2.8-17.9l0.1-10.2l-0.5,0
			L343,57.7l-2.8,17.8l-30.6-3.2l2-22.9l-0.5-0.1l-2,23l-0.1,0l-35.1,1.2l-2.6-26.7c-0.2,0-0.3,0-0.5-0.1l2.6,26.7l-24.6-1.7l-0.3,0
			l-2.2-16.6l-3.5-9.1l-0.5,0l3.5,9.3l2.2,16.4l-20.5-1.3l0.1,0.5l20.4,1.3l1.7,13.1l2.2,10l0.1,2l-16.3-1.5l0.1,0.1l0,0.4l16.3,1.5
			l0.6,13.8l-2.9,11.4l-18.3-1.1l-0.2,0.5l18.4,1.1l-0.2,0.9l-2.9,27.3h-0.8l-16.7-1.7l0,0.5l16.7,1.7h0.8l-0.8,7.3l0.5,21.7
			l-1.5,4.3l-16.3,2l0,0.5l16.1-2l-5.4,16l0.5,0l5.4-16l11-1.4l9.8-6.3l10.5-0.7l0.8,2.5l-3.6,15.5l0.5-0.1l3.6-15.4l0-0.1l-0.8-2.6
			l12.7-0.8l10.5,3.2l0.1,0l10.5-4l0.1,1.8l-2.4,15.2l0.2,0l0.3,0.1l2.4-15.2l-0.1-2l1.5-0.6l23.7,11.7l4.9-1l3.7,12.9l0.5,0
			l-3.7-12.9l16.9-3.6l10.1,1.7l5.6,16.6l0.6,0.1l-5.6-16.6L385.1,186.6z M366.8,128.8l-1,24l-25.3-0.7l-0.5,0l1.8-24l-0.1-0.3
			l24.5-0.9L366.8,128.8z M308.8,151l-34.5,0.5L277,125l0.2,0l33.2,2.2l-1.7,23.4L308.8,151z M341.1,127.2l-0.5,0l-28.7-0.5
			l-0.8-0.1l0.5-7.5l-6-12l0.7-5.7l31.3,3l0.2,0l-0.5,7.7l0,0L341.1,127.2z M305,107.3l6,12l-0.5,7.4l-33.2-2.2l-0.2,0l0.2-1.9
			l4-11.3l-1.5-10.7l25.9,1L305,107.3z M310.9,127.2l0.8,0.1l28.8,0.5l0.7,0l0.1,0.3l-1.7,23.9l-30.2-1l0-0.5L310.9,127.2z
			 M366.1,126.3l-24.5,0.9l-3.8-15l0.5-7.7l25.2-0.7l-0.2,11.5l0,0L366.1,126.3z M340.6,76.1l1.4,0.1l24.4-0.2l-2.6,7.4l-0.3,19.9
			l-25.2,0.7l1.2-20.7L340.6,76.1z M309.5,73.3l0-0.5l30.6,3.2l-1.1,7.2l-1.3,20.8l-0.2,0l-31.3-3L309.5,73.3z M309,72.7L309,72.7
			l0,0.5l-3.3,27.8l-26-1l-0.2-1.6L275,85.2L273.9,74L309,72.7z M252.5,95.2l-2.2-10l-1.7-13l0.2,0l24.7,1.7l1.1,11.4l4.5,13.2
			l0.2,1.5l-0.2,0l-26.4-2.7L252.5,95.2z M253.3,111.6L253.3,111.6l-0.6-13.8l26.4,2.7l0.3,0l1.5,10.7l-4,11.3l-0.2,2l-26.2-1.6
			L253.3,111.6z M250,124.3l0.2-1l26.3,1.6l-2.7,26.5l-26.7,0L250,124.3z M265.9,177.6L265.9,177.6l-9.8,6.3l-10.7,1.3l1.4-4.1l0,0
			l-0.5-21.8l0.8-7.3h26.7l-0.2,2l1.3,18.1l1.5,4.9L265.9,177.6z M300.2,179.4l-10.5-3.2l-12.9,0.8l-1.6-5l-1.2-18l0.2-2l34.6-0.5
			l1.8,23.9L300.2,179.4z M336.5,186.4l-23.7-11.7l-0.1,0l-1.6,0.6l-1.7-23.7l30.1,1l-0.7,9.7l-1.5,9.6l3.9,13.6L336.5,186.4z
			 M358.7,181.6L358.7,181.6l-17.1,3.6l-3.9-13.5l1.5-9.5l0.7-9.8l0.5,0l25.3,0.7l-0.3,6.3l2,11.2l-1.3,5.8l2.3,6.8L358.7,181.6z"/>
	</g>
	<g class="st41">
		<g>
			<path class="st42" d="M245.2,160c-0.9-1.1-1.8-2.2-2.5-3.4l3.9-2.5c0.6,1,1.4,2,2.2,2.9L245.2,160z"/>
		</g>
		<g>
			<path class="st42" d="M271.6,172.8c-1.6,0-3.2-0.1-4.8-0.4l0.8-4.5c2.5,0.4,4.9,0.5,7.2,0.1l0.7,4.5
				C274.1,172.8,272.8,172.8,271.6,172.8z M258.6,170c-2.6-1.1-5-2.6-7.3-4.2l2.7-3.7c2,1.5,4.2,2.7,6.4,3.7L258.6,170z
				 M283.6,169.8l-2.3-4c2-1.1,3.8-2.7,5.4-4.6l3.5,3C288.3,166.5,286.1,168.3,283.6,169.8z M343.5,166.5c-1.5,0-3.1-0.2-4.6-0.5
				l0.9-4.5c2.2,0.5,4.6,0.5,7,0.1l0.8,4.5C346.3,166.4,344.9,166.5,343.5,166.5z M355.8,163.5l-1.9-4.2c2.5-1.2,4.4-2.5,5.6-4
				l3.5,3C361.3,160.4,358.9,162.1,355.8,163.5z M330.9,162.7c-2.2-1.5-4.4-3.4-6.4-5.7l3.5-3c1.7,2,3.5,3.6,5.4,4.8L330.9,162.7z
				 M294.8,157l-4.2-1.9l0.1-0.3c0.8-1.8,1.2-3.6,1.2-5.5c0-0.3,0-0.6,0-0.8l4.6-0.3c0,0.4,0,0.8,0,1.1c0,2.5-0.5,5-1.6,7.4
				L294.8,157z M319.7,150.2c-1.3-2.2-2.5-4.7-3.7-7.4l4.2-1.8c1.1,2.5,2.2,4.8,3.4,6.8L319.7,150.2z M361.5,149.6
				c0-2-0.6-4.2-1.6-6.9l4.3-1.7c1.3,3.2,1.9,6,2,8.5L361.5,149.6z M290,141.7c-1-2-2.3-4-4-6.3l3.7-2.8c1.9,2.5,3.4,4.8,4.4,7.1
				L290,141.7z M356.5,135.8c-1.2-2.1-2.4-4.2-3.9-6.8l4-2.4c1.5,2.6,2.8,4.7,4,6.9L356.5,135.8z M313.2,135.2
				c-0.8-2.5-1.5-5.1-2.1-7.8l4.5-1c0.6,2.6,1.3,5.1,2,7.5L313.2,135.2z M281.1,129.5c-1.8-2-3.7-4-5.4-5.7l3.3-3.2
				c1.7,1.8,3.6,3.8,5.5,5.8L281.1,129.5z M348.5,122.2c-1.5-2.7-2.7-5-3.8-7.2l4.1-2c1,2.1,2.2,4.3,3.6,6.9L348.5,122.2z
				 M309.5,119.4c-0.4-2.7-0.8-5.3-1-8l4.6-0.4c0.2,2.6,0.6,5.2,1,7.7L309.5,119.4z M270.2,118c-2.2-2.3-3.9-4.2-5.3-6.1l3.6-2.9
				c1.4,1.7,3.1,3.6,5.1,5.8L270.2,118z M341.7,107.3c-0.9-2.9-1.5-5.6-1.7-8.3l4.6-0.4c0.2,2.3,0.7,4.7,1.5,7.2L341.7,107.3z
				 M260.1,105.2c-1.6-2.8-2.8-5.3-3.4-7.9l4.5-1.1c0.5,2.1,1.5,4.3,2.9,6.6L260.1,105.2z M307.3,104c-0.7-2.3-1.6-4.7-2.8-6.9
				l4.1-2.1c1.3,2.5,2.4,5.2,3.1,7.8L307.3,104z M345.2,91.6l-4.5-1.1c0.8-3,2.1-5.6,3.8-7.9l3.6,2.8
				C346.8,87.1,345.8,89.2,345.2,91.6z M300.5,90.7c-1.5-2-3.3-3.8-5.1-5.5l3.1-3.4c2,1.9,3.9,3.9,5.7,6.1L300.5,90.7z M261,89.4
				l-4.5-1.1c0.4-1.5,1-3.1,1.7-4.6c0.6-1.2,1.3-2.3,2.1-3.3l3.7,2.7c-0.6,0.8-1.2,1.8-1.7,2.8C261.8,87.1,261.3,88.3,261,89.4z
				 M353.5,80.8l-2.3-4c2.3-1.3,5-2.4,7.9-3.1l1.1,4.5C357.7,78.8,355.5,79.7,353.5,80.8z M289.4,80.7c-2.2-1.3-4.5-2.4-6.7-3.1
				l1.4-4.4c2.6,0.8,5.2,2,7.7,3.5L289.4,80.7z M269.1,78.5l-2.3-4c2.6-1.5,5.5-2.3,8.6-2.4l0.2,4.6
				C273.3,76.8,271.1,77.4,269.1,78.5z"/>
		</g>
	</g>
	<g class="st8">
		<polygon class="st43" points="336.8,97.7 322.8,117.7 374.1,122.1 385.2,124.9 384.9,124.5 386.4,110.8 388.8,85.9 389.1,84.7 
			371.1,88.1 		"/>
		<polygon class="st43" points="282.8,90.1 243.1,97.1 228.9,92.2 229.6,93.5 230,111.1 229.6,111.8 259.8,109.7 		"/>
		<polygon class="st43" points="313.1,78.1 326.4,53.1 324.7,42.9 316.4,43.6 301,41.6 313.4,55.7 		"/>
		<path class="st43" d="M256.2,184.4l8.6-8l10-6.7l-16-1.3l-12.7-1.7l-24.7-4.2l-0.1,1.4l0.3,27.2c7.9-2.5,24.2-6.8,24.2-6.8
			L256.2,184.4z"/>
		<polygon class="st43" points="330.4,171.4 337.4,187.1 338.3,205.4 339.6,205.7 361.8,204 349.4,181.4 		"/>
		<polygon class="st43" points="348.8,162.7 375.8,160.1 387.4,162.6 387.8,144.2 370.1,147.1 		"/>
	</g>
	<polygon class="st44" points="379,69.6 374.7,66.7 371.7,72.6 367.9,66.4 365,70.7 370.4,74 365.4,77.3 370,80.8 371.8,75.1 
		375.3,81.1 378.8,76.5 372.5,74 	"/>
	<polygon class="st45" points="267.8,63 265,46.1 261.2,39.4 257,41.2 260.5,47.2 	"/>
	<polygon class="st43" points="277,124.7 296.5,137 299.8,150 305.5,126.5 294.3,120 291,125 	"/>
	<circle class="st44" cx="240.1" cy="149.1" r="5.3"/>
</g>
</svg>
