<?xml version="1.0" encoding="utf-8"?>
<!-- Generator: Adobe Illustrator 26.0.1, SVG Export Plug-In . SVG Version: 6.00 Build 0)  -->
<svg version="1.1" id="Layer_1" xmlns="http://www.w3.org/2000/svg" xmlns:xlink="http://www.w3.org/1999/xlink" x="0px" y="0px"
	 viewBox="0 0 167 164.3" style="enable-background:new 0 0 167 164.3;" xml:space="preserve">
<style type="text/css">
	.st0{fill:#FFFFFF;}
	.st1{fill:#FF4500;}
	.st2{fill:#1C98ED;}
</style>
<g>
	<g>
		<g>
			<path class="st0" d="M135.9,123.7h-0.3l0-0.3c-0.1-1-0.3-1.9-0.4-2.7c-0.5-3.6-0.7-5.1,0.3-6.8c1.2-1.8,2.7-2.9,4.2-4
				c1.6-1.2,3.2-2.3,4.4-4.3c1.1-1.9,1-4-0.1-5.5c-1.4-1.8-4.1-2.3-7-1.3c-1.8,0.6-3,1.2-3.8,1.6c-2.5,1.3-2.7,1-5.8-3.8
				c-0.3-0.5-0.7-1-1.1-1.6l-0.2-0.3l0.3-0.2c6.3-5.2,14-6.9,20.6-4.3c4.9,1.9,8.1,5.6,8.7,10c0.7,5-2.1,10.2-7.9,14.6
				c-3.8,2.8-3.6,4.8-3.5,6.1c0.1,0.6,0.1,1.2-0.3,1.7C143.2,123.5,141.3,123.7,135.9,123.7z M139.7,97.8c2,0,3.7,0.7,4.7,2
				c1.4,1.7,1.4,4.1,0.2,6.2c-1.2,2.1-2.9,3.3-4.6,4.5c-1.5,1.1-3,2.1-4.1,3.8c-0.9,1.5-0.7,2.8-0.3,6.3c0.1,0.7,0.2,1.5,0.3,2.4
				c4.7,0,6.7-0.3,7.2-0.8c0.2-0.2,0.2-0.6,0.1-1.2c-0.1-1.4-0.3-3.6,3.8-6.7c5.6-4.2,8.3-9.1,7.6-13.9c-0.6-4.2-3.7-7.7-8.3-9.5
				c-6.3-2.4-13.6-0.9-19.7,4.1c0.3,0.5,0.6,0.9,0.9,1.4c1.4,2.3,2.3,3.5,2.9,3.9c0.5,0.3,0.9,0.1,2-0.4c0.9-0.5,2.1-1.1,3.9-1.6
				C137.7,97.9,138.7,97.8,139.7,97.8z"/>
		</g>
		<g>
			<path class="st0" d="M139.2,138.4c-2.8,0-5.8-1.7-5.8-5.6c0-3.8,3-5.6,5.8-5.6c2.9,0,5.8,1.9,5.8,5.6c0,1.7-0.6,3.2-1.8,4.2
				C142.1,137.9,140.7,138.4,139.2,138.4z M139.2,127.9c-2.4,0-5,1.5-5,4.9c0,3.4,2.6,4.9,5,4.9c2.4,0,5.1-1.5,5.1-4.9
				C144.3,129.5,141.7,127.9,139.2,127.9z"/>
		</g>
		<g>
			<g>
				<path class="st0" d="M135.9,125.3h-1.6l-0.2-1.6c-0.1-0.9-0.3-1.8-0.3-2.6V121c-0.6-3.8-0.9-5.6,0.6-7.8
					c0.1-0.2,0.2-0.3,0.3-0.5l0.6,0.4c-0.1,0.1-0.2,0.3-0.3,0.5c-1.3,2-1,3.8-0.5,7.4v0.1c0.1,0.7,0.3,1.6,0.4,2.6l0.1,1h1
					c5.8,0,7.8-0.3,8.7-1.3c0.3-0.4,0.5-0.9,0.6-1.4l0.7,0c0,0.7-0.3,1.4-0.7,1.9C143.9,125,142.1,125.3,135.9,125.3z"/>
			</g>
			<g>
				<path class="st0" d="M144,103.4l-0.7-0.1c0-0.1,0-0.3,0-0.3c0-0.5-0.1-1-0.3-1.4c-0.6-1.1-2-1.6-3.7-1.5l0-0.7
					c2-0.1,3.6,0.6,4.3,1.9c0.3,0.5,0.5,1.2,0.5,1.8C144,103.1,144,103.3,144,103.4z"/>
			</g>
			<g>
				<path class="st0" d="M131.2,102.7c-1.9,0-2.8-1.4-5.2-5.1l0,0c-0.3-0.5-0.6-1-1-1.6l-0.9-1.4l1.3-1.1c3-2.6,6.4-4.3,9.8-5.2
					l0.2,0.7c-3.4,0.9-6.6,2.6-9.6,5.1l-0.8,0.7l0.6,0.9c0.4,0.6,0.7,1.1,1,1.6l-0.3,0.2l0.3-0.2c2.3,3.6,3.1,4.8,4.6,4.8
					c0.5,0,1-0.2,1.6-0.5l0.3,0.6C132.5,102.5,131.9,102.7,131.2,102.7z"/>
			</g>
			<g>
				<path class="st0" d="M153.3,111.9l-0.5-0.5c2.5-3,3.9-6.3,3.9-9.5c0-0.9-0.1-1.7-0.3-2.5l0.7-0.1c0.2,0.9,0.3,1.8,0.3,2.6
					C157.3,105.3,155.9,108.8,153.3,111.9z"/>
			</g>
		</g>
		<g>
			<g>
				<path class="st0" d="M139.3,139.9L139.3,139.9c-3.7,0-7.3-2.4-7.3-7.1c0-0.9,0.1-1.7,0.4-2.4l0.7,0.2c-0.2,0.7-0.3,1.4-0.3,2.2
					c0,4.2,3.3,6.4,6.6,6.4V139.9z M145.8,136.1l-0.6-0.3c0.5-0.9,0.7-1.9,0.7-3c0-1.4-0.4-2.7-1.2-3.8l0.6-0.4
					c0.9,1.2,1.3,2.6,1.3,4.2C146.5,134,146.3,135.1,145.8,136.1z"/>
			</g>
		</g>
	</g>
	<g>
		<g>
			<path class="st1" d="M81.4,109.5h-0.9l-0.1-0.9c-0.4-2.9-0.8-5.5-1.1-7.7c-1.6-10.3-2.2-14.6,1-19.6c3.3-5.1,7.8-8.3,12.1-11.4
				c4.6-3.3,9.4-6.7,12.6-12.4c3.1-5.4,3-11.5-0.4-15.7c-4.1-5.1-11.7-6.5-20.3-3.8c-5.2,1.6-8.5,3.3-11,4.6
				c-7.2,3.7-7.7,2.9-16.5-10.8c-0.9-1.4-1.9-3-3-4.7l-0.5-0.7l0.7-0.6C72.1,10.7,94.3,6,113.3,13.3c13.9,5.4,23.3,16.2,25.1,28.9
				c2,14.5-6,29.4-22.7,42c-10.9,8.2-10.4,13.8-10.1,17.5c0.2,1.8,0.3,3.5-0.9,4.8C102.6,108.8,97,109.5,81.4,109.5z M92.5,34.7
				c5.7,0,10.6,2,13.7,5.9c3.9,4.9,4.1,11.8,0.6,18c-3.5,6.1-8.4,9.6-13.2,13c-4.4,3.1-8.6,6-11.6,10.8c-2.8,4.3-2.2,8.1-0.7,18.2
				c0.3,2,0.6,4.3,1,6.9c13.5,0,19.4-0.7,20.9-2.3c0.6-0.7,0.6-1.6,0.4-3.3c-0.4-4.1-0.9-10.4,10.9-19.2
				c16.1-12.1,23.9-26.4,22-40.1c-1.7-12-10.6-22.2-23.9-27.3c-18.1-7-39.3-2.6-56.7,11.6c0.9,1.4,1.8,2.7,2.5,3.9
				c4.2,6.5,6.5,10.1,8.2,11.3c1.3,0.9,2.4,0.4,5.7-1.2c2.5-1.3,6-3,11.3-4.7C86.8,35.2,89.8,34.7,92.5,34.7z"/>
		</g>
		<g>
			<path class="st1" d="M91.1,151.6c-8,0-16.5-5-16.5-16.1c0-11,8.6-16,16.5-16c8.3,0,16.6,5.5,16.6,16
				C107.8,146.1,99.4,151.6,91.1,151.6z M91.1,121.5c-7,0-14.5,4.4-14.5,14c0,9.7,7.5,14.1,14.5,14.1s14.6-4.4,14.6-14.1
				C105.8,125.9,98.2,121.5,91.1,121.5z"/>
		</g>
		<g>
			<g>
				<path class="st1" d="M81.4,114.1h-4.9l-0.7-4.9c-0.4-2.9-0.8-5.4-1.1-7.7c-1.6-10.9-2.4-16.3,1.6-22.7c0.1-0.2,0.2-0.3,0.3-0.5
					l1.7,1.1L78,79.8c-3.7,5.8-2.9,11-1.3,21.4c0.3,2.2,0.7,4.8,1.1,7.7l0.4,3.1h3.2c16.8,0,22.5-0.9,25.2-3.8
					c0.8-0.9,1.3-1.9,1.6-3.2l2,0.4c-0.3,1.6-1,3-2.1,4.2C104.9,113.2,99.1,114.1,81.4,114.1z"/>
			</g>
			<g>
				<path class="st1" d="M104.6,50.9l-2-0.2c0-0.4,0.1-0.7,0.1-1.1c0-1.4-0.3-2.8-1-4c-1.8-3.2-6-4.8-11.1-4.2l-0.2-2
					c5.9-0.6,10.8,1.4,13,5.2c0.9,1.5,1.3,3.2,1.3,5C104.7,50,104.6,50.5,104.6,50.9z"/>
			</g>
			<g>
				<path class="st1" d="M68.1,49.1c-5.6,0-8.2-4-15.2-14.8c-0.9-1.4-1.9-3-3-4.7l-2.7-4.2l3.8-3.2c8.5-7.1,17.7-12.1,27.4-14.7
					l0.5,1.9c-9.4,2.6-18.4,7.4-26.6,14.3l-2.5,2.1l1.8,2.7c1.1,1.7,2.1,3.3,3,4.7c6.7,10.4,8.9,13.9,13.5,13.9
					c1.1,0,2.3-0.3,3.7-0.9l0.8,1.8C70.9,48.8,69.5,49.1,68.1,49.1z"/>
			</g>
			<g>
				<path class="st1" d="M131.5,75.8l-1.5-1.3c7.5-8.8,11.5-18.5,11.5-27.9c0-2.4-0.3-4.9-0.8-7.3l2-0.4c0.6,2.5,0.8,5.1,0.8,7.7
					C143.4,56.5,139.3,66.6,131.5,75.8z"/>
			</g>
		</g>
		<g>
			<g>
				<path class="st1" d="M91.2,156.2L91.2,156.2c-10.6,0-21.3-7.1-21.3-20.7c0-2.5,0.4-4.9,1.1-7.1l1.9,0.6c-0.7,2-1,4.1-1,6.4
					c0,12.3,9.6,18.7,19.2,18.7L91.2,156.2z M110.2,145.2l-1.8-0.9c1.3-2.6,2-5.6,2-8.8c0-4.2-1.1-8-3.4-11l1.6-1.2
					c2.5,3.4,3.7,7.5,3.7,12.2C112.4,139.1,111.6,142.3,110.2,145.2z"/>
			</g>
		</g>
	</g>
	<g>
		<g>
			<path class="st2" d="M30,96.8h-0.9L29,96c-0.2-1.6-0.4-2.9-0.6-4.2c-0.8-5.5-1.2-8,0.6-10.8c1.8-2.8,4.3-4.6,6.6-6.3
				c2.6-1.8,5-3.5,6.7-6.5c1.6-2.8,1.5-5.8-0.2-7.9c-2.1-2.6-6-3.3-10.4-1.9c-2.7,0.9-4.5,1.8-5.8,2.4c-4.3,2.2-4.8,1.4-9.5-6
				c-0.5-0.8-1-1.6-1.6-2.5l-0.5-0.7L15,51c9.9-8.3,22-10.8,32.4-6.8c7.7,2.9,12.8,8.9,13.8,15.9c1.1,8-3.3,16.2-12.4,23
				c-5.6,4.3-5.4,7-5.2,9c0.1,1,0.2,2.1-0.6,3C41.6,96.4,38.6,96.8,30,96.8z M35.9,55.6c3.2,0,6,1.1,7.7,3.3
				c2.2,2.8,2.4,6.7,0.4,10.2c-1.9,3.3-4.6,5.3-7.2,7.1c-2.3,1.7-4.5,3.2-6.1,5.7c-1.4,2.2-1.1,4.2-0.3,9.5c0.1,1,0.3,2.1,0.5,3.3
				c4.9,0,9.7-0.2,10.5-1.1c0.2-0.2,0.2-0.7,0.1-1.4c-0.2-2.2-0.5-5.8,6-10.8C56,75,60.2,67.5,59.1,60.2
				c-0.9-6.3-5.6-11.7-12.6-14.3C37.1,42.4,26,44.6,16.8,52c0.4,0.6,0.8,1.2,1.1,1.8c2.2,3.5,3.5,5.4,4.3,5.9
				c0.5,0.3,0.8,0.2,2.6-0.7c1.4-0.7,3.3-1.7,6.2-2.6C32.8,55.9,34.4,55.6,35.9,55.6z"/>
		</g>
		<g>
			<g>
				<path class="st2" d="M30,101h-4.5l-0.6-4.5c-0.2-1.5-0.4-2.9-0.6-4.1c-0.9-6-1.4-9.6,1.2-13.7c2.2-3.5,5.2-5.6,7.7-7.4
					c1-0.7,1.9-1.3,2.7-2l1.3,1.5c-0.9,0.7-1.8,1.4-2.8,2.1c-2.4,1.7-5.2,3.7-7.2,6.9c-2.2,3.5-1.8,6.4-0.9,12.3
					c0.2,1.2,0.4,2.6,0.6,4.1l0.4,2.7H30c8.6,0,12.5-0.3,14.5-2.5c1.4-1.6,1.3-3.5,1.2-4.6c-0.2-2,0-3.8,4.4-7.1
					c0.5-0.4,1.1-0.8,1.6-1.2L53,85c-0.5,0.4-1.1,0.9-1.6,1.3c-3.8,2.9-3.7,4.1-3.6,5.3c0.1,1.3,0.3,3.9-1.7,6.1
					C43.5,100.5,39.6,101,30,101z"/>
			</g>
			<g>
				<path class="st2" d="M41,65.6L39.1,65c0.1-0.3,0.1-0.6,0.1-0.9c0-0.4-0.1-0.8-0.3-1.1l1.6-1.2c0,0.1,0.1,0.1,0.1,0.2
					c0.4,0.6,0.5,1.3,0.5,2.1C41.3,64.6,41.2,65.1,41,65.6z"/>
			</g>
			<g>
				<path class="st2" d="M22.8,66c-4.2,0-6-2.8-10-8.9l-0.1-0.2c-0.5-0.7-1-1.5-1.5-2.3l-2.5-3.8l3.5-2.9c7.5-6.3,16.2-9.6,25-9.6
					c1.6,0,3.2,0.1,4.8,0.3l-0.3,2c-1.5-0.2-3-0.3-4.5-0.3c-8.3,0-16.5,3.2-23.7,9.2l-2.1,1.8l1.5,2.3c0.6,0.8,1.1,1.6,1.5,2.3
					l0.1,0.2c4,6.2,5.3,8,8.3,8c1.4,0,2.6-0.6,4-1.3c1.3-0.7,2.9-1.5,5.5-2.3c1.9-0.6,3.7-0.8,5.2-0.5l-0.4,2
					c-1.1-0.2-2.6-0.1-4.2,0.4c-2.4,0.7-3.9,1.5-5.2,2.2C26.2,65.2,24.7,66,22.8,66z"/>
			</g>
			<g>
				<path class="st2" d="M62.8,73.2L61,72.3c1.6-3.2,2.4-6.5,2.4-9.7c0-1.5-0.2-3-0.5-4.4l1.9-0.5c0.4,1.6,0.6,3.2,0.6,4.9
					C65.5,66.1,64.6,69.7,62.8,73.2z"/>
			</g>
		</g>
		<g>
			<g>
				<path class="st2" d="M35.2,130.1c-6.7,0-13.5-4.6-13.5-13.3s6.8-13.3,13.5-13.3c6.6,0,13.6,4.6,13.6,13.3c0,4.3-1.8,8-5.1,10.5
					l-1.2-1.6c1.9-1.5,4.3-4.2,4.3-8.9c0-7.3-6-11.3-11.6-11.3c-5.7,0-11.5,3.9-11.5,11.3s5.8,11.3,11.5,11.3
					C35.2,128.1,35.2,130.1,35.2,130.1z"/>
			</g>
		</g>
		<g>
			<path class="st2" d="M35.2,126c-4.7,0-9.4-3.1-9.4-9.1s4.7-9.1,9.4-9.1s9.4,3.1,9.4,9.1C44.6,122.8,39.9,126,35.2,126z
				 M35.2,109.7c-3.5,0-7.4,2.2-7.4,7.1s3.8,7.1,7.4,7.1s7.4-2.2,7.4-7.1c0-2.2-0.8-4-2.3-5.3C39,110.4,37.1,109.7,35.2,109.7z"/>
		</g>
	</g>
</g>
</svg>
