<?xml version="1.0" encoding="utf-8"?>
<!-- Generator: Adobe Illustrator 26.0.1, SVG Export Plug-In . SVG Version: 6.00 Build 0)  -->
<svg version="1.1" id="Layer_1" xmlns="http://www.w3.org/2000/svg" xmlns:xlink="http://www.w3.org/1999/xlink" x="0px" y="0px"
	 viewBox="0 0 204.4 233.8" style="enable-background:new 0 0 204.4 233.8;" xml:space="preserve">
<style type="text/css">
	.st0{fill:#696B6D;}
	.st1{fill:#484B4C;}
	.st2{fill:none;}
	.st3{fill:#7B7D80;}
	.st4{fill:#2C2E30;}
	.st5{fill:#B6B8BA;}
	.st6{fill:#282A2C;}
	.st7{fill:#E6E7E8;}
	.st8{fill:#545658;}
	.st9{fill:#96A5A8;}
	.st10{fill:#292D2F;}
	.st11{fill:#FFFFFF;}
	.st12{fill:#3F4244;}
	.st13{fill:#17181A;}
</style>
<g>
	<g>
		<g>
			<polygon class="st0" points="63.6,87.3 60.4,75.8 58,75.8 55.1,75.9 52.2,87.4 51.1,91.7 59.6,91.6 64.8,91.5 			"/>
			<polygon class="st1" points="63.6,87.3 60.4,75.8 58,75.8 57.1,75.8 57.1,91.6 59.6,91.6 64.8,91.5 			"/>
			<g>
				<path class="st2" d="M58.2,90.4c-0.2,0-0.3,0-0.5,0.1c0.3,0,0.7,0,1,0C58.6,90.4,58.4,90.4,58.2,90.4z"/>
				<path class="st0" d="M68,95.1c-1.2-3-2.5-4.7-3.6-4.7c-0.5,0-3,0.1-5.6,0.1c5,0.8,8.4,13.8,8.4,14.7l4.2-1.1
					C71.3,104,69.2,98.1,68,95.1z"/>
				<path class="st3" d="M57.7,90.5c-3,0.1-5.8,0.1-5.8,0.1s-2.9-1.7-6.1,13.3l4.7,1.5C50.5,105.4,52.8,91.5,57.7,90.5z"/>
			</g>
			<g>
				<path class="st1" d="M57.7,90.5c-5,1-7.2,14.9-7.2,14.9l3.4-0.1c0,0,1.2-6.1,4.4-6.1l-0.1-8.7C58.1,90.5,57.9,90.5,57.7,90.5z"
					/>
				<path class="st4" d="M58.8,90.5c-0.2,0-0.3,0-0.5,0l0.1,8.7c3.2-0.1,4.4,6,4.4,6l4.4-0.1C67.1,104.3,63.8,91.3,58.8,90.5z"/>
			</g>
			<g>
				<polygon class="st5" points="46.4,104.1 17.7,226.2 21.6,228.2 50.5,105.4 				"/>
			</g>
			<g>
				<polygon class="st5" points="48.4,104.7 19.3,227 21.6,228.2 50.5,105.4 				"/>
			</g>
			<g>
				<polygon class="st5" points="70.7,104.2 67.1,105.2 100.2,225.7 105.2,225 				"/>
			</g>
			<g>
				<polygon class="st5" points="70.7,104.2 68.7,104.7 102.6,225.4 105.2,225 				"/>
			</g>
			<path class="st6" d="M54.9,102.5c0,0,0.8,1.5,0.8,3.2l5.4-0.1c0,0,0.1-2.3,0.7-3.2c0,0-1.2-3.2-3.5-3.1
				C56.1,99.3,54.9,102.5,54.9,102.5z"/>
			<polygon class="st5" points="60.8,105.6 56.8,105.7 56.1,105.7 56,221.6 56.8,221.6 61.2,221.5 			"/>
			<polygon class="st5" points="58.3,221.5 61.2,221.5 60.8,105.6 58.3,105.6 			"/>
		</g>
		<path class="st0" d="M17.7,224.8l4.9,1c0,0-0.2,3.7-2,4.4C18.7,230.8,15.4,229.8,17.7,224.8z"/>
		<path class="st0" d="M105.5,224.5l-5.6,1.3c0,0,0.2,3.7,2,4.4C103.8,230.8,107.8,229.5,105.5,224.5z"/>
		<path class="st0" d="M55.8,219.5h6c0,0,0.7,3.6-1.2,4.6C58.6,225.1,54.2,224.1,55.8,219.5z"/>
	</g>
	<path class="st0" d="M24,73.3L4.9,81.7c0,0-2.6,1.7-1.1,6.7c1.6,5.1,5.1,3.8,6.4,3.6c1.4-0.3,20-5.8,20-5.8L24,73.3z"/>
	<path class="st0" d="M15.2,82.8c-1.9,0.8-3.7,1.7-5.6,2.4c-0.9,0.4-2.2,1-3.3,0.6c-1.6-0.6-2.1-2-2.1-3.4c-0.6,0.9-1.4,2.8-0.4,6
		c1.6,5.1,5.1,3.8,6.4,3.6c1.4-0.3,20-5.8,20-5.8l-3.9-8C22.6,79.7,18.9,81.2,15.2,82.8z"/>
	<path class="st7" d="M165.8,11.9L20.6,72.7c-0.8,0.3-0.9,4.5,0.6,9.1c1.5,4.7,4.1,8,4.9,7.7L179,52.2l-11.5-38.9L165.8,11.9z"/>
	<g>
		<path class="st7" d="M169.2,19.1L20.1,77.2c0.1,1.1,0.4,2.3,0.7,3.6l150.9-53.2L169.2,19.1z"/>
	</g>
	<path class="st7" d="M146.5,42.7c-24.3,8-102.4,33.6-108.1,35.2c-3.9,1.1-9,2.6-13.1,1.2c-2.8-1-4.4-3.2-5.1-5.9
		c-0.5,1.3-0.3,4.8,1,8.7c1.5,4.7,4.1,8,4.9,7.7L179,52.2l-5.5-18.7C164.5,36.6,155.5,39.7,146.5,42.7z"/>
	<path class="st7" d="M169.2,54.6l9.9-2.4l-11.5-38.9l-1.7-1.4l-8.4,3.5C154.2,29.6,160.4,43.4,169.2,54.6z"/>
	<g>
		<path class="st0" d="M164.8,38.7c1.9,5.4,5,11.7,9.6,15.8l22.7-5.5l-13-43.7l-1.9-1.5l-20.1,8.4C159.6,20.7,161.9,30.5,164.8,38.7
			z"/>
		<path class="st8" d="M173.2,14.9c4.2-1.3,8.4-2.5,12.6-3.9l-1.7-5.8l-1.9-1.5l-20.1,8.4c-0.6,2.2-1,4.5-1.1,6.8
			C165.1,17.5,169.1,16.2,173.2,14.9z"/>
		<path class="st8" d="M166,41.8c1.9,4.6,4.6,9.4,8.4,12.7l22.7-5.5l-4.8-16.3C183.5,35.8,174.8,39,166,41.8z"/>
		<path d="M198.7,23.3c4.1,12.5,3.4,24-1.6,25.6c-5,1.7-12.4-7.1-16.5-19.6c-4.1-12.5-3.4-24,1.6-25.6
			C187.2,2.1,194.6,10.8,198.7,23.3z"/>
		<g>
			<path class="st9" d="M183.4,6c-0.8,0.3-1.4,0.8-1.9,1.6c4,1.5,8.8,8.4,11.8,17.5c3,9.1,3.2,17.6,0.9,21.1
				c0.9,0.3,1.7,0.4,2.5,0.1c4.2-1.4,4.7-11.6,1-22.7C194.1,12.5,187.7,4.6,183.4,6z"/>
			<path class="st10" d="M193.3,25.1c-3-9.1-7.9-16.1-11.8-17.5c-2.3,3.5-2.1,12,0.9,21.1c3,9.1,7.8,16.1,11.8,17.5
				C196.6,42.7,196.3,34.2,193.3,25.1z"/>
		</g>
		<path class="st11" d="M188.4,17.1c1.1,2.6,0.9,5.3-0.5,5.9c-1.4,0.6-3.5-1-4.6-3.7c-1.1-2.6-0.9-5.3,0.5-5.9
			C185.2,12.9,187.3,14.5,188.4,17.1z"/>
		<path class="st11" d="M191.9,27.8c0.5,1.1,0.4,2.2-0.2,2.5c-0.6,0.3-1.5-0.4-1.9-1.5c-0.5-1.1-0.4-2.2,0.2-2.5
			C190.6,26,191.5,26.7,191.9,27.8z"/>
	</g>
	<g>
		<path class="st0" d="M3.8,67.4c0,0-1.3,0.4-0.4,3.1c0.9,2.7,2.8,1.6,2.8,1.6l20.5-7.9l-3.1-6.5L3.8,67.4z"/>
		<path class="st0" d="M21.6,66.2l5.1-2l-3.1-6.5l-4.2,2.1C19.4,62,20.2,64.4,21.6,66.2z"/>
		<polygon class="st12" points="10.8,80.8 8.3,68.8 11,68.2 16.8,78.6 		"/>
		<path class="st12" d="M12.8,71.4L11,68.2l-2.7,0.6l0.8,3.9C10.4,72.4,11.6,71.9,12.8,71.4z"/>
		<path class="st12" d="M10.4,79l0.4,1.9l6.1-2.2l-1.2-2.1C14,77.4,12.2,78.4,10.4,79z"/>
		<polygon class="st12" points="5.7,66 8.3,71.9 12.6,70.3 10.1,63.5 		"/>
		<path class="st13" d="M10.1,68.1c0,0.6-0.5,1.1-1.1,1.1c-0.6,0-1.1-0.5-1.1-1.1C7.9,67.5,8.4,67,9,67C9.6,67,10.1,67.5,10.1,68.1z
			"/>
		<g>
			<path class="st0" d="M22,62.8c0.5,1.1,1.2,2.4,2.2,3.2l4.7-1.5l-3.3-9l-0.4-0.3l-4.1,2C20.7,59.1,21.3,61.1,22,62.8z"/>
			<path class="st8" d="M23.5,57.7c0.9-0.3,1.7-0.6,2.6-1l-0.4-1.2l-0.4-0.3l-4.1,2c-0.1,0.5-0.1,1-0.1,1.4
				C21.8,58.3,22.6,58,23.5,57.7z"/>
			<path class="st8" d="M22.3,63.4c0.5,0.9,1.1,1.9,1.9,2.5l4.7-1.5l-1.2-3.3C25.9,61.9,24.1,62.7,22.3,63.4z"/>
			<path d="M28.9,59.1c1,2.6,1,5,0,5.4c-1,0.4-2.7-1.3-3.7-3.9c-1-2.6-1-5,0-5.4C26.2,54.8,27.9,56.5,28.9,59.1z"/>
			<g>
				<path class="st9" d="M25.5,55.7c-0.2,0.1-0.3,0.2-0.4,0.4c0.9,0.3,2,1.6,2.7,3.5c0.8,1.9,0.9,3.6,0.5,4.4c0.2,0.1,0.4,0.1,0.5,0
					c0.9-0.4,0.8-2.5-0.1-4.8C27.8,56.9,26.3,55.3,25.5,55.7z"/>
				<path class="st10" d="M27.8,59.5c-0.8-1.9-1.9-3.3-2.7-3.5c-0.4,0.8-0.3,2.5,0.5,4.4c0.8,1.9,1.9,3.3,2.7,3.5
					C28.7,63.2,28.6,61.4,27.8,59.5z"/>
			</g>
			<path class="st11" d="M26.7,57.9c0.3,0.5,0.3,1.1,0,1.2c-0.3,0.1-0.7-0.2-1-0.7c-0.3-0.5-0.3-1.1,0-1.2
				C25.9,57.1,26.4,57.4,26.7,57.9z"/>
			<path class="st11" d="M27.6,60.1c0.1,0.2,0.1,0.5,0,0.5c-0.1,0.1-0.3-0.1-0.4-0.3c-0.1-0.2-0.1-0.5,0-0.5
				C27.2,59.8,27.4,59.9,27.6,60.1z"/>
		</g>
	</g>
	<path class="st1" d="M62.4,69.1c-1.4-4.2-2.3-9.5-1.1-14.1l-16.6,6.9c0,0,0,0,0,0.1c-0.7,1.5-1.1,3-1.2,4.7
		c-0.1,2.6,0.1,5.2,0.9,7.7c1.1,3.7,2.8,7.3,5.4,10.1l19.7-4.7C66,77.3,63.7,73,62.4,69.1z"/>
	<path class="st0" d="M45.5,63.7c-0.6,0.2-1.1,0.4-1.7,0.6c-0.2,0.8-0.3,1.5-0.4,2.3c0,0.4,0,0.8,0,1.2c4.3-1.8,15.8-7.1,17.4-7.7
		c0-0.6,0-1.2,0-1.7C58.7,59.2,48.5,62.7,45.5,63.7z"/>
	<path class="st1" d="M63.1,70.9c-1.5,0.5-13.5,4.5-18,6c1.1,2.8,2.5,5.4,4.6,7.6l19.7-4.7C66.5,77.6,64.5,74.3,63.1,70.9z"/>
</g>
</svg>
